<svg xmlns="http://www.w3.org/2000/svg" xmlns:xlink="http://www.w3.org/1999/xlink" width="630.96" height="123.12"><defs><clipPath id="a"><path d="M0 0h630.96v122.902H0Zm0 0"/></clipPath><clipPath id="b"><path d="M125.84 97.75h12.41v10.664h-12.41Zm0 0"/></clipPath><clipPath id="c"><path d="m132.047 97.75 6.203 10.664h-12.41Zm0 0"/></clipPath><clipPath id="g"><path d="M145.34 97.75h12.41v10.664h-12.41Zm0 0"/></clipPath><clipPath id="h"><path d="m151.547 97.75 6.203 10.664h-12.41Zm0 0"/></clipPath><clipPath id="k"><path d="M161.273 97.75h12.41v10.664h-12.41Zm0 0"/></clipPath><clipPath id="l"><path d="m167.477 97.75 6.207 10.664h-12.41Zm0 0"/></clipPath><clipPath id="o"><path d="M177.227 97.75h12.41v10.664h-12.41Zm0 0"/></clipPath><clipPath id="p"><path d="m183.434 97.75 6.203 10.664h-12.41Zm0 0"/></clipPath><clipPath id="r"><path d="M193.184 97.75h12.41v10.664h-12.41Zm0 0"/></clipPath><clipPath id="s"><path d="m199.387 97.75 6.207 10.664h-12.41Zm0 0"/></clipPath><clipPath id="v"><path d="M216.242 97.75h12.41v10.664h-12.41Zm0 0"/></clipPath><clipPath id="w"><path d="m222.445 97.75 6.207 10.664h-12.41Zm0 0"/></clipPath><clipPath id="y"><path d="M232.195 97.75h12.41v10.664h-12.41Zm0 0"/></clipPath><clipPath id="z"><path d="m238.402 97.75 6.203 10.664h-12.41Zm0 0"/></clipPath><clipPath id="B"><path d="M248.152 97.75h12.41v10.664h-12.41Zm0 0"/></clipPath><clipPath id="C"><path d="m254.355 97.75 6.208 10.664h-12.41Zm0 0"/></clipPath><clipPath id="E"><path d="M264.105 97.75h12.41v10.664h-12.41Zm0 0"/></clipPath><clipPath id="F"><path d="m270.313 97.75 6.203 10.664h-12.41Zm0 0"/></clipPath><clipPath id="H"><path d="M283.598 97.75h12.41v10.664h-12.41Zm0 0"/></clipPath><clipPath id="I"><path d="m289.805 97.75 6.203 10.664h-12.41Zm0 0"/></clipPath><clipPath id="K"><path d="M299.54 97.75h12.41v10.664h-12.41Zm0 0"/></clipPath><clipPath id="L"><path d="m305.742 97.75 6.207 10.664h-12.41Zm0 0"/></clipPath><clipPath id="N"><path d="M315.5 97.75h12.41v10.664H315.5Zm0 0"/></clipPath><clipPath id="O"><path d="m321.707 97.75 6.203 10.664H315.5Zm0 0"/></clipPath><clipPath id="P"><path d="M331.453 97.75h12.414v10.664h-12.414Zm0 0"/></clipPath><clipPath id="Q"><path d="m337.66 97.75 6.207 10.664h-12.414Zm0 0"/></clipPath><clipPath id="R"><path d="M350.953 97.75h12.41v10.664h-12.41Zm0 0"/></clipPath><clipPath id="S"><path d="m357.16 97.75 6.203 10.664h-12.41Zm0 0"/></clipPath><clipPath id="T"><path d="M366.879 97.75h12.41v10.664h-12.41Zm0 0"/></clipPath><clipPath id="U"><path d="m373.086 97.75 6.203 10.664h-12.41Zm0 0"/></clipPath><clipPath id="V"><path d="M382.836 97.75h12.41v10.664h-12.41Zm0 0"/></clipPath><clipPath id="W"><path d="m389.04 97.75 6.206 10.664h-12.41Zm0 0"/></clipPath><clipPath id="X"><path d="M398.79 97.75h12.41v10.664h-12.41Zm0 0"/></clipPath><clipPath id="Y"><path d="m404.996 97.75 6.203 10.664h-12.41Zm0 0"/></clipPath><clipPath id="Z"><path d="M421.848 97.75h12.41v10.664h-12.41Zm0 0"/></clipPath><clipPath id="aa"><path d="m428.055 97.75 6.203 10.664h-12.41Zm0 0"/></clipPath><clipPath id="ab"><path d="M437.805 97.75h12.41v10.664h-12.41Zm0 0"/></clipPath><clipPath id="ac"><path d="m444.008 97.75 6.207 10.664h-12.41Zm0 0"/></clipPath><clipPath id="ae"><path d="M453.758 97.75h12.41v10.664h-12.41Zm0 0"/></clipPath><clipPath id="af"><path d="m459.965 97.75 6.203 10.664h-12.41Zm0 0"/></clipPath><clipPath id="ah"><path d="M469.71 97.75h12.415v10.664h-12.414Zm0 0"/></clipPath><clipPath id="ai"><path d="m475.918 97.75 6.207 10.664h-12.414Zm0 0"/></clipPath><clipPath id="ak"><path d="M170.16 55.098h12.41v10.664h-12.41Zm0 0"/></clipPath><clipPath id="al"><path d="m176.367 55.098 6.203 10.664h-12.41Zm0 0"/></clipPath><clipPath id="am"><path d="M241.063 55.098h12.41v10.664h-12.41Zm0 0"/></clipPath><clipPath id="an"><path d="m247.266 55.098 6.207 10.664h-12.41Zm0 0"/></clipPath><clipPath id="ao"><path d="M308.418 55.098h12.41v10.664h-12.41Zm0 0"/></clipPath><clipPath id="ap"><path d="m314.625 55.098 6.203 10.664h-12.41Zm0 0"/></clipPath><clipPath id="aq"><path d="M375.773 55.098h12.41v10.664h-12.41Zm0 0"/></clipPath><clipPath id="ar"><path d="m381.98 55.098 6.204 10.664h-12.41Zm0 0"/></clipPath><clipPath id="as"><path d="M446.668 55.098h12.41v10.664h-12.41Zm0 0"/></clipPath><clipPath id="at"><path d="m452.875 55.098 6.203 10.664h-12.41Zm0 0"/></clipPath><clipPath id="au"><path d="M265.875 12.445h12.41V23.11h-12.41Zm0 0"/></clipPath><clipPath id="av"><path d="m272.078 12.445 6.207 10.664h-12.41Zm0 0"/></clipPath><clipPath id="aw"><path d="M10.633 97.75h12.41v10.664h-12.41Zm0 0"/></clipPath><clipPath id="ax"><path d="m16.84 97.75 6.203 10.664h-12.41Zm0 0"/></clipPath><clipPath id="ay"><path d="M26.59 97.75H39v10.664H26.59Zm0 0"/></clipPath><clipPath id="az"><path d="M32.793 97.75 39 108.414H26.59Zm0 0"/></clipPath><clipPath id="aA"><path d="M42.543 97.75h12.41v10.664h-12.41Zm0 0"/></clipPath><clipPath id="aB"><path d="m48.75 97.75 6.203 10.664h-12.41Zm0 0"/></clipPath><clipPath id="aC"><path d="M58.5 97.75h12.41v10.664H58.5Zm0 0"/></clipPath><clipPath id="aD"><path d="m64.703 97.75 6.207 10.664H58.5Zm0 0"/></clipPath><clipPath id="aE"><path d="M77.992 97.75h12.41v10.664h-12.41Zm0 0"/></clipPath><clipPath id="aF"><path d="m84.195 97.75 6.207 10.664h-12.41Zm0 0"/></clipPath><clipPath id="aG"><path d="M93.93 97.75h12.41v10.664H93.93Zm0 0"/></clipPath><clipPath id="aH"><path d="m100.137 97.75 6.203 10.664H93.93Zm0 0"/></clipPath><clipPath id="aI"><path d="M109.887 97.75h12.41v10.664h-12.41Zm0 0"/></clipPath><clipPath id="aJ"><path d="m116.09 97.75 6.207 10.664h-12.41Zm0 0"/></clipPath><clipPath id="aK"><path d="M35.445 55.098H47.86v10.664H35.445Zm0 0"/></clipPath><clipPath id="aL"><path d="m41.652 55.098 6.207 10.664H35.445Zm0 0"/></clipPath><clipPath id="aM"><path d="M102.805 55.098h12.41v10.664h-12.41Zm0 0"/></clipPath><clipPath id="aN"><path d="m109.008 55.098 6.207 10.664h-12.41Zm0 0"/></clipPath><clipPath id="aO"><path d="M489.203 97.75h12.414v10.664h-12.414Zm0 0"/></clipPath><clipPath id="aP"><path d="m495.41 97.75 6.207 10.664h-12.414Zm0 0"/></clipPath><clipPath id="aQ"><path d="M505.145 97.75h12.41v10.664h-12.41Zm0 0"/></clipPath><clipPath id="aR"><path d="m511.352 97.75 6.203 10.664h-12.41Zm0 0"/></clipPath><clipPath id="aS"><path d="M521.098 97.75h12.414v10.664h-12.414Zm0 0"/></clipPath><clipPath id="aT"><path d="m527.305 97.75 6.207 10.664h-12.414Zm0 0"/></clipPath><clipPath id="aU"><path d="M537.063 97.75h12.41v10.664h-12.41Zm0 0"/></clipPath><clipPath id="aV"><path d="m543.266 97.75 6.207 10.664h-12.41Zm0 0"/></clipPath><clipPath id="aX"><path d="M556.531 97.75h12.41v10.664h-12.41Zm0 0"/></clipPath><clipPath id="aY"><path d="m562.738 97.75 6.203 10.664h-12.41Zm0 0"/></clipPath><clipPath id="aZ"><path d="M572.484 97.75h12.414v10.664h-12.414Zm0 0"/></clipPath><clipPath id="ba"><path d="m578.691 97.75 6.207 10.664h-12.414Zm0 0"/></clipPath><clipPath id="bb"><path d="M588.441 97.75h12.41v10.664h-12.41Zm0 0"/></clipPath><clipPath id="bc"><path d="m594.648 97.75 6.204 10.664h-12.41Zm0 0"/></clipPath><clipPath id="bd"><path d="M604.395 97.75h12.414v10.664h-12.414Zm0 0"/></clipPath><clipPath id="be"><path d="m610.602 97.75 6.207 10.664h-12.414Zm0 0"/></clipPath><clipPath id="bf"><path d="M514.023 55.098h12.414v10.664h-12.414Zm0 0"/></clipPath><clipPath id="bg"><path d="m520.23 55.098 6.207 10.664h-12.414Zm0 0"/></clipPath><clipPath id="bh"><path d="M581.375 55.098h12.41v10.664h-12.41Zm0 0"/></clipPath><clipPath id="bi"><path d="m587.578 55.098 6.207 10.664h-12.41Zm0 0"/></clipPath><path id="d" d="M.094-.484v-.172h.5v.172Zm0 0"/><path id="e" d="M.734 0H.578v-1.344a.2.2 0 0 1-.047.063 3 3 0 0 0-.25.187l-.094-.11.407-.312h.14Zm0 0"/><path id="f" d="M1.11-.766q-.002.394-.126.594A.43.43 0 0 1 .61.016q-.252 0-.375-.188C.148-.305.11-.504.11-.766c0-.257.04-.453.125-.578a.41.41 0 0 1 .375-.203q.247.002.375.203.124.204.125.578m-.829 0q-.002.347.078.5.076.141.25.141.17.002.25-.156.078-.155.079-.485-.001-.328-.079-.468c-.054-.102-.136-.157-.25-.157-.117 0-.199.055-.25.157q-.08.14-.078.468m0 0"/><path id="i" d="M.734 0H.578v-1.344a.2.2 0 0 1-.047.063 3 3 0 0 0-.25.187l-.094-.11.407-.312h.14Zm0 0"/><path id="j" d="M1.11-.766q-.002.394-.126.594A.43.43 0 0 1 .61.016q-.252 0-.375-.188C.148-.305.11-.504.11-.766c0-.257.04-.453.125-.578a.41.41 0 0 1 .375-.203q.247.002.375.203.124.204.125.578m-.829 0q-.002.347.078.5.076.141.25.141.17.002.25-.156.078-.155.079-.485-.001-.328-.079-.468c-.054-.102-.136-.157-.25-.157-.117 0-.199.055-.25.157q-.08.14-.078.468m0 0"/><path id="A" d="m.297 0 .625-1.36H.094v-.156h1.015v.141L.484 0Zm0 0"/><path id="D" d="M1.172-.344H.953V0H.781v-.344H.047V-.5l.719-1.031h.187V-.5h.219ZM.782-.5v-.516q-.002-.14.015-.328H.78a1 1 0 0 1-.094.157L.22-.5Zm0 0"/><path id="G" d="M.578-.922a.55.55 0 0 1 .375.125q.14.112.14.313a.49.49 0 0 1-.155.375Q.796.018.53.016.263.018.141-.062v-.172a.5.5 0 0 0 .172.078.7.7 0 0 0 .218.031c.125 0 .219-.023.282-.078A.34.34 0 0 0 .922-.47c0-.207-.133-.312-.39-.312q-.114 0-.266.031L.172-.812l.062-.704h.75v.157H.375l-.031.453c.07-.008.148-.016.234-.016m0 0"/><path id="J" d="M1.094 0H.109v-.14L.5-.548a1.7 1.7 0 0 0 .234-.265.7.7 0 0 0 .094-.157.4.4 0 0 0 .031-.156.23.23 0 0 0-.078-.187Q.717-1.39.578-1.391a.6.6 0 0 0-.187.032.7.7 0 0 0-.172.109l-.094-.11a.68.68 0 0 1 .453-.171q.217.002.328.11a.37.37 0 0 1 .125.28.6.6 0 0 1-.078.297Q.872-.7.656-.5l-.328.328v.016h.766Zm0 0"/><path id="M" d="M1.047-1.156a.32.32 0 0 1-.094.234.4.4 0 0 1-.219.125c.125.024.211.063.266.125a.34.34 0 0 1 .094.25.4.4 0 0 1-.157.328q-.14.11-.421.11C.43.016.352.008.28 0a.6.6 0 0 1-.187-.062V-.22Q.2-.17.313-.14q.107.017.203.016c.257 0 .39-.102.39-.312q0-.265-.422-.266H.328V-.86h.156q.172.002.266-.079c.07-.05.11-.125.11-.218a.22.22 0 0 0-.079-.172Q.717-1.39.578-1.391a.6.6 0 0 0-.187.032.7.7 0 0 0-.203.093l-.079-.109a.6.6 0 0 1 .204-.11.8.8 0 0 1 .265-.046.57.57 0 0 1 .344.093q.124.095.125.282m0 0"/><path id="ag" d="M.125-.656q-.002-.434.172-.656.17-.219.516-.22c.07 0 .132.009.187.016v.141a1.3 1.3 0 0 0-.187-.016c-.168 0-.293.055-.375.157q-.129.14-.141.468h.016q.105-.17.359-.171.2 0 .312.125.124.11.125.328a.55.55 0 0 1-.125.375.46.46 0 0 1-.343.125.47.47 0 0 1-.391-.172C.164-.27.125-.437.125-.656m.5.531q.153 0 .234-.094a.4.4 0 0 0 .079-.265.33.33 0 0 0-.079-.235Q.794-.813.641-.813a.33.33 0 0 0-.172.047.26.26 0 0 0-.125.11.2.2 0 0 0-.047.125q-.002.11.031.203c.031.062.07.117.125.156.05.031.11.047.172.047m0 0"/><path id="aW" d="M1.094-.875q0 .89-.688.89Q.296.015.22 0v-.14q.075.016.187.015.247 0 .375-.14.124-.155.14-.485H.907a.3.3 0 0 1-.14.14.6.6 0 0 1-.22.032.47.47 0 0 1-.327-.11Q.109-.81.109-1.03c0-.157.04-.274.125-.36a.48.48 0 0 1 .36-.14q.153 0 .265.078c.07.055.13.133.172.234a.9.9 0 0 1 .063.344m-.5-.516q-.159 0-.235.094-.08.095-.078.266 0 .156.063.25.076.08.234.078A.4.4 0 0 0 .75-.734a.4.4 0 0 0 .125-.11.3.3 0 0 0 .047-.14c0-.07-.016-.141-.047-.203a.27.27 0 0 0-.11-.141.3.3 0 0 0-.171-.063m0 0"/><path id="m" d="M.094-.484v-.172h.5v.172Zm0 0"/><path id="n" d="M.125-.656q-.002-.434.172-.656.17-.219.516-.22c.07 0 .132.009.187.016v.141a1.3 1.3 0 0 0-.187-.016c-.168 0-.293.055-.375.157q-.129.14-.141.468h.016q.105-.17.359-.171.2 0 .312.125.124.11.125.328a.55.55 0 0 1-.125.375.46.46 0 0 1-.343.125.47.47 0 0 1-.391-.172C.164-.27.125-.437.125-.656m.5.531q.153 0 .234-.094a.4.4 0 0 0 .079-.265.33.33 0 0 0-.079-.235Q.794-.813.641-.813a.33.33 0 0 0-.172.047.26.26 0 0 0-.125.11.2.2 0 0 0-.047.125q-.002.11.031.203c.031.062.07.117.125.156.05.031.11.047.172.047m0 0"/><path id="q" d="M.61-1.531q.198 0 .328.093a.32.32 0 0 1 .125.266q-.001.11-.079.203a.6.6 0 0 1-.218.172c.125.055.21.117.265.188a.34.34 0 0 1 .078.218.35.35 0 0 1-.14.297c-.086.074-.203.11-.36.11a.67.67 0 0 1-.375-.094C.148-.148.11-.254.11-.391Q.107-.638.422-.797a.54.54 0 0 1-.203-.172.35.35 0 0 1-.063-.203q-.001-.17.125-.266A.53.53 0 0 1 .61-1.53M.28-.391Q.28-.263.36-.187a.43.43 0 0 0 .25.062q.153 0 .235-.062a.25.25 0 0 0 .094-.204q0-.091-.094-.171A.6.6 0 0 0 .578-.72a.7.7 0 0 0-.234.14.3.3 0 0 0-.063.188M.61-1.406a.36.36 0 0 0-.218.062.23.23 0 0 0-.063.172q0 .095.063.172.06.066.218.125A.6.6 0 0 0 .83-1c.038-.05.062-.11.062-.172a.22.22 0 0 0-.079-.172.34.34 0 0 0-.203-.062m0 0"/><path id="t" d="M1.172-.344H.953V0H.781v-.344H.047V-.5l.719-1.031h.187V-.5h.219ZM.782-.5v-.516q-.002-.14.015-.328H.78a1 1 0 0 1-.094.157L.22-.5Zm0 0"/><path id="u" d="M1.094-.875q0 .89-.688.89Q.296.015.22 0v-.14q.075.016.187.015.247 0 .375-.14.124-.155.14-.485H.907a.3.3 0 0 1-.14.14.6.6 0 0 1-.22.032.47.47 0 0 1-.327-.11Q.109-.81.109-1.03c0-.157.04-.274.125-.36a.48.48 0 0 1 .36-.14q.153 0 .265.078c.07.055.13.133.172.234a.9.9 0 0 1 .063.344m-.5-.516q-.159 0-.235.094-.08.095-.078.266 0 .156.063.25.076.08.234.078A.4.4 0 0 0 .75-.734a.4.4 0 0 0 .125-.11.3.3 0 0 0 .047-.14c0-.07-.016-.141-.047-.203a.27.27 0 0 0-.11-.141.3.3 0 0 0-.171-.063m0 0"/><path id="x" d="M1.047-1.156a.32.32 0 0 1-.094.234.4.4 0 0 1-.219.125c.125.024.211.063.266.125a.34.34 0 0 1 .094.25.4.4 0 0 1-.157.328q-.14.11-.421.11C.43.016.352.008.28 0a.6.6 0 0 1-.187-.062V-.22Q.2-.17.313-.14q.107.017.203.016c.257 0 .39-.102.39-.312q0-.265-.422-.266H.328V-.86h.156q.172.002.266-.079c.07-.05.11-.125.11-.218a.22.22 0 0 0-.079-.172Q.717-1.39.578-1.391a.6.6 0 0 0-.187.032.7.7 0 0 0-.203.093l-.079-.109a.6.6 0 0 1 .204-.11.8.8 0 0 1 .265-.046.57.57 0 0 1 .344.093q.124.095.125.282m0 0"/><path id="ad" d="M.734 0H.578v-1.344a.2.2 0 0 1-.047.063 3 3 0 0 0-.25.187l-.094-.11.407-.312h.14Zm0 0"/><path id="aj" d="M.578-.922a.55.55 0 0 1 .375.125q.14.112.14.313a.49.49 0 0 1-.155.375Q.796.018.53.016.263.018.141-.062v-.172a.5.5 0 0 0 .172.078.7.7 0 0 0 .218.031c.125 0 .219-.023.282-.078A.34.34 0 0 0 .922-.47c0-.207-.133-.312-.39-.312q-.114 0-.266.031L.172-.812l.062-.704h.75v.157H.375l-.031.453c.07-.008.148-.016.234-.016m0 0"/></defs><g clip-path="url(#a)"><path fill="#FFF" d="M-63.096-12.312h757.152v147.744H-63.096z"/><path fill="#F2F2F2" d="M-63.096-12.312h757.152v147.744H-63.096z"/><path fill="#FFF" d="M-63.096-12.312h757.152v147.744H-63.096z"/></g><g clip-path="url(#b)"><g clip-path="url(#c)"><path fill="none" stroke="#1A1A1A" stroke-width="4" d="m70.033.005 69.994 120.001H-.005Zm0 0" transform="matrix(.08862 0 0 .08887 125.84 97.75)"/></g></g><g fill="#1A1A1A"><use xlink:href="#d" x="130.488" y="106.414"/><use xlink:href="#e" x="131.172" y="106.414"/><use xlink:href="#f" x="132.388" y="106.414"/></g><g clip-path="url(#g)"><g clip-path="url(#h)"><path fill="none" stroke="#1A1A1A" stroke-width="4" d="m70.038.005 69.995 120.001H0Zm0 0" transform="matrix(.08862 0 0 .08887 145.34 97.75)"/></g></g><g fill="#1A1A1A"><use xlink:href="#i" x="150.33" y="106.414"/><use xlink:href="#j" x="151.545" y="106.414"/></g><g clip-path="url(#k)"><g clip-path="url(#l)"><path fill="none" stroke="#1A1A1A" stroke-width="4" d="m70.008.005 70.038 120.001H.014Zm0 0" transform="matrix(.08862 0 0 .08887 161.272 97.75)"/></g></g><g fill="#1A1A1A"><use xlink:href="#m" x="166.528" y="106.414"/><use xlink:href="#n" x="167.212" y="106.414"/></g><g clip-path="url(#o)"><g clip-path="url(#p)"><path fill="none" stroke="#1A1A1A" stroke-width="4" d="m70.033.005 69.994 120.001H-.005Zm0 0" transform="matrix(.08862 0 0 .08887 177.227 97.75)"/></g></g><g fill="#1A1A1A"><use xlink:href="#m" x="182.483" y="106.414"/><use xlink:href="#q" x="183.167" y="106.414"/></g><g clip-path="url(#r)"><g clip-path="url(#s)"><path fill="none" stroke="#1A1A1A" stroke-width="4" d="m70.013.005 70.038 120.001H.02Zm0 0" transform="matrix(.08862 0 0 .08887 193.182 97.75)"/></g></g><g fill="#1A1A1A"><use xlink:href="#m" x="198.438" y="106.414"/><use xlink:href="#t" x="199.122" y="106.414"/></g><path fill="none" stroke="#1A1A1A" stroke-linecap="round" stroke-linejoin="round" stroke-width="2" d="M70.016-.015h56.066c3.085 0 5.377 1.363 6.92 4.044 1.542 2.681 1.542 5.319 0 8l-56.11 96.133a7.67 7.67 0 0 1-2.91 2.901 7.9 7.9 0 0 1-3.966 1.055 7.9 7.9 0 0 1-4.011-1.055 7.67 7.67 0 0 1-2.91-2.9L7.03 12.028c-1.587-2.681-1.587-5.319-.044-8S10.82-.015 13.95-.015Zm0 0" transform="matrix(.08862 0 0 .08887 122.31 76.423)"/><g fill="#333"><use xlink:href="#m" x="127.564" y="80.111"/><use xlink:href="#u" x="128.248" y="80.111"/></g><path fill="none" stroke="#1A1A1A" stroke-linecap="round" stroke-linejoin="round" stroke-width="2" d="M69.994-.015h56.066c3.085 0 5.421 1.363 6.964 4.044s1.499 5.319-.044 8l-56.066 96.133a7.67 7.67 0 0 1-2.909 2.901 8.04 8.04 0 0 1-4.01 1.055 7.9 7.9 0 0 1-3.968-1.055c-1.234-.703-2.204-1.67-2.953-2.9L7.008 12.028c-1.542-2.681-1.542-5.319 0-8 1.499-2.681 3.835-4.044 6.92-4.044Zm0 0" transform="matrix(.08862 0 0 .08887 157.75 76.423)"/><g fill="#333"><use xlink:href="#i" x="162.738" y="80.111"/><use xlink:href="#j" x="163.954" y="80.111"/></g><path fill="none" stroke="#1A1A1A" stroke-linecap="round" stroke-linejoin="round" stroke-width="2" d="M70.003-.015h56.066c3.085 0 5.421 1.363 6.92 4.044 1.542 2.681 1.542 5.319 0 8l-56.066 96.133c-.75 1.23-1.719 2.198-2.953 2.901a7.9 7.9 0 0 1-3.967 1.055 7.9 7.9 0 0 1-3.967-1.055c-1.234-.703-2.248-1.67-2.953-2.9L7.017 12.028c-1.543-2.681-1.543-5.319-.044-8 1.543-2.681 3.879-4.044 6.964-4.044Zm0 0" transform="matrix(.08862 0 0 .08887 189.667 76.423)"/><g fill="#333"><use xlink:href="#m" x="194.921" y="80.111"/><use xlink:href="#t" x="195.605" y="80.111"/></g><g clip-path="url(#v)"><g clip-path="url(#w)"><path fill="none" stroke="#1A1A1A" stroke-width="4" d="m70.006.005 70.038 120.001H.012Zm0 0" transform="matrix(.08862 0 0 .08887 216.241 97.75)"/></g></g><g fill="#1A1A1A"><use xlink:href="#m" x="221.497" y="106.414"/><use xlink:href="#x" x="222.181" y="106.414"/></g><g clip-path="url(#y)"><g clip-path="url(#z)"><path fill="none" stroke="#1A1A1A" stroke-width="4" d="m70.03.005 69.995 120.001H-.008Zm0 0" transform="matrix(.08862 0 0 .08887 232.196 97.75)"/></g></g><use xlink:href="#A" x="237.794" y="106.414" fill="#1A1A1A"/><g clip-path="url(#B)"><g clip-path="url(#C)"><path fill="none" stroke="#1A1A1A" stroke-width="4" d="m70.01.005 70.04 120.001H.016Zm0 0" transform="matrix(.08862 0 0 .08887 248.15 97.75)"/></g></g><use xlink:href="#D" x="253.748" y="106.414" fill="#1A1A1A"/><g clip-path="url(#E)"><g clip-path="url(#F)"><path fill="none" stroke="#1A1A1A" stroke-width="4" d="m70.036.005 69.994 120.001H-.003Zm0 0" transform="matrix(.08862 0 0 .08887 264.106 97.75)"/></g></g><use xlink:href="#G" x="269.703" y="106.414" fill="#1A1A1A"/><g clip-path="url(#H)"><g clip-path="url(#I)"><path fill="none" stroke="#1A1A1A" stroke-width="4" d="m70.037.005 69.994 120.001H0Zm0 0" transform="matrix(.08862 0 0 .08887 283.598 97.75)"/></g></g><use xlink:href="#J" x="289.195" y="106.414" fill="#1A1A1A"/><g clip-path="url(#K)"><g clip-path="url(#L)"><path fill="none" stroke="#1A1A1A" stroke-width="4" d="m70.01.005 70.038 120.001H.016Zm0 0" transform="matrix(.08862 0 0 .08887 299.538 97.75)"/></g></g><use xlink:href="#M" x="305.135" y="106.414" fill="#1A1A1A"/><g clip-path="url(#N)"><g clip-path="url(#O)"><path fill="none" stroke="#1A1A1A" stroke-width="4" d="m70.039.005 69.994 120.001H0Zm0 0" transform="matrix(.08862 0 0 .08887 315.5 97.75)"/></g></g><g fill="#1A1A1A"><use xlink:href="#d" x="320.148" y="106.414"/><use xlink:href="#e" x="320.832" y="106.414"/><use xlink:href="#f" x="322.047" y="106.414"/></g><g clip-path="url(#P)"><g clip-path="url(#Q)"><path fill="none" stroke="#1A1A1A" stroke-width="4" d="m70.02.005 70.037 120.001H-.019Zm0 0" transform="matrix(.08862 0 0 .08887 331.455 97.75)"/></g></g><g fill="#1A1A1A"><use xlink:href="#m" x="336.71" y="106.414"/><use xlink:href="#x" x="337.395" y="106.414"/></g><g clip-path="url(#R)"><g clip-path="url(#S)"><path fill="none" stroke="#1A1A1A" stroke-width="4" d="m70.024.005 69.994 120.001H-.014Zm0 0" transform="matrix(.08862 0 0 .08887 350.954 97.75)"/></g></g><g fill="#1A1A1A"><use xlink:href="#i" x="355.944" y="106.414"/><use xlink:href="#j" x="357.16" y="106.414"/></g><g clip-path="url(#T)"><g clip-path="url(#U)"><path fill="none" stroke="#1A1A1A" stroke-width="4" d="m70.034.005 69.994 120.001H-.004Zm0 0" transform="matrix(.08862 0 0 .08887 366.88 97.75)"/></g></g><use xlink:href="#j" x="372.477" y="106.414" fill="#1A1A1A"/><g clip-path="url(#V)"><g clip-path="url(#W)"><path fill="none" stroke="#1A1A1A" stroke-width="4" d="m70.015.005 70.038 120.001H.021Zm0 0" transform="matrix(.08862 0 0 .08887 382.834 97.75)"/></g></g><g fill="#1A1A1A"><use xlink:href="#d" x="387.482" y="106.414"/><use xlink:href="#e" x="388.166" y="106.414"/><use xlink:href="#f" x="389.382" y="106.414"/></g><g clip-path="url(#X)"><g clip-path="url(#Y)"><path fill="none" stroke="#1A1A1A" stroke-width="4" d="m70.04.005 69.993 120.001H.001Zm0 0" transform="matrix(.08862 0 0 .08887 398.789 97.75)"/></g></g><use xlink:href="#A" x="404.387" y="106.414" fill="#1A1A1A"/><path fill="none" stroke="#1A1A1A" stroke-linecap="round" stroke-linejoin="round" stroke-width="2" d="M70.006-.015h56.066c3.085 0 5.377 1.363 6.92 4.044s1.543 5.319 0 8l-56.066 96.133c-.75 1.23-1.719 2.198-2.953 2.901a7.9 7.9 0 0 1-3.967 1.055 8.04 8.04 0 0 1-4.01-1.055 7.67 7.67 0 0 1-2.91-2.9L7.02 12.028c-1.542-2.681-1.586-5.319-.044-8S10.855-.015 13.94-.015Zm0 0" transform="matrix(.08862 0 0 .08887 228.651 76.423)"/><use xlink:href="#A" x="234.247" y="80.111" fill="#333"/><path fill="none" stroke="#1A1A1A" stroke-linecap="round" stroke-linejoin="round" stroke-width="2" d="M70.01-.015h56.067c3.085 0 5.377 1.363 6.92 4.044 1.542 2.681 1.542 5.319 0 8L76.93 108.162c-.75 1.23-1.719 2.198-2.953 2.901a7.9 7.9 0 0 1-3.967 1.055A7.9 7.9 0 0 1 66 111.063a7.67 7.67 0 0 1-2.91-2.9L7.026 12.028c-1.543-2.681-1.587-5.319-.044-8S10.86-.015 13.945-.015Zm0 0" transform="matrix(.08862 0 0 .08887 260.561 76.423)"/><use xlink:href="#G" x="266.157" y="80.111" fill="#333"/><path fill="none" stroke="#1A1A1A" stroke-linecap="round" stroke-linejoin="round" stroke-width="2" d="M69.993-.015h56.066c3.085 0 5.421 1.363 6.964 4.044s1.499 5.319-.044 8l-56.066 96.133a7.67 7.67 0 0 1-2.909 2.901 8.04 8.04 0 0 1-4.011 1.055 7.9 7.9 0 0 1-3.967-1.055c-1.234-.703-2.204-1.67-2.953-2.9L7.007 12.028c-1.543-2.681-1.543-5.319 0-8s3.835-4.044 6.92-4.044Zm0 0" transform="matrix(.08862 0 0 .08887 296.008 76.423)"/><use xlink:href="#M" x="301.604" y="80.111" fill="#333"/><path fill="none" stroke="#1A1A1A" stroke-linecap="round" stroke-linejoin="round" stroke-width="2" d="M70.002-.015h56.066c3.085 0 5.421 1.363 6.92 4.044 1.542 2.681 1.542 5.319 0 8l-56.066 96.133c-.75 1.23-1.72 2.198-2.953 2.901a7.9 7.9 0 0 1-3.967 1.055 7.9 7.9 0 0 1-3.967-1.055c-1.234-.703-2.248-1.67-2.953-2.9L7.016 12.028c-1.543-2.681-1.543-5.319-.044-8C8.515 1.348 10.85-.015 13.936-.015Zm0 0" transform="matrix(.08862 0 0 .08887 327.925 76.423)"/><g fill="#333"><use xlink:href="#m" x="333.179" y="80.111"/><use xlink:href="#x" x="333.863" y="80.111"/></g><path fill="none" stroke="#1A1A1A" stroke-linecap="round" stroke-linejoin="round" stroke-width="2" d="M69.98-.015h56.11c3.085 0 5.377 1.363 6.92 4.044s1.543 5.319-.044 8L76.9 108.162a7.67 7.67 0 0 1-2.909 2.901 7.9 7.9 0 0 1-4.011 1.055 7.9 7.9 0 0 1-3.967-1.055 7.67 7.67 0 0 1-2.909-2.9L7.038 12.028c-1.587-2.681-1.587-5.319-.044-8s3.835-4.044 6.92-4.044Zm0 0" transform="matrix(.08862 0 0 .08887 363.365 76.423)"/><g fill="#333"><use xlink:href="#i" x="368.353" y="80.111"/><use xlink:href="#j" x="369.568" y="80.111"/></g><path fill="none" stroke="#1A1A1A" stroke-linecap="round" stroke-linejoin="round" stroke-width="2" d="M69.985-.015h56.066c3.13 0 5.421 1.363 6.964 4.044s1.543 5.319-.044 8l-56.066 96.133a7.67 7.67 0 0 1-2.909 2.901 7.9 7.9 0 0 1-4.011 1.055 7.9 7.9 0 0 1-3.967-1.055 7.67 7.67 0 0 1-2.909-2.9L6.999 12.028c-1.543-2.681-1.543-5.319 0-8s3.835-4.044 6.92-4.044Zm0 0" transform="matrix(.08862 0 0 .08887 395.274 76.423)"/><use xlink:href="#A" x="400.87" y="80.111" fill="#333"/><g clip-path="url(#Z)"><g clip-path="url(#aa)"><path fill="none" stroke="#1A1A1A" stroke-width="4" d="m70.033.005 69.994 120.001H-.006Zm0 0" transform="matrix(.08862 0 0 .08887 421.848 97.75)"/></g></g><use xlink:href="#M" x="427.446" y="106.414" fill="#1A1A1A"/><g clip-path="url(#ab)"><g clip-path="url(#ac)"><path fill="none" stroke="#1A1A1A" stroke-width="4" d="m70.013.005 70.038 120.001H.019Zm0 0" transform="matrix(.08862 0 0 .08887 437.803 97.75)"/></g></g><g fill="#1A1A1A"><use xlink:href="#m" x="443.059" y="106.414"/><use xlink:href="#ad" x="443.743" y="106.414"/></g><g clip-path="url(#ae)"><g clip-path="url(#af)"><path fill="none" stroke="#1A1A1A" stroke-width="4" d="m70.037.005 69.994 120.001H0Zm0 0" transform="matrix(.08862 0 0 .08887 453.758 97.75)"/></g></g><use xlink:href="#ag" x="459.355" y="106.414" fill="#1A1A1A"/><g clip-path="url(#ah)"><g clip-path="url(#ai)"><path fill="none" stroke="#1A1A1A" stroke-width="4" d="m70.018.005 70.038 120.001H-.021Zm0 0" transform="matrix(.08862 0 0 .08887 469.713 97.75)"/></g></g><g fill="#1A1A1A"><use xlink:href="#m" x="474.968" y="106.414"/><use xlink:href="#aj" x="475.652" y="106.414"/></g><path fill="none" stroke="#1A1A1A" stroke-linecap="round" stroke-linejoin="round" stroke-width="2" d="M69.988-.015h56.066c3.085 0 5.421 1.363 6.964 4.044s1.499 5.319-.044 8l-56.066 96.133A7.67 7.67 0 0 1 74 111.063a7.9 7.9 0 0 1-4.01 1.055 7.9 7.9 0 0 1-3.968-1.055c-1.234-.703-2.204-1.67-2.953-2.9L7.002 12.028c-1.542-2.681-1.542-5.319 0-8s3.835-4.044 6.92-4.044Zm0 0" transform="matrix(.08862 0 0 .08887 434.258 76.423)"/><use xlink:href="#M" x="439.854" y="80.111" fill="#333"/><path fill="none" stroke="#1A1A1A" stroke-linecap="round" stroke-linejoin="round" stroke-width="2" d="M69.993-.015h56.066c3.085 0 5.422 1.363 6.964 4.044s1.499 5.319-.044 8l-56.066 96.133a7.67 7.67 0 0 1-2.909 2.901 8.04 8.04 0 0 1-4.01 1.055 7.9 7.9 0 0 1-3.968-1.055c-1.234-.703-2.203-1.67-2.953-2.9L7.007 12.028c-1.542-2.681-1.542-5.319 0-8s3.835-4.044 6.92-4.044Zm0 0" transform="matrix(.08862 0 0 .08887 466.168 76.423)"/><use xlink:href="#ag" x="471.764" y="80.111" fill="#333"/><g clip-path="url(#ak)"><g clip-path="url(#al)"><path fill="none" stroke="#1A1A1A" stroke-width="4" d="m70.038.009 69.994 120.001H0Zm0 0" transform="matrix(.08862 0 0 .08887 170.16 55.097)"/></g></g><g fill="#1A1A1A"><use xlink:href="#m" x="175.416" y="63.761"/><use xlink:href="#t" x="176.1" y="63.761"/></g><g clip-path="url(#am)"><g clip-path="url(#an)"><path fill="none" stroke="#1A1A1A" stroke-width="4" d="m70.006.009 70.038 120.001H.012Zm0 0" transform="matrix(.08862 0 0 .08887 241.061 55.097)"/></g></g><use xlink:href="#G" x="246.659" y="63.761" fill="#1A1A1A"/><g clip-path="url(#ao)"><g clip-path="url(#ap)"><path fill="none" stroke="#1A1A1A" stroke-width="4" d="m70.037.009 69.994 120.001H0Zm0 0" transform="matrix(.08862 0 0 .08887 308.418 55.097)"/></g></g><g fill="#1A1A1A"><use xlink:href="#m" x="313.674" y="63.761"/><use xlink:href="#x" x="314.358" y="63.761"/></g><g clip-path="url(#aq)"><g clip-path="url(#ar)"><path fill="none" stroke="#1A1A1A" stroke-width="4" d="m70.024.009 69.994 120.001H-.014Zm0 0" transform="matrix(.08862 0 0 .08887 375.775 55.097)"/></g></g><use xlink:href="#A" x="381.372" y="63.761" fill="#1A1A1A"/><g clip-path="url(#as)"><g clip-path="url(#at)"><path fill="none" stroke="#1A1A1A" stroke-width="4" d="m70.032.009 69.994 120.001H-.006Zm0 0" transform="matrix(.08862 0 0 .08887 446.669 55.097)"/></g></g><use xlink:href="#M" x="452.266" y="63.761" fill="#1A1A1A"/><path fill="none" stroke="#1A1A1A" stroke-linecap="round" stroke-linejoin="round" stroke-width="2" d="M70.006-.01h56.065c3.086 0 5.422 1.362 6.92 4.043 1.543 2.638 1.543 5.319 0 8l-56.065 96.133c-.75 1.231-1.72 2.198-2.953 2.901a7.9 7.9 0 0 1-3.967 1.055 8.04 8.04 0 0 1-4.011-1.055 7.67 7.67 0 0 1-2.91-2.9L7.02 12.032c-1.543-2.681-1.587-5.362-.044-8C8.518 1.352 10.854-.01 13.94-.01Zm0 0" transform="matrix(.08862 0 0 .08887 253.472 33.77)"/><use xlink:href="#A" x="259.067" y="37.458" fill="#333"/><path fill="none" stroke="#1A1A1A" stroke-linecap="round" stroke-linejoin="round" stroke-width="2" d="M69.988-.01h56.065c3.086 0 5.422 1.362 6.964 4.043 1.543 2.638 1.5 5.319-.044 8l-56.065 96.133a7.67 7.67 0 0 1-2.91 2.901 7.9 7.9 0 0 1-4.01 1.055 7.9 7.9 0 0 1-3.967-1.055 7.67 7.67 0 0 1-2.91-2.9L7.002 12.032c-1.542-2.681-1.542-5.362 0-8C8.545 1.352 10.837-.01 13.922-.01Zm0 0" transform="matrix(.08862 0 0 .08887 459.079 33.77)"/><use xlink:href="#M" x="464.675" y="37.458" fill="#333"/><path fill="none" stroke="#333" stroke-width="2" d="M.016 120V68c0-5.319 2.644-8 7.978-8h124.032c5.333 0 7.978-2.682 7.978-8V10.197" transform="matrix(.08862 0 0 .08887 452.874 44.434)"/><path fill="#333" d="m464.613 45.566.668-1.132.672 1.132Zm0 0"/><path fill="none" stroke="#333" stroke-width="2" d="M1380.036 120V68c0-5.319-2.689-8-8.022-8H8.012C2.678 60-.01 57.318-.01 52V10.197" transform="matrix(.08862 0 0 .08887 259.677 44.434)"/><path fill="#333" d="m259.008 45.566.668-1.132.668 1.132Zm0 0"/><path fill="none" stroke="#333" stroke-width="2" d="M620.019 120V68c0-5.319-2.645-8-7.978-8H8.01C2.679 60-.01 57.318-.01 52V10.197" transform="matrix(.08862 0 0 .08887 259.677 44.434)"/><path fill="#333" d="m259.008 45.566.668-1.132.668 1.132Zm0 0"/><path fill="none" stroke="#333" stroke-width="2" d="M-.01 120V68c0-5.319 2.688-8 8.022-8H132c5.333 0 8.022-2.682 8.022-8V10.197" transform="matrix(.08862 0 0 .08887 247.267 44.434)"/><path fill="#333" d="m259.008 45.566.668-1.132.668 1.132Zm0 0"/><path fill="none" stroke="#333" stroke-width="2" d="M220.048 120.02v-52c0-5.363-2.645-8-7.978-8H7.994c-5.334 0-7.978-2.682-7.978-8V10.173" transform="matrix(.08862 0 0 .08887 452.874 65.76)"/><path fill="#333" d="m452.203 66.89.672-1.128.668 1.129Zm0 0"/><path fill="none" stroke="#333" stroke-width="2" d="M.016 120.02v-52c0-5.363 2.645-8 7.978-8h124.032c5.334 0 7.978-2.682 7.978-8V10.173" transform="matrix(.08862 0 0 .08887 440.463 65.76)"/><path fill="#333" d="m452.203 66.89.668-1.128.672 1.129Zm0 0"/><path fill="none" stroke="#333" stroke-width="2" d="M220.04 120.02v-52c0-5.363-2.645-8-7.978-8H7.986c-5.333 0-7.978-2.682-7.978-8V10.173" transform="matrix(.08862 0 0 .08887 381.98 65.76)"/><path fill="#333" d="m381.313 66.89.667-1.128.668 1.129Zm0 0"/><path fill="none" stroke="#333" stroke-width="2" d="M.008 120.02v-52c0-5.363 2.645-8 7.978-8h124.032c5.334 0 8.022-2.682 8.022-8V10.173" transform="matrix(.08862 0 0 .08887 369.57 65.76)"/><path fill="#333" d="m381.309 66.89.671-1.128.668 1.129Zm0 0"/><path fill="none" stroke="#333" stroke-width="2" d="M220.053 120.02v-52c0-5.363-2.645-8-7.978-8H7.999c-5.333 0-7.978-2.682-7.978-8V10.173" transform="matrix(.08862 0 0 .08887 314.623 65.76)"/><path fill="#333" d="m313.953 66.89.672-1.128.668 1.129Zm0 0"/><path fill="none" stroke="#333" stroke-width="2" d="M.021 120.02v-52c0-5.363 2.645-8 7.978-8H132.03c5.333 0 7.978-2.682 7.978-8V10.173" transform="matrix(.08862 0 0 .08887 302.213 65.76)"/><path fill="#333" d="m313.953 66.89.668-1.128.668 1.129Zm0 0"/><path fill="none" stroke="#333" stroke-width="2" d="M220.065 120.02v-52c0-5.363-2.688-8-8.022-8H8.012c-5.334 0-8.022-2.682-8.022-8V10.173" transform="matrix(.08862 0 0 .08887 247.267 65.76)"/><path fill="#333" d="m246.598 66.89.668-1.128.668 1.129Zm0 0"/><path fill="none" stroke="#333" stroke-width="2" d="M-.01 120.02v-52c0-5.363 2.688-8 8.022-8H132c5.333 0 8.022-2.682 8.022-8V10.173" transform="matrix(.08862 0 0 .08887 234.856 65.76)"/><path fill="#333" d="m246.598 66.89.668-1.128.668 1.129Zm0 0"/><path fill="none" stroke="#333" stroke-width="2" d="M220.054 120.02v-52c0-5.363-2.645-8-7.978-8H8c-5.333 0-8.022-2.682-8.022-8V10.173" transform="matrix(.08862 0 0 .08887 176.365 65.76)"/><path fill="#333" d="m175.695 66.89.668-1.128.672 1.129Zm0 0"/><path fill="none" stroke="#333" stroke-width="2" d="M-.022 120.02v-52c0-5.363 2.689-8 8.022-8h124.032c5.334 0 7.978-2.682 7.978-8V10.173" transform="matrix(.08862 0 0 .08887 163.955 65.76)"/><path fill="#333" d="m175.695 66.89.668-1.128.668 1.129Zm0 0"/><path fill="none" stroke="#333" stroke-width="2" d="M39.998 119.996v-52c0-5.319-2.644-8-7.977-8H7.999c-5.334 0-7.978-2.682-7.978-8V10.193" transform="matrix(.08862 0 0 .08887 472.373 87.086)"/><path fill="#333" d="m471.703 88.219.672-1.133.668 1.133Zm0 0"/><path fill="none" stroke="#333" stroke-width="2" d="M.021 119.996v-52c0-5.319 2.645-8 7.978-8H132.03c5.334 0 7.978-2.682 7.978-8V10.193" transform="matrix(.08862 0 0 .08887 459.963 87.086)"/><path fill="#333" d="m471.703 88.219.668-1.133.668 1.133Zm0 0"/><path fill="none" stroke="#333" stroke-width="2" d="M40.038 119.996v-52c0-5.319-2.689-8-8.022-8H7.994c-5.333 0-7.978-2.682-7.978-8V10.193" transform="matrix(.08862 0 0 .08887 440.463 87.086)"/><path fill="#333" d="m439.793 88.219.672-1.133.668 1.133Zm0 0"/><path fill="none" stroke="#333" stroke-width="2" d="M.016 119.996v-52c0-5.319 2.645-8 7.978-8h124.032c5.334 0 7.978-2.682 7.978-8V10.193" transform="matrix(.08862 0 0 .08887 428.053 87.086)"/><path fill="#333" d="m439.793 88.219.668-1.133.672 1.133Zm0 0"/><path fill="none" stroke="#333" stroke-width="2" d="M39.682 119.996v-52c0-5.319-2.644-8-7.977-8H7.99c-5.333 0-7.978-2.682-7.978-8V10.193" transform="matrix(.08862 0 0 .08887 401.48 87.086)"/><path fill="#333" d="m400.813 88.219.667-1.133.668 1.133Zm0 0"/><path fill="none" stroke="#333" stroke-width="2" d="M-.001 119.996v-52c0-5.319 2.688-8 8.022-8h124.34c5.334 0 7.978-2.682 7.978-8V10.193" transform="matrix(.08862 0 0 .08887 389.04 87.086)"/><path fill="#333" d="m400.809 88.219.668-1.133.668 1.133Zm0 0"/><path fill="none" stroke="#333" stroke-width="2" d="M39.721 119.996v-52c0-5.319-2.688-8-8.022-8H7.986c-5.333 0-7.978-2.682-7.978-8V10.193" transform="matrix(.08862 0 0 .08887 369.57 87.086)"/><path fill="#333" d="m368.902 88.219.668-1.133.668 1.133Zm0 0"/><path fill="none" stroke="#333" stroke-width="2" d="M.008 119.996v-52c0-5.319 2.645-8 7.978-8h124.032c5.333 0 8.022-2.682 8.022-8V10.193" transform="matrix(.08862 0 0 .08887 357.16 87.086)"/><path fill="#333" d="m368.898 88.219.672-1.133.668 1.133Zm0 0"/><path fill="none" stroke="#333" stroke-width="2" d="M39.871 119.996v-52c0-5.319-2.688-8-8.022-8H8.004c-5.333 0-8.022-2.682-8.022-8V10.193" transform="matrix(.08862 0 0 .08887 334.123 87.086)"/><path fill="#333" d="m333.453 88.219.668-1.133.672 1.133Zm0 0"/><path fill="none" stroke="#333" stroke-width="2" d="M-.022 119.996v-52c0-5.319 2.689-8 8.022-8h124.165c5.333 0 8.022-2.682 8.022-8V10.193" transform="matrix(.08862 0 0 .08887 321.705 87.086)"/><path fill="#333" d="m333.46 88.219.669-1.133.668 1.133Zm0 0"/><path fill="none" stroke="#333" stroke-width="2" d="M39.866 119.996v-52c0-5.319-2.688-8-8.022-8H8c-5.333 0-7.978-2.682-7.978-8V10.193" transform="matrix(.08862 0 0 .08887 302.213 87.086)"/><path fill="#333" d="m301.543 88.219.672-1.133.668 1.133Zm0 0"/><path fill="none" stroke="#333" stroke-width="2" d="M.021 119.996v-52c0-5.319 2.645-8 7.978-8H132.03c5.333 0 7.978-2.682 7.978-8V10.193" transform="matrix(.08862 0 0 .08887 289.803 87.086)"/><path fill="#333" d="m301.543 88.219.668-1.133.668 1.133Zm0 0"/><path fill="none" stroke="#333" stroke-width="2" d="M40.017 119.996v-52c0-5.319-2.645-8-7.978-8H8.017c-5.333 0-8.022-2.682-8.022-8V10.193" transform="matrix(.08862 0 0 .08887 266.766 87.086)"/><path fill="#333" d="m266.098 88.219.668-1.133.668 1.133Zm0 0"/><path fill="none" stroke="#333" stroke-width="2" d="M-.005 119.996v-52c0-5.319 2.689-8 8.022-8h123.988c5.333 0 8.022-2.682 8.022-8V10.193" transform="matrix(.08862 0 0 .08887 254.356 87.086)"/><path fill="#333" d="m266.098 88.219.668-1.133.668 1.133Zm0 0"/><path fill="none" stroke="#333" stroke-width="2" d="M40.011 119.996v-52c0-5.319-2.644-8-7.977-8H8.012c-5.334 0-8.022-2.682-8.022-8V10.193" transform="matrix(.08862 0 0 .08887 234.856 87.086)"/><path fill="#333" d="m234.188 88.219.667-1.133.668 1.133Zm0 0"/><path fill="none" stroke="#333" stroke-width="2" d="M-.01 119.996v-52c0-5.319 2.689-8 8.022-8H132c5.334 0 8.022-2.682 8.022-8V10.193" transform="matrix(.08862 0 0 .08887 222.446 87.086)"/><path fill="#333" d="m234.188 88.219.667-1.133.668 1.133Zm0 0"/><path fill="none" stroke="#333" stroke-width="2" d="M39.7 119.996v-52c0-5.319-2.689-8-8.022-8H8.008c-5.332 0-8.021-2.682-8.021-8V10.193" transform="matrix(.08862 0 0 .08887 195.872 87.086)"/><path fill="#333" d="m195.203 88.219.668-1.133.668 1.133Zm0 0"/><path fill="none" stroke="#333" stroke-width="2" d="M.016 119.996v-52c0-5.319 2.645-8 7.978-8h124.341c5.333 0 8.022-2.682 8.022-8V10.193" transform="matrix(.08862 0 0 .08887 183.432 87.086)"/><path fill="#333" d="m195.2 88.219.671-1.133.668 1.133Zm0 0"/><path fill="none" stroke="#333" stroke-width="2" d="M39.691 119.996v-52c0-5.319-2.644-8-7.978-8H8c-5.333 0-8.022-2.682-8.022-8V10.193" transform="matrix(.08862 0 0 .08887 163.955 87.086)"/><path fill="#333" d="m163.285 88.219.668-1.133.672 1.133Zm0 0"/><path fill="none" stroke="#333" stroke-width="2" d="M-.022 119.996v-52c0-5.319 2.689-8 8.022-8h124.033c5.333 0 7.978-2.682 7.978-8V10.193" transform="matrix(.08862 0 0 .08887 151.545 87.086)"/><path fill="#333" d="m163.285 88.219.668-1.133.668 1.133Zm0 0"/><path fill="none" stroke="#333" stroke-width="2" d="M39.845 119.996v-52c0-5.319-2.644-8-7.978-8H8.022c-5.334 0-8.022-2.682-8.022-8V10.193" transform="matrix(.08862 0 0 .08887 128.516 87.086)"/><path fill="#333" d="m127.848 88.219.668-1.133.668 1.133Zm0 0"/><g clip-path="url(#au)"><g clip-path="url(#av)"><path fill="none" stroke="#1A1A1A" stroke-width="4" d="m70.002.013 70.038 120.002H.008Zm0 0" transform="matrix(.08862 0 0 .08887 265.874 12.444)"/></g></g><use xlink:href="#M" x="271.472" y="21.109" fill="#1A1A1A"/><path fill="none" stroke="#333" stroke-width="2" d="M2179.987 119.98v-52c0-5.319-2.689-8-8.022-8H8.012c-5.334 0-8.022-2.637-8.022-8V10.177" transform="matrix(.08862 0 0 .08887 272.087 23.107)"/><path fill="#333" d="m271.418 24.238.668-1.133.668 1.133Zm0 0"/><path fill="none" stroke="#333" stroke-width="2" d="M-.01 119.98v-52c0-5.319 2.688-8 8.022-8H132c5.333 0 8.022-2.637 8.022-8V10.177" transform="matrix(.08862 0 0 .08887 259.677 23.107)"/><path fill="#333" d="m271.418 24.238.668-1.133.668 1.133Zm0 0"/><g clip-path="url(#aw)"><g clip-path="url(#ax)"><path fill="none" stroke="#1A1A1A" stroke-width="4" d="m70.024.005 69.994 120.001H-.014Zm0 0" transform="matrix(.08862 0 0 .08887 10.634 97.75)"/></g></g><g fill="#1A1A1A"><use xlink:href="#i" x="15.624" y="106.414"/><use xlink:href="#j" x="16.839" y="106.414"/></g><g clip-path="url(#ay)"><g clip-path="url(#az)"><path fill="none" stroke="#1A1A1A" stroke-width="4" d="m70.004.005 70.039 120.001H.01Zm0 0" transform="matrix(.08862 0 0 .08887 26.589 97.75)"/></g></g><g fill="#1A1A1A"><use xlink:href="#m" x="31.845" y="106.414"/><use xlink:href="#u" x="32.529" y="106.414"/></g><g clip-path="url(#aA)"><g clip-path="url(#aB)"><path fill="none" stroke="#1A1A1A" stroke-width="4" d="m70.029.005 69.994 120.001H-.009Zm0 0" transform="matrix(.08862 0 0 .08887 42.544 97.75)"/></g></g><use xlink:href="#A" x="48.141" y="106.414" fill="#1A1A1A"/><g clip-path="url(#aC)"><g clip-path="url(#aD)"><path fill="none" stroke="#1A1A1A" stroke-width="4" d="m70.01.005 70.038 120.001H.015Zm0 0" transform="matrix(.08862 0 0 .08887 58.499 97.75)"/></g></g><g fill="#1A1A1A"><use xlink:href="#m" x="63.754" y="106.414"/><use xlink:href="#q" x="64.438" y="106.414"/></g><g clip-path="url(#aE)"><g clip-path="url(#aF)"><path fill="none" stroke="#1A1A1A" stroke-width="4" d="m70.011.005 70.038 120.001H.017Zm0 0" transform="matrix(.08862 0 0 .08887 77.99 97.75)"/></g></g><g fill="#1A1A1A"><use xlink:href="#m" x="83.246" y="106.414"/><use xlink:href="#q" x="83.93" y="106.414"/></g><g clip-path="url(#aG)"><g clip-path="url(#aH)"><path fill="none" stroke="#1A1A1A" stroke-width="4" d="m70.028.005 69.994 120.001H-.01Zm0 0" transform="matrix(.08862 0 0 .08887 93.93 97.75)"/></g></g><g fill="#1A1A1A"><use xlink:href="#m" x="99.186" y="106.414"/><use xlink:href="#ad" x="99.87" y="106.414"/></g><g clip-path="url(#aI)"><g clip-path="url(#aJ)"><path fill="none" stroke="#1A1A1A" stroke-width="4" d="m70.009.005 70.038 120.001H.015Zm0 0" transform="matrix(.08862 0 0 .08887 109.885 97.75)"/></g></g><g fill="#1A1A1A"><use xlink:href="#m" x="115.141" y="106.414"/><use xlink:href="#u" x="115.825" y="106.414"/></g><path fill="none" stroke="#1A1A1A" stroke-linecap="round" stroke-linejoin="round" stroke-width="2" d="M69.98-.015h56.11c3.085 0 5.377 1.363 6.92 4.044 1.542 2.681 1.542 5.319-.044 8L76.9 108.162a7.67 7.67 0 0 1-2.91 2.901 7.9 7.9 0 0 1-4.01 1.055 7.9 7.9 0 0 1-3.967-1.055 7.67 7.67 0 0 1-2.91-2.9L7.039 12.028c-1.587-2.681-1.587-5.319-.044-8s3.835-4.044 6.92-4.044Zm0 0" transform="matrix(.08862 0 0 .08887 23.044 76.423)"/><g fill="#333"><use xlink:href="#i" x="28.032" y="80.111"/><use xlink:href="#j" x="29.248" y="80.111"/></g><path fill="none" stroke="#1A1A1A" stroke-linecap="round" stroke-linejoin="round" stroke-width="2" d="M69.985-.015h56.066c3.129 0 5.421 1.363 6.964 4.044 1.542 2.681 1.542 5.319-.044 8l-56.066 96.133a7.67 7.67 0 0 1-2.91 2.901 7.9 7.9 0 0 1-4.01 1.055 7.9 7.9 0 0 1-3.967-1.055 7.67 7.67 0 0 1-2.91-2.9L6.999 12.028c-1.542-2.681-1.542-5.319 0-8C8.543 1.348 10.835-.015 13.92-.015Zm0 0" transform="matrix(.08862 0 0 .08887 54.954 76.423)"/><use xlink:href="#A" x="60.55" y="80.111" fill="#333"/><path fill="none" stroke="#1A1A1A" stroke-linecap="round" stroke-linejoin="round" stroke-width="2" d="M70.01-.015h56.067c3.085 0 5.377 1.363 6.92 4.044 1.542 2.681 1.542 5.319 0 8L76.93 108.162c-.75 1.23-1.719 2.198-2.953 2.901a7.9 7.9 0 0 1-3.967 1.055A7.9 7.9 0 0 1 66 111.063a7.67 7.67 0 0 1-2.91-2.9L7.026 12.028c-1.543-2.681-1.587-5.319-.044-8S10.86-.015 13.945-.015Zm0 0" transform="matrix(.08862 0 0 .08887 90.4 76.423)"/><g fill="#333"><use xlink:href="#m" x="95.655" y="80.111"/><use xlink:href="#ad" x="96.339" y="80.111"/></g><g clip-path="url(#aK)"><g clip-path="url(#aL)"><path fill="none" stroke="#1A1A1A" stroke-width="4" d="m70.02.009 70.038 120.001H-.018Zm0 0" transform="matrix(.08862 0 0 .08887 35.447 55.097)"/></g></g><use xlink:href="#A" x="41.045" y="63.761" fill="#1A1A1A"/><g clip-path="url(#aM)"><g clip-path="url(#aN)"><path fill="none" stroke="#1A1A1A" stroke-width="4" d="m70.007.009 70.038 120.001H.013Zm0 0" transform="matrix(.08862 0 0 .08887 102.804 55.097)"/></g></g><g fill="#1A1A1A"><use xlink:href="#m" x="108.059" y="63.761"/><use xlink:href="#u" x="108.743" y="63.761"/></g><path fill="none" stroke="#1A1A1A" stroke-linecap="round" stroke-linejoin="round" stroke-width="2" d="M70.02-.01h56.066c3.085 0 5.377 1.362 6.92 4.043 1.543 2.638 1.543 5.319-.044 8l-56.066 96.133a7.67 7.67 0 0 1-2.91 2.901 7.9 7.9 0 0 1-3.966 1.055 7.9 7.9 0 0 1-4.011-1.055 7.67 7.67 0 0 1-2.909-2.9L7.034 12.032c-1.587-2.681-1.587-5.362-.044-8C8.533 1.352 10.825-.01 13.91-.01Zm0 0" transform="matrix(.08862 0 0 .08887 47.857 33.77)"/><use xlink:href="#A" x="53.453" y="37.458" fill="#333"/><path fill="none" stroke="#333" stroke-width="2" d="M1380.006 120V68c0-5.319-2.644-8-7.978-8H7.982C2.649 60 .004 57.318.004 52V10.197" transform="matrix(.08862 0 0 .08887 54.062 44.434)"/><path fill="#333" d="m53.395 45.566.667-1.132.668 1.132Zm0 0"/><path fill="none" stroke="#333" stroke-width="2" d="M.004 119.98v-52c0-5.319 2.645-8 7.978-8h2444.062c5.333 0 8.022-2.637 8.022-8V10.177" transform="matrix(.08862 0 0 .08887 54.062 23.107)"/><path fill="#333" d="m271.414 24.238.668-1.133.668 1.133Zm0 0"/><path fill="none" stroke="#333" stroke-width="2" d="M620.033 120V68c0-5.319-2.689-8-8.022-8H7.981C2.65 60 .005 57.318.005 52V10.197" transform="matrix(.08862 0 0 .08887 54.062 44.434)"/><path fill="#333" d="m53.395 45.566.667-1.132.668 1.132Zm0 0"/><path fill="none" stroke="#333" stroke-width="2" d="M.004 120V68c0-5.319 2.645-8 7.978-8h124.032c5.333 0 8.022-2.682 8.022-8V10.197" transform="matrix(.08862 0 0 .08887 41.652 44.434)"/><path fill="#333" d="m53.39 45.566.672-1.132.668 1.132Zm0 0"/><path fill="none" stroke="#333" stroke-width="2" d="M220.067 120.02v-52c0-5.363-2.689-8-8.022-8H8.013c-5.333 0-8.022-2.682-8.022-8V10.173" transform="matrix(.08862 0 0 .08887 109.009 65.76)"/><path fill="#333" d="m108.34 66.89.668-1.128.668 1.129Zm0 0"/><path fill="none" stroke="#333" stroke-width="2" d="M-.005 120.02v-52c0-5.363 2.688-8 8.022-8h123.988c5.333 0 8.022-2.682 8.022-8V10.173" transform="matrix(.08862 0 0 .08887 96.606 65.76)"/><path fill="#333" d="m108.348 66.89.668-1.128.668 1.129Zm0 0"/><path fill="none" stroke="#333" stroke-width="2" d="M220.08 120.02v-52c0-5.363-2.689-8-8.022-8H7.982c-5.333 0-7.978-2.682-7.978-8V10.173" transform="matrix(.08862 0 0 .08887 41.652 65.76)"/><path fill="#333" d="m40.984 66.89.668-1.128.668 1.129Zm0 0"/><path fill="none" stroke="#333" stroke-width="2" d="M.008 120.02v-52c0-5.363 2.644-8 7.978-8h124.032c5.333 0 8.022-2.682 8.022-8V10.173" transform="matrix(.08862 0 0 .08887 29.25 65.76)"/><path fill="#333" d="m40.988 66.89.672-1.128.668 1.129Zm0 0"/><path fill="none" stroke="#333" stroke-width="2" d="M39.84 119.996v-52c0-5.319-2.644-8-7.978-8H8.017c-5.334 0-8.022-2.682-8.022-8V10.193" transform="matrix(.08862 0 0 .08887 96.606 87.086)"/><path fill="#333" d="m95.938 88.219.667-1.133.668 1.133Zm0 0"/><path fill="none" stroke="#333" stroke-width="2" d="M-.005 119.996v-52c0-5.319 2.689-8 8.022-8h123.988c5.333 0 8.022-2.682 8.022-8V10.193" transform="matrix(.08862 0 0 .08887 84.196 87.086)"/><path fill="#333" d="m95.938 88.219.667-1.133.668 1.133Zm0 0"/><path fill="none" stroke="#333" stroke-width="2" d="M40.035 119.996v-52c0-5.319-2.69-8-8.022-8H7.99c-5.334 0-7.978-2.682-7.978-8V10.193" transform="matrix(.08862 0 0 .08887 61.159 87.086)"/><path fill="#333" d="m60.492 88.219.668-1.133.668 1.133Zm0 0"/><path fill="none" stroke="#333" stroke-width="2" d="M.013 119.996v-52c0-5.319 2.644-8 7.978-8h124.032c5.333 0 7.978-2.682 7.978-8V10.193" transform="matrix(.08862 0 0 .08887 48.749 87.086)"/><path fill="#333" d="m60.488 88.219.668-1.133.672 1.133Zm0 0"/><path fill="none" stroke="#333" stroke-width="2" d="M40.03 119.996v-52c0-5.319-2.69-8-8.022-8H7.986c-5.334 0-7.978-2.682-7.978-8V10.193" transform="matrix(.08862 0 0 .08887 29.25 87.086)"/><path fill="#333" d="m28.582 88.219.668-1.133.668 1.133Zm0 0"/><path fill="none" stroke="#333" stroke-width="2" d="M.008 119.996v-52c0-5.319 2.644-8 7.978-8h124.032c5.333 0 8.022-2.682 8.022-8V10.193" transform="matrix(.08862 0 0 .08887 16.84 87.086)"/><path fill="#333" d="m28.578 88.219.672-1.133.668 1.133Zm0 0"/><path fill="none" stroke="#333" stroke-width="2" d="M-.007 119.996v-52c0-5.319 2.688-8 8.022-8h124.164c5.333 0 8.022-2.682 8.022-8V10.193" transform="matrix(.08862 0 0 .08887 116.09 87.086)"/><path fill="#333" d="m127.844 88.219.672-1.133.668 1.133Zm0 0"/><g clip-path="url(#aO)"><g clip-path="url(#aP)"><path fill="none" stroke="#1A1A1A" stroke-width="4" d="m70.02.005 70.038 120.001H-.02Zm0 0" transform="matrix(.08862 0 0 .08887 489.205 97.75)"/></g></g><g fill="#1A1A1A"><use xlink:href="#m" x="494.46" y="106.414"/><use xlink:href="#t" x="495.145" y="106.414"/></g><g clip-path="url(#aQ)"><g clip-path="url(#aR)"><path fill="none" stroke="#1A1A1A" stroke-width="4" d="m70.037.005 69.994 120.001H-.001Zm0 0" transform="matrix(.08862 0 0 .08887 505.145 97.75)"/></g></g><use xlink:href="#J" x="510.742" y="106.414" fill="#1A1A1A"/><g clip-path="url(#aS)"><g clip-path="url(#aT)"><path fill="none" stroke="#1A1A1A" stroke-width="4" d="m70.017.005 70.038 120.001H-.02Zm0 0" transform="matrix(.08862 0 0 .08887 521.1 97.75)"/></g></g><g fill="#1A1A1A"><use xlink:href="#m" x="526.355" y="106.414"/><use xlink:href="#ad" x="527.039" y="106.414"/></g><g clip-path="url(#aU)"><g clip-path="url(#aV)"><path fill="none" stroke="#1A1A1A" stroke-width="4" d="m70 .005 70.039 120.001H.007Zm0 0" transform="matrix(.08862 0 0 .08887 537.062 97.75)"/></g></g><use xlink:href="#aW" x="542.659" y="106.414" fill="#1A1A1A"/><g clip-path="url(#aX)"><g clip-path="url(#aY)"><path fill="none" stroke="#1A1A1A" stroke-width="4" d="m70.036.005 69.994 120.001H-.002Zm0 0" transform="matrix(.08862 0 0 .08887 556.531 97.75)"/></g></g><use xlink:href="#j" x="562.129" y="106.414" fill="#1A1A1A"/><g clip-path="url(#aZ)"><g clip-path="url(#ba)"><path fill="none" stroke="#1A1A1A" stroke-width="4" d="m70.017.005 70.038 120.001H-.021Zm0 0" transform="matrix(.08862 0 0 .08887 572.486 97.75)"/></g></g><use xlink:href="#i" x="578.084" y="106.414" fill="#1A1A1A"/><g clip-path="url(#bb)"><g clip-path="url(#bc)"><path fill="none" stroke="#1A1A1A" stroke-width="4" d="m70.04.005 69.995 120.001H.002Zm0 0" transform="matrix(.08862 0 0 .08887 588.441 97.75)"/></g></g><use xlink:href="#aW" x="594.039" y="106.414" fill="#1A1A1A"/><g clip-path="url(#bd)"><g clip-path="url(#be)"><path fill="none" stroke="#1A1A1A" stroke-width="4" d="m70.021.005 70.038 120.001H-.017Zm0 0" transform="matrix(.08862 0 0 .08887 604.396 97.75)"/></g></g><g fill="#1A1A1A"><use xlink:href="#m" x="609.652" y="106.414"/><use xlink:href="#q" x="610.336" y="106.414"/></g><path fill="none" stroke="#1A1A1A" stroke-linecap="round" stroke-linejoin="round" stroke-width="2" d="M70.02-.015h56.065c3.086 0 5.378 1.363 6.92 4.044 1.543 2.681 1.543 5.319-.044 8l-56.065 96.133a7.67 7.67 0 0 1-2.91 2.901 7.9 7.9 0 0 1-3.966 1.055 7.9 7.9 0 0 1-4.011-1.055 7.67 7.67 0 0 1-2.91-2.9L7.034 12.028c-1.587-2.681-1.587-5.319-.044-8s3.834-4.044 6.92-4.044Zm0 0" transform="matrix(.08862 0 0 .08887 501.615 76.423)"/><use xlink:href="#J" x="507.211" y="80.111" fill="#333"/><path fill="none" stroke="#1A1A1A" stroke-linecap="round" stroke-linejoin="round" stroke-width="2" d="M69.98-.015h56.11c3.086 0 5.378 1.363 6.92 4.044 1.543 2.681 1.543 5.319-.044 8L76.9 108.162a7.67 7.67 0 0 1-2.909 2.901 7.9 7.9 0 0 1-4.01 1.055 7.9 7.9 0 0 1-3.968-1.055 7.67 7.67 0 0 1-2.909-2.9L7.04 12.028c-1.587-2.681-1.587-5.319-.045-8s3.835-4.044 6.92-4.044Zm0 0" transform="matrix(.08862 0 0 .08887 533.525 76.423)"/><use xlink:href="#aW" x="539.121" y="80.111" fill="#333"/><path fill="none" stroke="#1A1A1A" stroke-linecap="round" stroke-linejoin="round" stroke-width="2" d="M70.007-.015h56.066c3.085 0 5.377 1.363 6.92 4.044 1.542 2.681 1.542 5.319 0 8l-56.066 96.133c-.75 1.23-1.72 2.198-2.953 2.901a7.9 7.9 0 0 1-3.967 1.055 8.04 8.04 0 0 1-4.011-1.055 7.67 7.67 0 0 1-2.91-2.9L7.022 12.028c-1.543-2.681-1.587-5.319-.044-8S10.856-.015 13.94-.015Zm0 0" transform="matrix(.08862 0 0 .08887 568.972 76.423)"/><use xlink:href="#i" x="574.567" y="80.111" fill="#333"/><path fill="none" stroke="#1A1A1A" stroke-linecap="round" stroke-linejoin="round" stroke-width="2" d="M70.011-.015h56.066c3.086 0 5.378 1.363 6.92 4.044 1.543 2.681 1.543 5.319 0 8l-56.066 96.133c-.749 1.23-1.719 2.198-2.953 2.901a7.9 7.9 0 0 1-3.967 1.055 7.9 7.9 0 0 1-4.01-1.055 7.67 7.67 0 0 1-2.91-2.9L7.026 12.028c-1.543-2.681-1.587-5.319-.045-8s3.88-4.044 6.965-4.044Zm0 0" transform="matrix(.08862 0 0 .08887 600.881 76.423)"/><use xlink:href="#aW" x="606.477" y="80.111" fill="#333"/><g clip-path="url(#bf)"><g clip-path="url(#bg)"><path fill="none" stroke="#1A1A1A" stroke-width="4" d="m70.02.009 70.038 120.001H-.018Zm0 0" transform="matrix(.08862 0 0 .08887 514.025 55.097)"/></g></g><use xlink:href="#J" x="519.623" y="63.761" fill="#1A1A1A"/><g clip-path="url(#bh)"><g clip-path="url(#bi)"><path fill="none" stroke="#1A1A1A" stroke-width="4" d="M70.003.009 140.04 120.01H.008Zm0 0" transform="matrix(.08862 0 0 .08887 581.374 55.097)"/></g></g><use xlink:href="#i" x="586.972" y="63.761" fill="#1A1A1A"/><path fill="none" stroke="#333" stroke-width="2" d="M1380.018 120V68c0-5.319-2.644-8-7.978-8H7.994C2.66 60 .016 57.318.016 52V10.197" transform="matrix(.08862 0 0 .08887 465.284 44.434)"/><path fill="#333" d="m464.613 45.566.672-1.132.668 1.132Zm0 0"/><path fill="none" stroke="#333" stroke-width="2" d="M220.066 120.02v-52c0-5.363-2.69-8-8.022-8H8.012c-5.333 0-8.022-2.682-8.022-8V10.173" transform="matrix(.08862 0 0 .08887 587.587 65.76)"/><path fill="#333" d="m586.918 66.89.668-1.128.668 1.129Zm0 0"/><path fill="none" stroke="#333" stroke-width="2" d="M-.01 120.02v-52c0-5.363 2.689-8 8.022-8H132c5.333 0 8.022-2.682 8.022-8V10.173" transform="matrix(.08862 0 0 .08887 575.177 65.76)"/><path fill="#333" d="m586.918 66.89.668-1.128.668 1.129Zm0 0"/><path fill="none" stroke="#333" stroke-width="2" d="M620 120V68c0-5.319-2.644-8-7.977-8H7.993C2.66 60 .017 57.318.017 52V10.197" transform="matrix(.08862 0 0 .08887 465.284 44.434)"/><path fill="#333" d="m464.613 45.566.672-1.132.668 1.132Zm0 0"/><path fill="none" stroke="#333" stroke-width="2" d="M220.079 120.02v-52c0-5.363-2.69-8-8.022-8H7.98c-5.334 0-7.978-2.682-7.978-8V10.173" transform="matrix(.08862 0 0 .08887 520.23 65.76)"/><path fill="#333" d="m519.563 66.89.667-1.128.668 1.129Zm0 0"/><path fill="none" stroke="#333" stroke-width="2" d="M.003 120.02v-52c0-5.363 2.644-8 7.978-8h124.032c5.333 0 8.022-2.682 8.022-8V10.173" transform="matrix(.08862 0 0 .08887 507.82 65.76)"/><path fill="#333" d="m519.559 66.89.671-1.128.668 1.129Zm0 0"/><path fill="none" stroke="#333" stroke-width="2" d="M39.709 119.996v-52c0-5.319-2.69-8-8.022-8H8.017c-5.333 0-8.022-2.682-8.022-8V10.193" transform="matrix(.08862 0 0 .08887 607.086 87.086)"/><path fill="#333" d="m606.418 88.219.668-1.133.668 1.133Zm0 0"/><path fill="none" stroke="#333" stroke-width="2" d="M-.019 119.996v-52c0-5.319 2.689-8 8.022-8h124.341c5.333 0 7.978-2.682 7.978-8V10.193" transform="matrix(.08862 0 0 .08887 594.646 87.086)"/><path fill="#333" d="m606.414 88.219.668-1.133.672 1.133Zm0 0"/><path fill="none" stroke="#333" stroke-width="2" d="M39.703 119.996v-52c0-5.319-2.689-8-8.022-8H8.011c-5.332 0-8.021-2.682-8.021-8V10.193" transform="matrix(.08862 0 0 .08887 575.177 87.086)"/><path fill="#333" d="m574.508 88.219.668-1.133.668 1.133Zm0 0"/><path fill="none" stroke="#333" stroke-width="2" d="M.02 119.996v-52c0-5.319 2.644-8 7.978-8h124.34c5.334 0 8.023-2.682 8.023-8V10.193" transform="matrix(.08862 0 0 .08887 562.737 87.086)"/><path fill="#333" d="m574.504 88.219.672-1.133.668 1.133Zm0 0"/><path fill="none" stroke="#333" stroke-width="2" d="M39.854 119.996v-52c0-5.319-2.645-8-7.978-8H7.986c-5.333 0-7.978-2.682-7.978-8V10.193" transform="matrix(.08862 0 0 .08887 539.73 87.086)"/><path fill="#333" d="m539.063 88.219.667-1.133.668 1.133Zm0 0"/><path fill="none" stroke="#333" stroke-width="2" d="M.005 119.996v-52c0-5.319 2.644-8 7.978-8H132.19c5.333 0 7.978-2.682 7.978-8V10.193" transform="matrix(.08862 0 0 .08887 527.312 87.086)"/><path fill="#333" d="m539.066 88.219.668-1.133.668 1.133Zm0 0"/><path fill="none" stroke="#333" stroke-width="2" d="M39.848 119.996v-52c0-5.319-2.644-8-7.978-8H7.98c-5.333 0-7.977-2.682-7.977-8V10.193" transform="matrix(.08862 0 0 .08887 507.82 87.086)"/><path fill="#333" d="m507.152 88.219.668-1.133.668 1.133Zm0 0"/><path fill="none" stroke="#333" stroke-width="2" d="M.003 119.996v-52c0-5.319 2.645-8 7.978-8h124.032c5.333 0 8.022-2.682 8.022-8V10.193" transform="matrix(.08862 0 0 .08887 495.41 87.086)"/><path fill="#333" d="m507.148 88.219.672-1.133.668 1.133Zm0 0"/></svg>