<svg xmlns="http://www.w3.org/2000/svg" xmlns:xlink="http://www.w3.org/1999/xlink" width="135.12" height="392.88"><defs><clipPath id="a"><path d="M0 0h135v392.32H0Zm0 0"/></clipPath><clipPath id="b"><path d="M0 0h135v391.574H0Zm0 0"/></clipPath><clipPath id="c"><path d="M50.875 17.215h8.02v8.035h-8.02Zm0 0"/></clipPath><clipPath id="f"><path d="M50.875 33.281h8.02v8.032h-8.02Zm0 0"/></clipPath><clipPath id="g"><path d="M58.895 33.281h8.015v8.032h-8.015Zm0 0"/></clipPath><clipPath id="h"><path d="M50.875 49.352h8.02v8.035h-8.02Zm0 0"/></clipPath><clipPath id="i"><path d="M58.895 49.352h8.015v8.035h-8.015Zm0 0"/></clipPath><clipPath id="j"><path d="M66.918 49.352h8.02v8.035h-8.02Zm0 0"/></clipPath><clipPath id="m"><path d="M50.875 65.418h8.02v8.035h-8.02Zm0 0"/></clipPath><clipPath id="n"><path d="M58.895 65.418h8.015v8.035h-8.015Zm0 0"/></clipPath><clipPath id="o"><path d="M74.938 65.418h8.015v8.035h-8.016Zm0 0"/></clipPath><clipPath id="p"><path d="M66.918 65.418h8.02v8.035h-8.02Zm0 0"/></clipPath><clipPath id="r"><path d="M50.875 81.492h8.02v8.035h-8.02Zm0 0"/></clipPath><clipPath id="s"><path d="M58.895 81.492h8.015v8.035h-8.015Zm0 0"/></clipPath><clipPath id="t"><path d="M74.938 81.492h8.015v8.035h-8.016Zm0 0"/></clipPath><clipPath id="u"><path d="M66.918 81.492h8.02v8.035h-8.02Zm0 0"/></clipPath><clipPath id="v"><path d="M82.953 81.492h8.02v8.035h-8.02Zm0 0"/></clipPath><clipPath id="x"><path d="M50.875 97.559h8.02v8.035h-8.02Zm0 0"/></clipPath><clipPath id="y"><path d="M58.895 113.625h8.015v8.031h-8.015Zm0 0"/></clipPath><clipPath id="z"><path d="M74.938 113.625h8.015v8.031h-8.016Zm0 0"/></clipPath><clipPath id="A"><path d="M66.918 113.625h8.02v8.031h-8.02Zm0 0"/></clipPath><clipPath id="B"><path d="M42.86 113.625h8.015v8.031h-8.016Zm0 0"/></clipPath><clipPath id="C"><path d="M34.84 113.625h8.02v8.031h-8.02Zm0 0"/></clipPath><clipPath id="D"><path d="M50.875 129.695h8.02v8.035h-8.02Zm0 0"/></clipPath><clipPath id="E"><path d="M58.895 145.762h8.015v8.035h-8.015Zm0 0"/></clipPath><clipPath id="F"><path d="M74.938 145.762h8.015v8.035h-8.016Zm0 0"/></clipPath><clipPath id="G"><path d="M66.918 145.762h8.02v8.035h-8.02Zm0 0"/></clipPath><clipPath id="H"><path d="M42.86 145.762h8.015v8.035h-8.016Zm0 0"/></clipPath><clipPath id="I"><path d="M34.84 145.762h8.02v8.035h-8.02Zm0 0"/></clipPath><clipPath id="J"><path d="M82.953 145.762h8.02v8.035h-8.02Zm0 0"/></clipPath><clipPath id="L"><path d="M50.875 161.828h8.02v8.035h-8.02Zm0 0"/></clipPath><clipPath id="M"><path d="M58.895 177.902h8.015v8.036h-8.015Zm0 0"/></clipPath><clipPath id="N"><path d="M74.938 177.902h8.015v8.036h-8.016Zm0 0"/></clipPath><clipPath id="O"><path d="M66.918 177.902h8.02v8.036h-8.02Zm0 0"/></clipPath><clipPath id="P"><path d="M42.86 177.902h8.015v8.036h-8.016Zm0 0"/></clipPath><clipPath id="Q"><path d="M34.84 177.902h8.02v8.036h-8.02Zm0 0"/></clipPath><clipPath id="R"><path d="M82.953 177.902h8.02v8.036h-8.02Zm0 0"/></clipPath><clipPath id="S"><path d="M26.82 177.902h8.02v8.036h-8.02Zm0 0"/></clipPath><clipPath id="T"><path d="M50.875 193.969h8.02V202h-8.02Zm0 0"/></clipPath><clipPath id="U"><path d="M58.895 210.031h8.015v8.035h-8.015Zm0 0"/></clipPath><clipPath id="V"><path d="M74.938 210.031h8.015v8.035h-8.016Zm0 0"/></clipPath><clipPath id="W"><path d="M66.918 210.031h8.02v8.035h-8.02Zm0 0"/></clipPath><clipPath id="X"><path d="M42.86 210.031h8.015v8.035h-8.016Zm0 0"/></clipPath><clipPath id="Y"><path d="M34.84 210.031h8.02v8.035h-8.02Zm0 0"/></clipPath><clipPath id="Z"><path d="M82.953 210.031h8.02v8.035h-8.02Zm0 0"/></clipPath><clipPath id="ab"><path d="M26.82 210.031h8.02v8.035h-8.02Zm0 0"/></clipPath><clipPath id="ac"><path d="M90.973 210.031h8.015v8.035h-8.015Zm0 0"/></clipPath><clipPath id="ad"><path d="M50.875 226.105h8.02v8.036h-8.02Zm0 0"/></clipPath><clipPath id="ae"><path d="M58.895 242.172h8.015v8.035h-8.015Zm0 0"/></clipPath><clipPath id="af"><path d="M82.953 242.172h8.02v8.035h-8.02Zm0 0"/></clipPath><clipPath id="ag"><path d="M66.918 242.172h8.02v8.035h-8.02Zm0 0"/></clipPath><clipPath id="ah"><path d="M42.86 242.172h8.015v8.035h-8.016Zm0 0"/></clipPath><clipPath id="ai"><path d="M34.84 242.172h8.02v8.035h-8.02Zm0 0"/></clipPath><clipPath id="aj"><path d="M90.973 242.172h8.015v8.035h-8.015Zm0 0"/></clipPath><clipPath id="ak"><path d="M26.82 242.172h8.02v8.035h-8.02Zm0 0"/></clipPath><clipPath id="al"><path d="M98.988 242.172h8.02v8.035h-8.02Zm0 0"/></clipPath><clipPath id="am"><path d="M58.895 226.105h8.015v8.036h-8.015Zm0 0"/></clipPath><clipPath id="an"><path d="M50.875 258.246h8.02v8.035h-8.02Zm0 0"/></clipPath><clipPath id="ao"><path d="M58.895 274.313h8.015v8.03h-8.015Zm0 0"/></clipPath><clipPath id="ap"><path d="M90.973 274.313h8.015v8.03h-8.015Zm0 0"/></clipPath><clipPath id="aq"><path d="M66.918 274.313h8.02v8.03h-8.02Zm0 0"/></clipPath><clipPath id="ar"><path d="M42.86 274.313h8.015v8.03h-8.016Zm0 0"/></clipPath><clipPath id="as"><path d="M34.84 274.313h8.02v8.03h-8.02Zm0 0"/></clipPath><clipPath id="at"><path d="M98.988 274.313h8.02v8.03h-8.02Zm0 0"/></clipPath><clipPath id="au"><path d="M26.82 274.313h8.02v8.03h-8.02Zm0 0"/></clipPath><clipPath id="av"><path d="M107.008 274.313h8.015v8.03h-8.015Zm0 0"/></clipPath><clipPath id="aw"><path d="M58.895 258.246h8.015v8.035h-8.015Zm0 0"/></clipPath><clipPath id="ax"><path d="M74.938 274.313h8.015v8.03h-8.016Zm0 0"/></clipPath><clipPath id="ay"><path d="M50.875 290.375h8.02v8.035h-8.02Zm0 0"/></clipPath><clipPath id="az"><path d="M58.895 306.45h8.015v8.034h-8.015Zm0 0"/></clipPath><clipPath id="aA"><path d="M90.973 306.45h8.015v8.034h-8.015Zm0 0"/></clipPath><clipPath id="aB"><path d="M66.918 306.45h8.02v8.034h-8.02Zm0 0"/></clipPath><clipPath id="aC"><path d="M34.84 306.45h8.02v8.034h-8.02Zm0 0"/></clipPath><clipPath id="aD"><path d="M26.82 306.45h8.02v8.034h-8.02Zm0 0"/></clipPath><clipPath id="aE"><path d="M98.988 306.45h8.02v8.034h-8.02Zm0 0"/></clipPath><clipPath id="aF"><path d="M18.797 306.45h8.02v8.034h-8.02Zm0 0"/></clipPath><clipPath id="aG"><path d="M107.008 306.45h8.015v8.034h-8.015Zm0 0"/></clipPath><clipPath id="aH"><path d="M58.895 290.375h8.015v8.035h-8.015Zm0 0"/></clipPath><clipPath id="aI"><path d="M74.938 306.45h8.015v8.034h-8.016Zm0 0"/></clipPath><clipPath id="aJ"><path d="M50.875 306.45h8.02v8.034h-8.02Zm0 0"/></clipPath><clipPath id="aK"><path d="M50.875 322.516h8.02v8.035h-8.02Zm0 0"/></clipPath><clipPath id="aL"><path d="M66.918 338.582h8.02v8.035h-8.02Zm0 0"/></clipPath><clipPath id="aM"><path d="M98.988 338.582h8.02v8.035h-8.02Zm0 0"/></clipPath><clipPath id="aN"><path d="M74.938 338.582h8.015v8.035h-8.016Zm0 0"/></clipPath><clipPath id="aO"><path d="M34.84 338.582h8.02v8.035h-8.02Zm0 0"/></clipPath><clipPath id="aP"><path d="M26.82 338.582h8.02v8.035h-8.02Zm0 0"/></clipPath><clipPath id="aQ"><path d="M107.008 338.582h8.015v8.035h-8.015Zm0 0"/></clipPath><clipPath id="aR"><path d="M18.797 338.582h8.02v8.035h-8.02Zm0 0"/></clipPath><clipPath id="aS"><path d="M115.031 338.582h8.02v8.035h-8.02Zm0 0"/></clipPath><clipPath id="aT"><path d="M58.895 322.516h8.015v8.035h-8.015Zm0 0"/></clipPath><clipPath id="aU"><path d="M82.953 338.582h8.02v8.035h-8.02Zm0 0"/></clipPath><clipPath id="aV"><path d="M58.895 338.582h8.015v8.035h-8.015Zm0 0"/></clipPath><clipPath id="aW"><path d="M50.875 338.582h8.02v8.035h-8.02Zm0 0"/></clipPath><clipPath id="aX"><path d="M50.875 354.656h8.02v8.031h-8.02Zm0 0"/></clipPath><clipPath id="aY"><path d="M66.918 370.719h8.02v8.035h-8.02Zm0 0"/></clipPath><clipPath id="aZ"><path d="M98.988 370.719h8.02v8.035h-8.02Zm0 0"/></clipPath><clipPath id="ba"><path d="M74.938 370.719h8.015v8.035h-8.016Zm0 0"/></clipPath><clipPath id="bb"><path d="M34.84 370.719h8.02v8.035h-8.02Zm0 0"/></clipPath><clipPath id="bc"><path d="M26.82 370.719h8.02v8.035h-8.02Zm0 0"/></clipPath><clipPath id="bd"><path d="M107.008 370.719h8.015v8.035h-8.015Zm0 0"/></clipPath><clipPath id="be"><path d="M18.797 370.719h8.02v8.035h-8.02Zm0 0"/></clipPath><clipPath id="bf"><path d="M115.031 370.719h8.02v8.035h-8.02Zm0 0"/></clipPath><clipPath id="bg"><path d="M58.895 354.656h8.015v8.031h-8.015Zm0 0"/></clipPath><clipPath id="bh"><path d="M82.953 370.719h8.02v8.035h-8.02Zm0 0"/></clipPath><clipPath id="bi"><path d="M58.895 370.719h8.015v8.035h-8.015Zm0 0"/></clipPath><clipPath id="bj"><path d="M50.875 370.719h8.02v8.035h-8.02Zm0 0"/></clipPath><clipPath id="bk"><path d="M10.781 370.719h8.016v8.035H10.78Zm0 0"/></clipPath><path id="d" d="M.797-.875a.3.3 0 0 1-.063.188.3.3 0 0 1-.187.078v.015q.14.018.203.094.077.066.078.172a.31.31 0 0 1-.125.266.52.52 0 0 1-.312.078C.328.016.27.008.219 0a.4.4 0 0 1-.14-.047v-.125q.074.034.155.063.076.016.157.015c.195 0 .297-.078.297-.234q0-.201-.329-.203H.25v-.125h.11a.43.43 0 0 0 .218-.047.2.2 0 0 0 .078-.172A.16.16 0 0 0 .594-1c-.031-.031-.086-.047-.156-.047a.7.7 0 0 0-.141.016.6.6 0 0 0-.156.078l-.063-.094a.7.7 0 0 1 .156-.094.7.7 0 0 1 .204-.03q.17 0 .265.077a.27.27 0 0 1 .094.219m0 0"/><path id="e" d="M.563 0H.438v-1.016a.14.14 0 0 0-.032.047 3 3 0 0 1-.187.14L.14-.905l.312-.25h.11Zm0 0"/><path id="k" d="M.438-.703q.187 0 .28.094.108.095.11.25-.001.175-.125.28a.44.44 0 0 1-.297.095Q.203.016.11-.047v-.125c.032.024.07.043.125.063a1 1 0 0 0 .172.015q.14 0 .203-.062a.26.26 0 0 0 .079-.188c0-.164-.094-.25-.282-.25a1 1 0 0 0-.203.031L.125-.608l.047-.547H.75v.125H.281L.25-.688c.063-.007.125-.015.188-.015m0 0"/><path id="l" d="M.89-.266H.72V0H.594v-.266H.03v-.109l.547-.781h.14v.781h.173ZM.595-.375v-.64a.4.4 0 0 1-.078.124l-.344.516Zm0 0"/><path id="q" d="M.844-.578q0 .3-.094.453c-.062.094-.164.14-.297.14a.33.33 0 0 1-.281-.14Q.078-.279.078-.578c0-.195.031-.344.094-.438a.31.31 0 0 1 .281-.156c.125 0 .219.055.281.156.07.106.11.25.11.438m-.625 0q0 .252.047.375.058.11.187.11.14 0 .188-.11a.9.9 0 0 0 .062-.375.8.8 0 0 0-.062-.36c-.032-.07-.094-.109-.188-.109a.2.2 0 0 0-.187.11 1 1 0 0 0-.047.359m0 0"/><path id="w" d="M.828-.656q0 .673-.515.672A.6.6 0 0 1 .172 0v-.11q.059.017.14.016.189.001.282-.11.092-.123.11-.359H.687a.27.27 0 0 1-.125.094.3.3 0 0 1-.141.031.36.36 0 0 1-.25-.078Q.078-.607.078-.78q0-.17.094-.281c.07-.07.164-.11.281-.11.07 0 .133.024.188.063q.093.064.14.187a.7.7 0 0 1 .047.266m-.375-.39q-.129 0-.187.077a.3.3 0 0 0-.047.188q0 .11.047.187.059.064.172.063.076.002.125-.031.059-.03.093-.079A.2.2 0 0 0 .703-.75a.3.3 0 0 0-.031-.14A.24.24 0 0 0 .578-1a.2.2 0 0 0-.125-.047m0 0"/><path id="K" d="m.219 0 .484-1.031H.078v-.125h.766v.11L.375 0Zm0 0"/><path id="aa" d="M.453-1.172a.4.4 0 0 1 .25.078.26.26 0 0 1 .094.203.26.26 0 0 1-.063.157.5.5 0 0 1-.156.125q.14.065.203.14a.3.3 0 0 1 .063.172c0 .094-.04.172-.11.235Q.64.018.47.016a.48.48 0 0 1-.297-.078Q.078-.14.078-.297q-.001-.187.25-.297a.45.45 0 0 1-.156-.125.33.33 0 0 1-.047-.172.27.27 0 0 1 .078-.203.38.38 0 0 1 .25-.078m-.25.875q0 .096.063.156.075.048.187.047A.3.3 0 0 0 .641-.14a.22.22 0 0 0 .062-.156.16.16 0 0 0-.062-.125.8.8 0 0 0-.203-.125.5.5 0 0 0-.188.11.23.23 0 0 0-.047.14m.25-.766a.25.25 0 0 0-.156.047.17.17 0 0 0-.047.125q0 .083.047.141a.5.5 0 0 0 .172.094.5.5 0 0 0 .156-.094.22.22 0 0 0 .047-.14.16.16 0 0 0-.063-.126c-.03-.03-.086-.046-.156-.046m0 0"/></defs><g clip-path="url(#a)"><path fill="#FFF" d="M0 0h135v392.32H0Zm0 0"/></g><g clip-path="url(#b)"><path fill="#F2F2F2" d="M0 0h135v391.574H0Zm0 0"/><path fill="#FFF" d="M0 0h135v391.574H0Zm0 0"/></g><g clip-path="url(#c)"><path fill="none" stroke="#1A1A1A" stroke-width="4" d="M-.003.007h120.008v120.014H-.003Zm0 0" transform="matrix(.06682 0 0 .06695 50.875 17.214)"/></g><g fill="#1A1A1A"><use xlink:href="#d" x="53.968" y="21.734"/><use xlink:href="#e" x="54.885" y="21.734"/></g><g clip-path="url(#f)"><path fill="none" stroke="#1A1A1A" stroke-width="4" d="M-.003.017h120.008v119.956H-.003Zm0 0" transform="matrix(.06682 0 0 .06695 50.875 33.28)"/></g><g fill="#1A1A1A"><use xlink:href="#d" x="53.968" y="37.799"/><use xlink:href="#e" x="54.885" y="37.799"/></g><g clip-path="url(#g)"><path fill="none" stroke="#1A1A1A" stroke-width="4" d="M.025.017h119.95v119.956H.025Zm0 0" transform="matrix(.06682 0 0 .06695 58.893 33.28)"/></g><g fill="#1A1A1A"><use xlink:href="#d" x="61.986" y="37.799"/><use xlink:href="#d" x="62.902" y="37.799"/></g><g clip-path="url(#h)"><path fill="none" stroke="#1A1A1A" stroke-width="4" d="M-.003-.026h120.008v120.014H-.003Zm0 0" transform="matrix(.06682 0 0 .06695 50.875 49.353)"/></g><g fill="#1A1A1A"><use xlink:href="#d" x="53.968" y="53.873"/><use xlink:href="#e" x="54.885" y="53.873"/></g><g clip-path="url(#i)"><path fill="none" stroke="#1A1A1A" stroke-width="4" d="M.025-.026h119.95v120.014H.025Zm0 0" transform="matrix(.06682 0 0 .06695 58.893 49.353)"/></g><g fill="#1A1A1A"><use xlink:href="#d" x="61.986" y="53.873"/><use xlink:href="#d" x="62.902" y="53.873"/></g><g clip-path="url(#j)"><path fill="none" stroke="#1A1A1A" stroke-width="4" d="M0-.026h120.008v120.014H.001Zm0 0" transform="matrix(.06682 0 0 .06695 66.918 49.353)"/></g><g fill="#1A1A1A"><use xlink:href="#k" x="70.011" y="53.873"/><use xlink:href="#l" x="70.927" y="53.873"/></g><g clip-path="url(#m)"><path fill="none" stroke="#1A1A1A" stroke-width="4" d="M-.003-.016h120.008v120.014H-.003Zm0 0" transform="matrix(.06682 0 0 .06695 50.875 65.42)"/></g><g fill="#1A1A1A"><use xlink:href="#d" x="53.968" y="69.938"/><use xlink:href="#e" x="54.885" y="69.938"/></g><g clip-path="url(#n)"><path fill="none" stroke="#1A1A1A" stroke-width="4" d="M.025-.016h119.95v120.014H.025Zm0 0" transform="matrix(.06682 0 0 .06695 58.893 65.42)"/></g><g fill="#1A1A1A"><use xlink:href="#d" x="61.986" y="69.938"/><use xlink:href="#d" x="62.902" y="69.938"/></g><g clip-path="url(#o)"><path fill="none" stroke="#1A1A1A" stroke-width="4" d="M.029-.016h119.95v120.014H.028Zm0 0" transform="matrix(.06682 0 0 .06695 74.936 65.42)"/></g><g fill="#1A1A1A"><use xlink:href="#k" x="78.028" y="69.938"/><use xlink:href="#l" x="78.945" y="69.938"/></g><g clip-path="url(#p)"><path fill="none" stroke="#1A1A1A" stroke-width="4" d="M0-.016h120.008v120.014H.001Zm0 0" transform="matrix(.06682 0 0 .06695 66.918 65.42)"/></g><g fill="#1A1A1A"><use xlink:href="#l" x="70.011" y="69.938"/><use xlink:href="#q" x="70.927" y="69.938"/></g><g clip-path="url(#r)"><path fill="none" stroke="#1A1A1A" stroke-width="4" d="M-.003-.001h120.008v120.014H-.003Zm0 0" transform="matrix(.06682 0 0 .06695 50.875 81.492)"/></g><g fill="#1A1A1A"><use xlink:href="#d" x="53.968" y="86.012"/><use xlink:href="#e" x="54.885" y="86.012"/></g><g clip-path="url(#s)"><path fill="none" stroke="#1A1A1A" stroke-width="4" d="M.025-.001h119.95v120.014H.025Zm0 0" transform="matrix(.06682 0 0 .06695 58.893 81.492)"/></g><g fill="#1A1A1A"><use xlink:href="#d" x="61.986" y="86.012"/><use xlink:href="#d" x="62.902" y="86.012"/></g><g clip-path="url(#t)"><path fill="none" stroke="#1A1A1A" stroke-width="4" d="M.029-.001h119.95v120.014H.028Zm0 0" transform="matrix(.06682 0 0 .06695 74.936 81.492)"/></g><g fill="#1A1A1A"><use xlink:href="#k" x="78.028" y="86.012"/><use xlink:href="#l" x="78.945" y="86.012"/></g><g clip-path="url(#u)"><path fill="none" stroke="#1A1A1A" stroke-width="4" d="M0-.001h120.008v120.014H.001Zm0 0" transform="matrix(.06682 0 0 .06695 66.918 81.492)"/></g><g fill="#1A1A1A"><use xlink:href="#l" x="70.011" y="86.012"/><use xlink:href="#q" x="70.927" y="86.012"/></g><g clip-path="url(#v)"><path fill="none" stroke="#1A1A1A" stroke-width="4" d="M-.002-.001h120.008v120.014H-.002Zm0 0" transform="matrix(.06682 0 0 .06695 82.953 81.492)"/></g><g fill="#1A1A1A"><use xlink:href="#k" x="86.046" y="86.012"/><use xlink:href="#w" x="86.963" y="86.012"/></g><g clip-path="url(#x)"><path fill="none" stroke="#1A1A1A" stroke-width="4" d="M-.003.009h120.008v120.014H-.003Zm0 0" transform="matrix(.06682 0 0 .06695 50.875 97.558)"/></g><g fill="#1A1A1A"><use xlink:href="#d" x="53.968" y="102.077"/><use xlink:href="#d" x="54.885" y="102.077"/></g><g clip-path="url(#y)"><path fill="none" stroke="#1A1A1A" stroke-width="4" d="M.025.019h119.95v119.955H.025Zm0 0" transform="matrix(.06682 0 0 .06695 58.893 113.624)"/></g><g fill="#1A1A1A"><use xlink:href="#l" x="61.986" y="118.143"/><use xlink:href="#q" x="62.902" y="118.143"/></g><g clip-path="url(#z)"><path fill="none" stroke="#1A1A1A" stroke-width="4" d="M.029.019h119.95v119.955H.028Zm0 0" transform="matrix(.06682 0 0 .06695 74.936 113.624)"/></g><g fill="#1A1A1A"><use xlink:href="#k" x="78.028" y="118.143"/><use xlink:href="#w" x="78.945" y="118.143"/></g><g clip-path="url(#A)"><path fill="none" stroke="#1A1A1A" stroke-width="4" d="M0 .019h120.008v119.955H.001Zm0 0" transform="matrix(.06682 0 0 .06695 66.918 113.624)"/></g><g fill="#1A1A1A"><use xlink:href="#k" x="70.011" y="118.143"/><use xlink:href="#l" x="70.927" y="118.143"/></g><g clip-path="url(#B)"><path fill="none" stroke="#1A1A1A" stroke-width="4" d="M.027.019h119.95v119.955H.027Zm0 0" transform="matrix(.06682 0 0 .06695 42.858 113.624)"/></g><g fill="#1A1A1A"><use xlink:href="#d" x="45.95" y="118.143"/><use xlink:href="#e" x="46.867" y="118.143"/></g><g clip-path="url(#C)"><path fill="none" stroke="#1A1A1A" stroke-width="4" d="M-.001.019h120.008v119.955H-.001Zm0 0" transform="matrix(.06682 0 0 .06695 34.84 113.624)"/></g><g fill="#1A1A1A"><use xlink:href="#d" x="37.933" y="118.143"/><use xlink:href="#q" x="38.849" y="118.143"/></g><path fill="none" stroke="#333" stroke-width="2" d="M59.99-.006H8.023C2.645-.006.015 2.678.015 7.987v161.847" transform="matrix(.06682 0 0 .06695 46.87 101.57)"/><path fill="#333" d="m47.375 112.77-.504.851-.504-.851Zm0 0"/><path fill="none" stroke="#333" stroke-width="2" d="M.025-.006h51.967C57.31-.006 60 2.678 60 7.987v161.847" transform="matrix(.06682 0 0 .06695 58.893 101.57)"/><path fill="#333" d="m63.406 112.77-.504.851-.504-.851Zm0 0"/><g clip-path="url(#D)"><path fill="none" stroke="#1A1A1A" stroke-width="4" d="M-.003-.024h120.008v120.013H-.003Zm0 0" transform="matrix(.06682 0 0 .06695 50.875 129.697)"/></g><g fill="#1A1A1A"><use xlink:href="#d" x="53.968" y="134.216"/><use xlink:href="#d" x="54.885" y="134.216"/></g><g clip-path="url(#E)"><path fill="none" stroke="#1A1A1A" stroke-width="4" d="M.025-.014h119.95v120.013H.025Zm0 0" transform="matrix(.06682 0 0 .06695 58.893 145.763)"/></g><g fill="#1A1A1A"><use xlink:href="#l" x="61.986" y="150.282"/><use xlink:href="#q" x="62.902" y="150.282"/></g><g clip-path="url(#F)"><path fill="none" stroke="#1A1A1A" stroke-width="4" d="M.029-.014h119.95v120.013H.028Zm0 0" transform="matrix(.06682 0 0 .06695 74.936 145.763)"/></g><g fill="#1A1A1A"><use xlink:href="#k" x="78.028" y="150.282"/><use xlink:href="#w" x="78.945" y="150.282"/></g><g clip-path="url(#G)"><path fill="none" stroke="#1A1A1A" stroke-width="4" d="M0-.014h120.008v120.013H.001Zm0 0" transform="matrix(.06682 0 0 .06695 66.918 145.763)"/></g><g fill="#1A1A1A"><use xlink:href="#k" x="70.011" y="150.282"/><use xlink:href="#l" x="70.927" y="150.282"/></g><g clip-path="url(#H)"><path fill="none" stroke="#1A1A1A" stroke-width="4" d="M.027-.014h119.95v120.013H.027Zm0 0" transform="matrix(.06682 0 0 .06695 42.858 145.763)"/></g><g fill="#1A1A1A"><use xlink:href="#d" x="45.95" y="150.282"/><use xlink:href="#e" x="46.867" y="150.282"/></g><g clip-path="url(#I)"><path fill="none" stroke="#1A1A1A" stroke-width="4" d="M-.001-.014h120.008v120.013H-.001Zm0 0" transform="matrix(.06682 0 0 .06695 34.84 145.763)"/></g><g fill="#1A1A1A"><use xlink:href="#d" x="37.933" y="150.282"/><use xlink:href="#q" x="38.849" y="150.282"/></g><path fill="none" stroke="#333" stroke-width="2" d="M59.99.02H8.023C2.645.02.015 2.644.015 8.011v161.789" transform="matrix(.06682 0 0 .06695 46.87 133.71)"/><path fill="#333" d="m47.375 144.91-.504.852-.504-.852Zm0 0"/><path fill="none" stroke="#333" stroke-width="2" d="M.025.02h51.967C57.31.02 60 2.644 60 8.011v161.789" transform="matrix(.06682 0 0 .06695 58.893 133.71)"/><path fill="#333" d="m63.406 144.91-.504.852-.504-.852Zm0 0"/><g clip-path="url(#J)"><path fill="none" stroke="#1A1A1A" stroke-width="4" d="M-.002-.014h120.008v120.013H-.002Zm0 0" transform="matrix(.06682 0 0 .06695 82.953 145.763)"/></g><g fill="#1A1A1A"><use xlink:href="#w" x="86.046" y="150.282"/><use xlink:href="#K" x="86.963" y="150.282"/></g><g clip-path="url(#L)"><path fill="none" stroke="#1A1A1A" stroke-width="4" d="M-.003-.005h120.008V120.01H-.003Zm0 0" transform="matrix(.06682 0 0 .06695 50.875 161.828)"/></g><g fill="#1A1A1A"><use xlink:href="#d" x="53.968" y="166.348"/><use xlink:href="#d" x="54.885" y="166.348"/></g><g clip-path="url(#M)"><path fill="none" stroke="#1A1A1A" stroke-width="4" d="M.025.01h119.95v120.014H.025Zm0 0" transform="matrix(.06682 0 0 .06695 58.893 177.902)"/></g><g fill="#1A1A1A"><use xlink:href="#l" x="61.986" y="182.421"/><use xlink:href="#q" x="62.902" y="182.421"/></g><g clip-path="url(#N)"><path fill="none" stroke="#1A1A1A" stroke-width="4" d="M.029.01h119.95v120.014H.028Zm0 0" transform="matrix(.06682 0 0 .06695 74.936 177.902)"/></g><g fill="#1A1A1A"><use xlink:href="#k" x="78.028" y="182.421"/><use xlink:href="#w" x="78.945" y="182.421"/></g><g clip-path="url(#O)"><path fill="none" stroke="#1A1A1A" stroke-width="4" d="M0 .01h120.008v120.014H.001Zm0 0" transform="matrix(.06682 0 0 .06695 66.918 177.902)"/></g><g fill="#1A1A1A"><use xlink:href="#k" x="70.011" y="182.421"/><use xlink:href="#l" x="70.927" y="182.421"/></g><g clip-path="url(#P)"><path fill="none" stroke="#1A1A1A" stroke-width="4" d="M.027.01h119.95v120.014H.027Zm0 0" transform="matrix(.06682 0 0 .06695 42.858 177.902)"/></g><g fill="#1A1A1A"><use xlink:href="#d" x="45.95" y="182.421"/><use xlink:href="#e" x="46.867" y="182.421"/></g><g clip-path="url(#Q)"><path fill="none" stroke="#1A1A1A" stroke-width="4" d="M-.001.01h120.008v120.014H-.001Zm0 0" transform="matrix(.06682 0 0 .06695 34.84 177.902)"/></g><g fill="#1A1A1A"><use xlink:href="#d" x="37.933" y="182.421"/><use xlink:href="#q" x="38.849" y="182.421"/></g><path fill="none" stroke="#333" stroke-width="2" d="M59.99-.014H8.023C2.645-.014.015 2.67.015 7.979v161.847" transform="matrix(.06682 0 0 .06695 46.87 165.849)"/><path fill="#333" d="m47.375 177.047-.504.851-.504-.851Zm0 0"/><path fill="none" stroke="#333" stroke-width="2" d="M.025-.014h51.967C57.31-.014 60 2.67 60 7.979v161.847" transform="matrix(.06682 0 0 .06695 58.893 165.849)"/><path fill="#333" d="m63.406 177.047-.504.851-.504-.851Zm0 0"/><g clip-path="url(#R)"><path fill="none" stroke="#1A1A1A" stroke-width="4" d="M-.002.01h120.008v120.014H-.002Zm0 0" transform="matrix(.06682 0 0 .06695 82.953 177.902)"/></g><g fill="#1A1A1A"><use xlink:href="#w" x="86.046" y="182.421"/><use xlink:href="#K" x="86.963" y="182.421"/></g><g clip-path="url(#S)"><path fill="none" stroke="#1A1A1A" stroke-width="4" d="M-.03.01H119.98v120.014H-.03Zm0 0" transform="matrix(.06682 0 0 .06695 26.822 177.902)"/></g><use xlink:href="#w" x="30.373" y="182.421" fill="#1A1A1A"/><g clip-path="url(#T)"><path fill="none" stroke="#1A1A1A" stroke-width="4" d="M-.003.02h120.008v119.956H-.003Zm0 0" transform="matrix(.06682 0 0 .06695 50.875 193.967)"/></g><g fill="#1A1A1A"><use xlink:href="#d" x="53.968" y="198.487"/><use xlink:href="#d" x="54.885" y="198.487"/></g><g clip-path="url(#U)"><path fill="none" stroke="#1A1A1A" stroke-width="4" d="M.025-.028h119.95v120.014H.025Zm0 0" transform="matrix(.06682 0 0 .06695 58.893 210.033)"/></g><g fill="#1A1A1A"><use xlink:href="#l" x="61.986" y="214.552"/><use xlink:href="#q" x="62.902" y="214.552"/></g><g clip-path="url(#V)"><path fill="none" stroke="#1A1A1A" stroke-width="4" d="M.029-.028h119.95v120.014H.028Zm0 0" transform="matrix(.06682 0 0 .06695 74.936 210.033)"/></g><g fill="#1A1A1A"><use xlink:href="#k" x="78.028" y="214.552"/><use xlink:href="#w" x="78.945" y="214.552"/></g><g clip-path="url(#W)"><path fill="none" stroke="#1A1A1A" stroke-width="4" d="M0-.028h120.008v120.014H.001Zm0 0" transform="matrix(.06682 0 0 .06695 66.918 210.033)"/></g><g fill="#1A1A1A"><use xlink:href="#k" x="70.011" y="214.552"/><use xlink:href="#l" x="70.927" y="214.552"/></g><g clip-path="url(#X)"><path fill="none" stroke="#1A1A1A" stroke-width="4" d="M.027-.028h119.95v120.014H.027Zm0 0" transform="matrix(.06682 0 0 .06695 42.858 210.033)"/></g><g fill="#1A1A1A"><use xlink:href="#d" x="45.95" y="214.552"/><use xlink:href="#e" x="46.867" y="214.552"/></g><g clip-path="url(#Y)"><path fill="none" stroke="#1A1A1A" stroke-width="4" d="M-.001-.028h120.008v120.014H-.001Zm0 0" transform="matrix(.06682 0 0 .06695 34.84 210.033)"/></g><g fill="#1A1A1A"><use xlink:href="#d" x="37.933" y="214.552"/><use xlink:href="#q" x="38.849" y="214.552"/></g><path fill="none" stroke="#333" stroke-width="2" d="M59.99.01H8.023C2.645.01.015 2.696.015 8.005v161.788" transform="matrix(.06682 0 0 .06695 46.87 197.988)"/><path fill="#333" d="m47.375 209.188-.504.851-.504-.851Zm0 0"/><path fill="none" stroke="#333" stroke-width="2" d="M.025.01h51.967C57.31.01 60 2.696 60 8.005v161.788" transform="matrix(.06682 0 0 .06695 58.893 197.988)"/><path fill="#333" d="m63.406 209.188-.504.851-.504-.851Zm0 0"/><g clip-path="url(#Z)"><path fill="none" stroke="#1A1A1A" stroke-width="4" d="M-.002-.028h120.008v120.014H-.002Zm0 0" transform="matrix(.06682 0 0 .06695 82.953 210.033)"/></g><g fill="#1A1A1A"><use xlink:href="#aa" x="86.046" y="214.552"/><use xlink:href="#w" x="86.963" y="214.552"/></g><g clip-path="url(#ab)"><path fill="none" stroke="#1A1A1A" stroke-width="4" d="M-.03-.028H119.98v120.014H-.03Zm0 0" transform="matrix(.06682 0 0 .06695 26.822 210.033)"/></g><use xlink:href="#w" x="30.373" y="214.552" fill="#1A1A1A"/><g clip-path="url(#ac)"><path fill="none" stroke="#1A1A1A" stroke-width="4" d="M.027-.028h119.95v120.014H.026Zm0 0" transform="matrix(.06682 0 0 .06695 90.97 210.033)"/></g><g fill="#1A1A1A"><use xlink:href="#w" x="94.064" y="214.552"/><use xlink:href="#K" x="94.98" y="214.552"/></g><g clip-path="url(#ad)"><path fill="none" stroke="#1A1A1A" stroke-width="4" d="M-.003-.013h120.008v120.014H-.003Zm0 0" transform="matrix(.06682 0 0 .06695 50.875 226.106)"/></g><g fill="#1A1A1A"><use xlink:href="#d" x="53.968" y="230.626"/><use xlink:href="#d" x="54.885" y="230.626"/></g><g clip-path="url(#ae)"><path fill="none" stroke="#1A1A1A" stroke-width="4" d="M.025-.003h119.95v120.014H.025Zm0 0" transform="matrix(.06682 0 0 .06695 58.893 242.172)"/></g><g fill="#1A1A1A"><use xlink:href="#l" x="61.986" y="246.691"/><use xlink:href="#q" x="62.902" y="246.691"/></g><g clip-path="url(#af)"><path fill="none" stroke="#1A1A1A" stroke-width="4" d="M-.002-.003h120.008v120.014H-.002Zm0 0" transform="matrix(.06682 0 0 .06695 82.953 242.172)"/></g><g fill="#1A1A1A"><use xlink:href="#aa" x="86.046" y="246.691"/><use xlink:href="#d" x="86.963" y="246.691"/></g><g clip-path="url(#ag)"><path fill="none" stroke="#1A1A1A" stroke-width="4" d="M0-.003h120.008v120.014H.001Zm0 0" transform="matrix(.06682 0 0 .06695 66.918 242.172)"/></g><g fill="#1A1A1A"><use xlink:href="#k" x="70.011" y="246.691"/><use xlink:href="#l" x="70.927" y="246.691"/></g><g clip-path="url(#ah)"><path fill="none" stroke="#1A1A1A" stroke-width="4" d="M.027-.003h119.95v120.014H.027Zm0 0" transform="matrix(.06682 0 0 .06695 42.858 242.172)"/></g><g fill="#1A1A1A"><use xlink:href="#d" x="45.95" y="246.691"/><use xlink:href="#e" x="46.867" y="246.691"/></g><g clip-path="url(#ai)"><path fill="none" stroke="#1A1A1A" stroke-width="4" d="M-.001-.003h120.008v120.014H-.001Zm0 0" transform="matrix(.06682 0 0 .06695 34.84 242.172)"/></g><g fill="#1A1A1A"><use xlink:href="#d" x="37.933" y="246.691"/><use xlink:href="#q" x="38.849" y="246.691"/></g><path fill="none" stroke="#333" stroke-width="2" d="M59.99-.028H8.023C2.645-.028.015 2.656.015 8.024v161.788" transform="matrix(.06682 0 0 .06695 46.87 230.119)"/><path fill="#333" d="m47.375 241.316-.504.856-.504-.856Zm0 0"/><g clip-path="url(#aj)"><path fill="none" stroke="#1A1A1A" stroke-width="4" d="M.027-.003h119.95v120.014H.026Zm0 0" transform="matrix(.06682 0 0 .06695 90.97 242.172)"/></g><g fill="#1A1A1A"><use xlink:href="#aa" x="94.064" y="246.691"/><use xlink:href="#w" x="94.98" y="246.691"/></g><g clip-path="url(#ak)"><path fill="none" stroke="#1A1A1A" stroke-width="4" d="M-.03-.003H119.98v120.014H-.03Zm0 0" transform="matrix(.06682 0 0 .06695 26.822 242.172)"/></g><use xlink:href="#w" x="30.373" y="246.691" fill="#1A1A1A"/><g clip-path="url(#al)"><path fill="none" stroke="#1A1A1A" stroke-width="4" d="M-.004-.003h120.008v120.014H-.004Zm0 0" transform="matrix(.06682 0 0 .06695 98.989 242.172)"/></g><g fill="#1A1A1A"><use xlink:href="#w" x="102.081" y="246.691"/><use xlink:href="#K" x="102.998" y="246.691"/></g><g clip-path="url(#am)"><path fill="none" stroke="#1A1A1A" stroke-width="4" d="M.025-.013h119.95v120.014H.025Zm0 0" transform="matrix(.06682 0 0 .06695 58.893 226.106)"/></g><g fill="#1A1A1A"><use xlink:href="#k" x="61.986" y="230.626"/><use xlink:href="#w" x="62.902" y="230.626"/></g><path fill="none" stroke="#333" stroke-width="2" d="M0-.028h291.983c5.378 0 8.008 2.684 8.008 8.052v161.788" transform="matrix(.06682 0 0 .06695 66.918 230.119)"/><path fill="#333" d="m87.469 241.316-.504.856-.504-.856Zm0 0"/><path fill="none" stroke="#333" stroke-width="2" d="M.013.02v109.805" transform="matrix(.06682 0 0 .06695 62.905 234.14)"/><path fill="#333" d="m63.41 241.32-.504.852-.504-.852Zm0 0"/><g clip-path="url(#an)"><path fill="none" stroke="#1A1A1A" stroke-width="4" d="M-.003.012h120.008v120.014H-.003Zm0 0" transform="matrix(.06682 0 0 .06695 50.875 258.245)"/></g><g fill="#1A1A1A"><use xlink:href="#d" x="53.968" y="262.765"/><use xlink:href="#d" x="54.885" y="262.765"/></g><g clip-path="url(#ao)"><path fill="none" stroke="#1A1A1A" stroke-width="4" d="M.025.022h119.95v119.956H.025Zm0 0" transform="matrix(.06682 0 0 .06695 58.893 274.311)"/></g><g fill="#1A1A1A"><use xlink:href="#l" x="61.986" y="278.83"/><use xlink:href="#q" x="62.902" y="278.83"/></g><g clip-path="url(#ap)"><path fill="none" stroke="#1A1A1A" stroke-width="4" d="M.027.022h119.95v119.956H.026Zm0 0" transform="matrix(.06682 0 0 .06695 90.97 274.311)"/></g><g fill="#1A1A1A"><use xlink:href="#aa" x="94.064" y="278.83"/><use xlink:href="#d" x="94.98" y="278.83"/></g><g clip-path="url(#aq)"><path fill="none" stroke="#1A1A1A" stroke-width="4" d="M0 .022h120.008v119.956H.001Zm0 0" transform="matrix(.06682 0 0 .06695 66.918 274.311)"/></g><g fill="#1A1A1A"><use xlink:href="#l" x="70.011" y="278.83"/><use xlink:href="#q" x="70.927" y="278.83"/></g><g clip-path="url(#ar)"><path fill="none" stroke="#1A1A1A" stroke-width="4" d="M.027.022h119.95v119.956H.027Zm0 0" transform="matrix(.06682 0 0 .06695 42.858 274.311)"/></g><g fill="#1A1A1A"><use xlink:href="#d" x="45.95" y="278.83"/><use xlink:href="#e" x="46.867" y="278.83"/></g><g clip-path="url(#as)"><path fill="none" stroke="#1A1A1A" stroke-width="4" d="M-.001.022h120.008v119.956H-.001Zm0 0" transform="matrix(.06682 0 0 .06695 34.84 274.311)"/></g><g fill="#1A1A1A"><use xlink:href="#d" x="37.933" y="278.83"/><use xlink:href="#q" x="38.849" y="278.83"/></g><path fill="none" stroke="#333" stroke-width="2" d="M59.99-.003H8.023C2.645-.003.015 2.681.015 7.99v161.847" transform="matrix(.06682 0 0 .06695 46.87 262.258)"/><path fill="#333" d="m47.375 273.457-.504.852-.504-.852Zm0 0"/><g clip-path="url(#at)"><path fill="none" stroke="#1A1A1A" stroke-width="4" d="M-.004.022h120.008v119.956H-.004Zm0 0" transform="matrix(.06682 0 0 .06695 98.989 274.311)"/></g><g fill="#1A1A1A"><use xlink:href="#aa" x="102.081" y="278.83"/><use xlink:href="#w" x="102.998" y="278.83"/></g><g clip-path="url(#au)"><path fill="none" stroke="#1A1A1A" stroke-width="4" d="M-.03.022H119.98v119.956H-.03Zm0 0" transform="matrix(.06682 0 0 .06695 26.822 274.311)"/></g><use xlink:href="#w" x="30.373" y="278.83" fill="#1A1A1A"/><g clip-path="url(#av)"><path fill="none" stroke="#1A1A1A" stroke-width="4" d="M.025.022h119.95v119.956H.024Zm0 0" transform="matrix(.06682 0 0 .06695 107.006 274.311)"/></g><g fill="#1A1A1A"><use xlink:href="#w" x="110.099" y="278.83"/><use xlink:href="#K" x="111.016" y="278.83"/></g><g clip-path="url(#aw)"><path fill="none" stroke="#1A1A1A" stroke-width="4" d="M.025.012h119.95v120.014H.025Zm0 0" transform="matrix(.06682 0 0 .06695 58.893 258.245)"/></g><g fill="#1A1A1A"><use xlink:href="#k" x="61.986" y="262.765"/><use xlink:href="#w" x="62.902" y="262.765"/></g><path fill="none" stroke="#333" stroke-width="2" d="M0-.003h411.99c5.32 0 8.01 2.684 8.01 7.993v161.847" transform="matrix(.06682 0 0 .06695 66.918 262.258)"/><path fill="#333" d="m95.488 273.457-.504.852-.504-.852Zm0 0"/><path fill="none" stroke="#333" stroke-width="2" d="M.013-.012V109.79" transform="matrix(.06682 0 0 .06695 62.905 266.278)"/><path fill="#333" d="m63.41 273.46-.504.853-.504-.852Zm0 0"/><g clip-path="url(#ax)"><path fill="none" stroke="#1A1A1A" stroke-width="4" d="M.029.022h119.95v119.956H.028Zm0 0" transform="matrix(.06682 0 0 .06695 74.936 274.311)"/></g><g fill="#1A1A1A"><use xlink:href="#k" x="78.028" y="278.83"/><use xlink:href="#l" x="78.945" y="278.83"/></g><g clip-path="url(#ay)"><path fill="none" stroke="#1A1A1A" stroke-width="4" d="M-.003-.027h120.008v120.014H-.003Zm0 0" transform="matrix(.06682 0 0 .06695 50.875 290.377)"/></g><g fill="#1A1A1A"><use xlink:href="#d" x="53.968" y="294.896"/><use xlink:href="#d" x="54.885" y="294.896"/></g><g clip-path="url(#az)"><path fill="none" stroke="#1A1A1A" stroke-width="4" d="M.025-.011h119.95v120.014H.025Zm0 0" transform="matrix(.06682 0 0 .06695 58.893 306.45)"/></g><g fill="#1A1A1A"><use xlink:href="#l" x="61.986" y="310.969"/><use xlink:href="#q" x="62.902" y="310.969"/></g><g clip-path="url(#aA)"><path fill="none" stroke="#1A1A1A" stroke-width="4" d="M.027-.011h119.95v120.014H.026Zm0 0" transform="matrix(.06682 0 0 .06695 90.97 306.45)"/></g><g fill="#1A1A1A"><use xlink:href="#aa" x="94.064" y="310.969"/><use xlink:href="#d" x="94.98" y="310.969"/></g><g clip-path="url(#aB)"><path fill="none" stroke="#1A1A1A" stroke-width="4" d="M0-.011h120.008v120.014H.001Zm0 0" transform="matrix(.06682 0 0 .06695 66.918 306.45)"/></g><g fill="#1A1A1A"><use xlink:href="#l" x="70.011" y="310.969"/><use xlink:href="#q" x="70.927" y="310.969"/></g><g clip-path="url(#aC)"><path fill="none" stroke="#1A1A1A" stroke-width="4" d="M-.001-.011h120.008v120.014H-.001Zm0 0" transform="matrix(.06682 0 0 .06695 34.84 306.45)"/></g><g fill="#1A1A1A"><use xlink:href="#d" x="37.933" y="310.969"/><use xlink:href="#e" x="38.849" y="310.969"/></g><g clip-path="url(#aD)"><path fill="none" stroke="#1A1A1A" stroke-width="4" d="M-.03-.011H119.98v120.014H-.03Zm0 0" transform="matrix(.06682 0 0 .06695 26.822 306.45)"/></g><g fill="#1A1A1A"><use xlink:href="#d" x="29.915" y="310.969"/><use xlink:href="#q" x="30.832" y="310.969"/></g><path fill="none" stroke="#333" stroke-width="2" d="M180.022.023H7.99C2.67.023-.02 2.648-.02 8.016v161.788" transform="matrix(.06682 0 0 .06695 38.845 294.397)"/><path fill="#333" d="m39.348 305.598-.504.851-.504-.851Zm0 0"/><g clip-path="url(#aE)"><path fill="none" stroke="#1A1A1A" stroke-width="4" d="M-.004-.011h120.008v120.014H-.004Zm0 0" transform="matrix(.06682 0 0 .06695 98.989 306.45)"/></g><g fill="#1A1A1A"><use xlink:href="#aa" x="102.081" y="310.969"/><use xlink:href="#w" x="102.998" y="310.969"/></g><g clip-path="url(#aF)"><path fill="none" stroke="#1A1A1A" stroke-width="4" d="M-.004-.011h120.008v120.014H-.004Zm0 0" transform="matrix(.06682 0 0 .06695 18.797 306.45)"/></g><use xlink:href="#w" x="22.348" y="310.969" fill="#1A1A1A"/><g clip-path="url(#aG)"><path fill="none" stroke="#1A1A1A" stroke-width="4" d="M.025-.011h119.95v120.014H.024Zm0 0" transform="matrix(.06682 0 0 .06695 107.006 306.45)"/></g><g fill="#1A1A1A"><use xlink:href="#w" x="110.099" y="310.969"/><use xlink:href="#K" x="111.016" y="310.969"/></g><g clip-path="url(#aH)"><path fill="none" stroke="#1A1A1A" stroke-width="4" d="M.025-.027h119.95v120.014H.025Zm0 0" transform="matrix(.06682 0 0 .06695 58.893 290.377)"/></g><g fill="#1A1A1A"><use xlink:href="#k" x="61.986" y="294.896"/><use xlink:href="#w" x="62.902" y="294.896"/></g><path fill="none" stroke="#333" stroke-width="2" d="M0 .023h411.99c5.32 0 8.01 2.625 8.01 7.993v161.788" transform="matrix(.06682 0 0 .06695 66.918 294.397)"/><path fill="#333" d="m95.488 305.598-.504.851-.504-.851Zm0 0"/><path fill="none" stroke="#333" stroke-width="2" d="M.013.008V109.81" transform="matrix(.06682 0 0 .06695 62.905 298.41)"/><path fill="#333" d="m63.41 305.59-.504.855-.504-.855Zm0 0"/><g clip-path="url(#aI)"><path fill="none" stroke="#1A1A1A" stroke-width="4" d="M.029-.011h119.95v120.014H.028Zm0 0" transform="matrix(.06682 0 0 .06695 74.936 306.45)"/></g><g fill="#1A1A1A"><use xlink:href="#k" x="78.028" y="310.969"/><use xlink:href="#l" x="78.945" y="310.969"/></g><g clip-path="url(#aJ)"><path fill="none" stroke="#1A1A1A" stroke-width="4" d="M-.003-.011h120.008v120.014H-.003Zm0 0" transform="matrix(.06682 0 0 .06695 50.875 306.45)"/></g><g fill="#1A1A1A"><use xlink:href="#l" x="53.968" y="310.969"/><use xlink:href="#q" x="54.885" y="310.969"/></g><g clip-path="url(#aK)"><path fill="none" stroke="#1A1A1A" stroke-width="4" d="M-.003-.001h120.008v120.013H-.003Zm0 0" transform="matrix(.06682 0 0 .06695 50.875 322.516)"/></g><g fill="#1A1A1A"><use xlink:href="#d" x="53.968" y="327.035"/><use xlink:href="#d" x="54.885" y="327.035"/></g><g clip-path="url(#aL)"><path fill="none" stroke="#1A1A1A" stroke-width="4" d="M0 .008h120.008v120.014H.001Zm0 0" transform="matrix(.06682 0 0 .06695 66.918 338.581)"/></g><g fill="#1A1A1A"><use xlink:href="#l" x="70.011" y="343.101"/><use xlink:href="#q" x="70.927" y="343.101"/></g><g clip-path="url(#aM)"><path fill="none" stroke="#1A1A1A" stroke-width="4" d="M-.004.008h120.008v120.014H-.004Zm0 0" transform="matrix(.06682 0 0 .06695 98.989 338.581)"/></g><g fill="#1A1A1A"><use xlink:href="#aa" x="102.081" y="343.101"/><use xlink:href="#d" x="102.998" y="343.101"/></g><g clip-path="url(#aN)"><path fill="none" stroke="#1A1A1A" stroke-width="4" d="M.029.008h119.95v120.014H.028Zm0 0" transform="matrix(.06682 0 0 .06695 74.936 338.581)"/></g><g fill="#1A1A1A"><use xlink:href="#l" x="78.028" y="343.101"/><use xlink:href="#q" x="78.945" y="343.101"/></g><g clip-path="url(#aO)"><path fill="none" stroke="#1A1A1A" stroke-width="4" d="M-.001.008h120.008v120.014H-.001Zm0 0" transform="matrix(.06682 0 0 .06695 34.84 338.581)"/></g><g fill="#1A1A1A"><use xlink:href="#d" x="37.933" y="343.101"/><use xlink:href="#e" x="38.849" y="343.101"/></g><g clip-path="url(#aP)"><path fill="none" stroke="#1A1A1A" stroke-width="4" d="M-.03.008H119.98v120.014H-.03Zm0 0" transform="matrix(.06682 0 0 .06695 26.822 338.581)"/></g><g fill="#1A1A1A"><use xlink:href="#d" x="29.915" y="343.101"/><use xlink:href="#q" x="30.832" y="343.101"/></g><path fill="none" stroke="#333" stroke-width="2" d="M180.022-.01H7.99C2.67-.01-.02 2.672-.02 7.982v161.846" transform="matrix(.06682 0 0 .06695 38.845 326.536)"/><path fill="#333" d="m39.348 337.734-.504.852-.504-.852Zm0 0"/><g clip-path="url(#aQ)"><path fill="none" stroke="#1A1A1A" stroke-width="4" d="M.025.008h119.95v120.014H.024Zm0 0" transform="matrix(.06682 0 0 .06695 107.006 338.581)"/></g><g fill="#1A1A1A"><use xlink:href="#aa" x="110.099" y="343.101"/><use xlink:href="#w" x="111.016" y="343.101"/></g><g clip-path="url(#aR)"><path fill="none" stroke="#1A1A1A" stroke-width="4" d="M-.004.008h120.008v120.014H-.004Zm0 0" transform="matrix(.06682 0 0 .06695 18.797 338.581)"/></g><use xlink:href="#w" x="22.348" y="343.101" fill="#1A1A1A"/><g clip-path="url(#aS)"><path fill="none" stroke="#1A1A1A" stroke-width="4" d="M0 .008h120.008v120.014H0Zm0 0" transform="matrix(.06682 0 0 .06695 115.031 338.581)"/></g><g fill="#1A1A1A"><use xlink:href="#w" x="118.124" y="343.101"/><use xlink:href="#K" x="119.041" y="343.101"/></g><g clip-path="url(#aT)"><path fill="none" stroke="#1A1A1A" stroke-width="4" d="M.025-.001h119.95v120.013H.025Zm0 0" transform="matrix(.06682 0 0 .06695 58.893 322.516)"/></g><g fill="#1A1A1A"><use xlink:href="#k" x="61.986" y="327.035"/><use xlink:href="#w" x="62.902" y="327.035"/></g><path fill="none" stroke="#333" stroke-width="2" d="M0-.01H532c5.32 0 8.008 2.683 8.008 7.993v161.846" transform="matrix(.06682 0 0 .06695 66.918 326.536)"/><path fill="#333" d="m103.508 337.734-.504.852-.504-.852Zm0 0"/><g clip-path="url(#aU)"><path fill="none" stroke="#1A1A1A" stroke-width="4" d="M-.002.008h120.008v120.014H-.002Zm0 0" transform="matrix(.06682 0 0 .06695 82.953 338.581)"/></g><g fill="#1A1A1A"><use xlink:href="#k" x="86.046" y="343.101"/><use xlink:href="#l" x="86.963" y="343.101"/></g><g clip-path="url(#aV)"><path fill="none" stroke="#1A1A1A" stroke-width="4" d="M.025.008h119.95v120.014H.025Zm0 0" transform="matrix(.06682 0 0 .06695 58.893 338.581)"/></g><g fill="#1A1A1A"><use xlink:href="#l" x="61.986" y="343.101"/><use xlink:href="#q" x="62.902" y="343.101"/></g><path fill="none" stroke="#333" stroke-width="2" d="M.013-.026v109.862" transform="matrix(.06682 0 0 .06695 62.905 330.549)"/><path fill="#333" d="m63.41 337.73-.504.852-.504-.852Zm0 0"/><g clip-path="url(#aW)"><path fill="none" stroke="#1A1A1A" stroke-width="4" d="M-.003.008h120.008v120.014H-.003Zm0 0" transform="matrix(.06682 0 0 .06695 50.875 338.581)"/></g><g fill="#1A1A1A"><use xlink:href="#d" x="53.968" y="343.101"/><use xlink:href="#k" x="54.885" y="343.101"/></g><g clip-path="url(#aX)"><path fill="none" stroke="#1A1A1A" stroke-width="4" d="M-.003.024h120.008v119.955H-.003Zm0 0" transform="matrix(.06682 0 0 .06695 50.875 354.655)"/></g><g fill="#1A1A1A"><use xlink:href="#d" x="53.968" y="359.174"/><use xlink:href="#d" x="54.885" y="359.174"/></g><g clip-path="url(#aY)"><path fill="none" stroke="#1A1A1A" stroke-width="4" d="M0-.025h120.008V119.99H.001Zm0 0" transform="matrix(.06682 0 0 .06695 66.918 370.72)"/></g><g fill="#1A1A1A"><use xlink:href="#l" x="70.011" y="375.24"/><use xlink:href="#q" x="70.927" y="375.24"/></g><g clip-path="url(#aZ)"><path fill="none" stroke="#1A1A1A" stroke-width="4" d="M-.004-.025h120.008V119.99H-.004Zm0 0" transform="matrix(.06682 0 0 .06695 98.989 370.72)"/></g><g fill="#1A1A1A"><use xlink:href="#aa" x="102.081" y="375.24"/><use xlink:href="#d" x="102.998" y="375.24"/></g><g clip-path="url(#ba)"><path fill="none" stroke="#1A1A1A" stroke-width="4" d="M.029-.025h119.95V119.99H.028Zm0 0" transform="matrix(.06682 0 0 .06695 74.936 370.72)"/></g><g fill="#1A1A1A"><use xlink:href="#l" x="78.028" y="375.24"/><use xlink:href="#q" x="78.945" y="375.24"/></g><g clip-path="url(#bb)"><path fill="none" stroke="#1A1A1A" stroke-width="4" d="M-.001-.025h120.008V119.99H-.001Zm0 0" transform="matrix(.06682 0 0 .06695 34.84 370.72)"/></g><g fill="#1A1A1A"><use xlink:href="#d" x="37.933" y="375.24"/><use xlink:href="#e" x="38.849" y="375.24"/></g><g clip-path="url(#bc)"><path fill="none" stroke="#1A1A1A" stroke-width="4" d="M-.03-.025H119.98V119.99H-.03Zm0 0" transform="matrix(.06682 0 0 .06695 26.822 370.72)"/></g><g fill="#1A1A1A"><use xlink:href="#d" x="29.915" y="375.24"/><use xlink:href="#q" x="30.832" y="375.24"/></g><path fill="none" stroke="#333" stroke-width="2" d="M180.022.009H7.99C2.67.009-.02 2.693-.02 8.002V169.79" transform="matrix(.06682 0 0 .06695 38.845 358.667)"/><path fill="#333" d="m39.348 369.867-.504.852-.504-.852Zm0 0"/><g clip-path="url(#bd)"><path fill="none" stroke="#1A1A1A" stroke-width="4" d="M.025-.025h119.95V119.99H.024Zm0 0" transform="matrix(.06682 0 0 .06695 107.006 370.72)"/></g><g fill="#1A1A1A"><use xlink:href="#aa" x="110.099" y="375.24"/><use xlink:href="#w" x="111.016" y="375.24"/></g><g clip-path="url(#be)"><path fill="none" stroke="#1A1A1A" stroke-width="4" d="M-.004-.025h120.008V119.99H-.004Zm0 0" transform="matrix(.06682 0 0 .06695 18.797 370.72)"/></g><g fill="#1A1A1A"><use xlink:href="#e" x="21.89" y="375.24"/><use xlink:href="#d" x="22.807" y="375.24"/></g><g clip-path="url(#bf)"><path fill="none" stroke="#1A1A1A" stroke-width="4" d="M0-.025h120.008V119.99H0Zm0 0" transform="matrix(.06682 0 0 .06695 115.031 370.72)"/></g><g fill="#1A1A1A"><use xlink:href="#w" x="118.124" y="375.24"/><use xlink:href="#K" x="119.041" y="375.24"/></g><g clip-path="url(#bg)"><path fill="none" stroke="#1A1A1A" stroke-width="4" d="M.025.024h119.95v119.955H.025Zm0 0" transform="matrix(.06682 0 0 .06695 58.893 354.655)"/></g><g fill="#1A1A1A"><use xlink:href="#k" x="61.986" y="359.174"/><use xlink:href="#w" x="62.902" y="359.174"/></g><path fill="none" stroke="#333" stroke-width="2" d="M0 .009H532c5.32 0 8.008 2.684 8.008 7.993V169.79" transform="matrix(.06682 0 0 .06695 66.918 358.667)"/><path fill="#333" d="m103.508 369.867-.504.852-.504-.852Zm0 0"/><g clip-path="url(#bh)"><path fill="none" stroke="#1A1A1A" stroke-width="4" d="M-.002-.025h120.008V119.99H-.002Zm0 0" transform="matrix(.06682 0 0 .06695 82.953 370.72)"/></g><g fill="#1A1A1A"><use xlink:href="#k" x="86.046" y="375.24"/><use xlink:href="#l" x="86.963" y="375.24"/></g><g clip-path="url(#bi)"><path fill="none" stroke="#1A1A1A" stroke-width="4" d="M.025-.025h119.95V119.99H.025Zm0 0" transform="matrix(.06682 0 0 .06695 58.893 370.72)"/></g><g fill="#1A1A1A"><use xlink:href="#l" x="61.986" y="375.24"/><use xlink:href="#q" x="62.902" y="375.24"/></g><path fill="none" stroke="#333" stroke-width="2" d="M.013 0v109.803" transform="matrix(.06682 0 0 .06695 62.905 362.688)"/><path fill="#333" d="m63.41 369.871-.504.852-.504-.852Zm0 0"/><g clip-path="url(#bj)"><path fill="none" stroke="#1A1A1A" stroke-width="4" d="M-.003-.025h120.008V119.99H-.003Zm0 0" transform="matrix(.06682 0 0 .06695 50.875 370.72)"/></g><g fill="#1A1A1A"><use xlink:href="#d" x="53.968" y="375.24"/><use xlink:href="#k" x="54.885" y="375.24"/></g><g clip-path="url(#bk)"><path fill="none" stroke="#1A1A1A" stroke-width="4" d="M.026-.025h119.95V119.99H.025Zm0 0" transform="matrix(.06682 0 0 .06695 10.78 370.72)"/></g><use xlink:href="#w" x="14.331" y="375.24" fill="#1A1A1A"/></svg>