<svg xmlns="http://www.w3.org/2000/svg" xmlns:xlink="http://www.w3.org/1999/xlink" width="161.04" height="392.88"><defs><clipPath id="a"><path d="M0 0h161v392.809H0Zm0 0"/></clipPath><clipPath id="b"><path d="M0 0h161v391.32H0Zm0 0"/></clipPath><clipPath id="c"><path d="M17.434 57.855h7.402v7.391h-7.402Zm0 0"/></clipPath><clipPath id="d"><path d="M17.434 61.55q-.001-1.529 1.082-2.612a3.57 3.57 0 0 1 2.617-1.083q1.533 0 2.617 1.083t1.086 2.613a3.55 3.55 0 0 1-1.086 2.613q-1.084 1.083-2.617 1.082t-2.617-1.082q-1.083-1.079-1.082-2.613m0 0"/></clipPath><clipPath id="f"><path d="M43.336 80.633h7.402v7.394h-7.402Zm0 0"/></clipPath><clipPath id="g"><path d="M43.336 84.332q0-1.534 1.086-2.617a3.58 3.58 0 0 1 2.617-1.082c1.02 0 1.895.363 2.617 1.082q1.083 1.083 1.082 2.617 0 1.53-1.082 2.613a3.58 3.58 0 0 1-2.617 1.082 3.58 3.58 0 0 1-2.617-1.082q-1.085-1.083-1.086-2.613m0 0"/></clipPath><clipPath id="i"><path d="M50.738 61.55h7.403v7.395h-7.403Zm0 0"/></clipPath><clipPath id="j"><path d="M50.738 65.25a3.55 3.55 0 0 1 1.086-2.613 3.57 3.57 0 0 1 2.617-1.086q1.532 0 2.618 1.086 1.083 1.078 1.082 2.613 0 1.53-1.082 2.613a3.57 3.57 0 0 1-2.618 1.082q-1.534 0-2.617-1.082-1.085-1.083-1.086-2.613m0 0"/></clipPath><clipPath id="l"><path d="M34.703 38.602h7.402v7.394h-7.402Zm0 0"/></clipPath><clipPath id="m"><path d="M34.703 42.3q0-1.534 1.082-2.616a3.58 3.58 0 0 1 2.617-1.082q1.535.002 2.618 1.082a3.57 3.57 0 0 1 1.085 2.617q-.001 1.53-1.085 2.613a3.58 3.58 0 0 1-2.618 1.082 3.58 3.58 0 0 1-2.617-1.082 3.56 3.56 0 0 1-1.082-2.613m0 0"/></clipPath><clipPath id="o"><path d="M59.375 15.2h7.402v7.39h-7.402Zm0 0"/></clipPath><clipPath id="p"><path d="M59.375 18.895q0-1.53 1.082-2.614a3.57 3.57 0 0 1 2.617-1.082q1.535 0 2.617 1.082 1.085 1.084 1.086 2.614 0 1.53-1.086 2.613-1.082 1.083-2.617 1.082-1.531 0-2.617-1.082a3.56 3.56 0 0 1-1.082-2.613m0 0"/></clipPath><clipPath id="r"><path d="M97.613 23.82h7.403v7.395h-7.403Zm0 0"/></clipPath><clipPath id="s"><path d="M97.613 27.52a3.55 3.55 0 0 1 1.086-2.614 3.57 3.57 0 0 1 2.617-1.086q1.532.002 2.618 1.086 1.082 1.078 1.082 2.614 0 1.53-1.082 2.613a3.57 3.57 0 0 1-2.618 1.082q-1.534 0-2.617-1.082-1.084-1.085-1.086-2.613m0 0"/></clipPath><clipPath id="u"><path d="M83.426 41.07h7.402v7.39h-7.402Zm0 0"/></clipPath><clipPath id="v"><path d="M83.426 44.766q0-1.53 1.086-2.614 1.082-1.083 2.617-1.082 1.531 0 2.617 1.082a3.56 3.56 0 0 1 1.082 2.614q0 1.53-1.082 2.613a3.57 3.57 0 0 1-2.617 1.082q-1.535 0-2.617-1.082-1.085-1.085-1.086-2.613m0 0"/></clipPath><clipPath id="x"><path d="M76.023 65.25h7.403v7.39h-7.403Zm0 0"/></clipPath><clipPath id="y"><path d="M76.023 68.945q.002-1.53 1.086-2.613 1.083-1.083 2.618-1.082 1.531 0 2.617 1.082a3.56 3.56 0 0 1 1.082 2.613q0 1.529-1.082 2.614a3.57 3.57 0 0 1-2.617 1.082q-1.535 0-2.618-1.082-1.084-1.084-1.086-2.614m0 0"/></clipPath><clipPath id="z"><path d="M71.71 86.656h7.403v7.395h-7.402Zm0 0"/></clipPath><clipPath id="A"><path d="M71.71 90.352q0-1.53 1.083-2.614a3.58 3.58 0 0 1 2.617-1.082c1.024 0 1.895.364 2.617 1.082q1.085 1.084 1.086 2.614a3.55 3.55 0 0 1-1.086 2.613 3.57 3.57 0 0 1-2.617 1.086 3.57 3.57 0 0 1-2.617-1.086q-1.083-1.079-1.082-2.613m0 0"/></clipPath><clipPath id="C"><path d="M90.21 86.656h7.403v7.395h-7.402Zm0 0"/></clipPath><clipPath id="D"><path d="M90.21 90.352q.001-1.53 1.087-2.614c.723-.718 1.594-1.082 2.613-1.082 1.024 0 1.895.364 2.617 1.082q1.085 1.084 1.086 2.614a3.55 3.55 0 0 1-1.086 2.613 3.57 3.57 0 0 1-2.617 1.086q-1.53-.002-2.613-1.086a3.55 3.55 0 0 1-1.086-2.613m0 0"/></clipPath><clipPath id="F"><path d="M113.652 80.633h7.403v7.394h-7.403Zm0 0"/></clipPath><clipPath id="G"><path d="M113.652 84.332q0-1.534 1.082-2.617a3.58 3.58 0 0 1 2.618-1.082q1.534.002 2.617 1.082a3.57 3.57 0 0 1 1.086 2.617q-.002 1.53-1.086 2.613a3.58 3.58 0 0 1-2.617 1.082 3.58 3.58 0 0 1-2.618-1.082 3.56 3.56 0 0 1-1.082-2.613m0 0"/></clipPath><clipPath id="H"><path d="M99.465 54.008h7.402v7.394h-7.402Zm0 0"/></clipPath><clipPath id="I"><path d="M99.465 57.707a3.55 3.55 0 0 1 1.086-2.613q1.084-1.085 2.613-1.086 1.534 0 2.617 1.086a3.55 3.55 0 0 1 1.086 2.613q0 1.53-1.086 2.613-1.083 1.083-2.617 1.082a3.56 3.56 0 0 1-2.613-1.082q-1.085-1.083-1.086-2.613m0 0"/></clipPath><clipPath id="K"><path d="M138.938 73.238h7.402v7.395h-7.403Zm0 0"/></clipPath><clipPath id="L"><path d="M138.938 76.938q-.001-1.536 1.082-2.614a3.57 3.57 0 0 1 2.617-1.086q1.534.002 2.617 1.086a3.55 3.55 0 0 1 1.086 2.614q0 1.529-1.086 2.613-1.083 1.082-2.617 1.082c-1.02 0-1.895-.36-2.617-1.082a3.56 3.56 0 0 1-1.083-2.614m0 0"/></clipPath><clipPath id="M"><path d="M131.54 44.766h7.401v7.394h-7.402Zm0 0"/></clipPath><clipPath id="N"><path d="M131.54 48.465q0-1.535 1.085-2.617a3.58 3.58 0 0 1 2.617-1.082q1.532.002 2.617 1.082 1.083 1.082 1.082 2.617.001 1.53-1.082 2.613a3.58 3.58 0 0 1-2.617 1.082 3.58 3.58 0 0 1-2.617-1.082q-1.085-1.084-1.086-2.613m0 0"/></clipPath><clipPath id="O"><path d="M17.434 153.82h7.402v7.395h-7.402Zm0 0"/></clipPath><clipPath id="P"><path d="M17.434 157.52q-.001-1.536 1.082-2.614a3.57 3.57 0 0 1 2.617-1.086q1.533.002 2.617 1.086a3.55 3.55 0 0 1 1.086 2.614q0 1.53-1.086 2.613-1.084 1.082-2.617 1.082t-2.617-1.082a3.56 3.56 0 0 1-1.082-2.613m0 0"/></clipPath><clipPath id="Q"><path d="M43.336 176.602h7.402v7.39h-7.402Zm0 0"/></clipPath><clipPath id="R"><path d="M43.336 180.297q0-1.53 1.086-2.613 1.084-1.083 2.617-1.082c1.02 0 1.895.359 2.617 1.082a3.56 3.56 0 0 1 1.082 2.613q0 1.53-1.082 2.613a3.57 3.57 0 0 1-2.617 1.082q-1.534 0-2.617-1.082-1.085-1.084-1.086-2.613m0 0"/></clipPath><clipPath id="S"><path d="M50.738 157.52h7.403v7.39h-7.403Zm0 0"/></clipPath><clipPath id="T"><path d="M50.738 161.215q.001-1.53 1.086-2.613 1.084-1.083 2.617-1.082 1.532-.001 2.618 1.082a3.56 3.56 0 0 1 1.082 2.613q0 1.53-1.082 2.613a3.57 3.57 0 0 1-2.618 1.082q-1.534 0-2.617-1.082-1.085-1.084-1.086-2.613m0 0"/></clipPath><clipPath id="U"><path d="M34.703 134.57h7.402v7.39h-7.402Zm0 0"/></clipPath><clipPath id="V"><path d="M34.703 138.266q0-1.53 1.082-2.614a3.57 3.57 0 0 1 2.617-1.082q1.535 0 2.618 1.082 1.084 1.084 1.085 2.614-.001 1.53-1.085 2.613-1.083 1.083-2.618 1.082-1.531 0-2.617-1.082a3.56 3.56 0 0 1-1.082-2.613m0 0"/></clipPath><clipPath id="W"><path d="M59.375 111.156h7.402v7.395h-7.402Zm0 0"/></clipPath><clipPath id="X"><path d="M59.375 114.852q0-1.53 1.082-2.614a3.58 3.58 0 0 1 2.617-1.082c1.024 0 1.895.364 2.617 1.082q1.085 1.084 1.086 2.614a3.57 3.57 0 0 1-1.086 2.617 3.58 3.58 0 0 1-2.617 1.082 3.58 3.58 0 0 1-2.617-1.082q-1.083-1.083-1.082-2.617m0 0"/></clipPath><clipPath id="Y"><path d="M97.613 119.781h7.403v7.39h-7.403Zm0 0"/></clipPath><clipPath id="Z"><path d="M97.613 123.477q.001-1.53 1.086-2.614 1.083-1.082 2.617-1.082 1.532 0 2.618 1.082a3.56 3.56 0 0 1 1.082 2.614q0 1.53-1.082 2.613a3.57 3.57 0 0 1-2.618 1.082q-1.534 0-2.617-1.082-1.084-1.085-1.086-2.613m0 0"/></clipPath><clipPath id="aa"><path d="M83.426 137.035h7.402v7.395h-7.402Zm0 0"/></clipPath><clipPath id="ab"><path d="M83.426 140.734q0-1.534 1.086-2.617a3.58 3.58 0 0 1 2.617-1.082q1.531.002 2.617 1.082 1.083 1.084 1.082 2.617 0 1.53-1.082 2.614a3.58 3.58 0 0 1-2.617 1.082 3.58 3.58 0 0 1-2.617-1.082q-1.085-1.084-1.086-2.614m0 0"/></clipPath><clipPath id="ac"><path d="M76.023 161.215h7.403v7.394h-7.403Zm0 0"/></clipPath><clipPath id="ad"><path d="M76.023 164.914q.002-1.534 1.086-2.617a3.58 3.58 0 0 1 2.618-1.082q1.531.002 2.617 1.082 1.082 1.084 1.082 2.617 0 1.53-1.082 2.613a3.58 3.58 0 0 1-2.617 1.082 3.58 3.58 0 0 1-2.618-1.082q-1.084-1.083-1.086-2.613m0 0"/></clipPath><clipPath id="ae"><path d="M71.71 182.617h7.403v7.39h-7.402Zm0 0"/></clipPath><clipPath id="af"><path d="M71.71 186.313q0-1.53 1.083-2.614a3.57 3.57 0 0 1 2.617-1.082q1.535 0 2.617 1.082 1.085 1.084 1.086 2.613 0 1.53-1.086 2.614-1.082 1.082-2.617 1.082-1.531 0-2.617-1.082a3.56 3.56 0 0 1-1.082-2.613m0 0"/></clipPath><clipPath id="ag"><path d="M90.21 182.617h7.403v7.39h-7.402Zm0 0"/></clipPath><clipPath id="ah"><path d="M90.21 186.313q.001-1.53 1.087-2.614a3.56 3.56 0 0 1 2.613-1.082q1.535 0 2.617 1.082 1.085 1.084 1.086 2.613 0 1.53-1.086 2.614-1.082 1.082-2.617 1.082a3.56 3.56 0 0 1-2.613-1.082q-1.085-1.084-1.086-2.613m0 0"/></clipPath><clipPath id="ai"><path d="M113.652 176.602h7.403v7.39h-7.403Zm0 0"/></clipPath><clipPath id="aj"><path d="M113.652 180.297q0-1.53 1.082-2.613a3.57 3.57 0 0 1 2.618-1.082q1.534-.001 2.617 1.082 1.084 1.083 1.086 2.613-.002 1.53-1.086 2.613-1.083 1.083-2.617 1.082-1.532 0-2.618-1.082a3.56 3.56 0 0 1-1.082-2.613m0 0"/></clipPath><clipPath id="ak"><path d="M99.465 149.969h7.402v7.39h-7.402Zm0 0"/></clipPath><clipPath id="al"><path d="M99.465 153.664q0-1.53 1.086-2.613a3.56 3.56 0 0 1 2.613-1.082q1.534 0 2.617 1.082 1.085 1.084 1.086 2.613 0 1.53-1.086 2.613-1.083 1.083-2.617 1.082a3.56 3.56 0 0 1-2.613-1.082q-1.085-1.083-1.086-2.613m0 0"/></clipPath><clipPath id="am"><path d="M138.938 169.207h7.402v7.39h-7.403Zm0 0"/></clipPath><clipPath id="an"><path d="M138.938 172.902q-.001-1.53 1.082-2.613a3.57 3.57 0 0 1 2.617-1.082q1.534 0 2.617 1.082 1.085 1.084 1.086 2.613 0 1.53-1.086 2.614-1.083 1.083-2.617 1.082c-1.02 0-1.895-.36-2.617-1.082a3.56 3.56 0 0 1-1.083-2.614m0 0"/></clipPath><clipPath id="ao"><path d="M131.54 140.727h7.401v7.39h-7.402Zm0 0"/></clipPath><clipPath id="ap"><path d="M131.54 144.422q0-1.53 1.085-2.613t2.617-1.082q1.532-.001 2.617 1.082a3.56 3.56 0 0 1 1.082 2.613q.001 1.53-1.082 2.613a3.57 3.57 0 0 1-2.617 1.082q-1.534 0-2.617-1.082-1.085-1.084-1.086-2.613m0 0"/></clipPath><clipPath id="aq"><path d="M17.434 249.922h7.402v7.394h-7.402Zm0 0"/></clipPath><clipPath id="ar"><path d="M17.434 253.617q-.001-1.53 1.082-2.613a3.58 3.58 0 0 1 2.617-1.082q1.533.002 2.617 1.082 1.085 1.085 1.086 2.613a3.55 3.55 0 0 1-1.086 2.613 3.57 3.57 0 0 1-2.617 1.086 3.58 3.58 0 0 1-2.617-1.082q-1.083-1.082-1.082-2.617m0 0"/></clipPath><clipPath id="as"><path d="M43.336 272.7h7.402v7.394h-7.402Zm0 0"/></clipPath><clipPath id="at"><path d="M43.336 276.398a3.55 3.55 0 0 1 1.086-2.613 3.57 3.57 0 0 1 2.617-1.086c1.02 0 1.895.363 2.617 1.086q1.083 1.079 1.082 2.613 0 1.53-1.082 2.614a3.57 3.57 0 0 1-2.617 1.082q-1.534 0-2.617-1.082-1.085-1.084-1.086-2.614m0 0"/></clipPath><clipPath id="au"><path d="M50.738 253.621h7.403v7.39h-7.403Zm0 0"/></clipPath><clipPath id="av"><path d="M50.738 257.316q.001-1.53 1.086-2.613 1.084-1.083 2.617-1.082t2.618 1.082a3.56 3.56 0 0 1 1.082 2.613q0 1.53-1.082 2.614a3.57 3.57 0 0 1-2.618 1.082q-1.534 0-2.617-1.082-1.085-1.084-1.086-2.614m0 0"/></clipPath><clipPath id="aw"><path d="M34.703 230.668h7.402v7.394h-7.402Zm0 0"/></clipPath><clipPath id="ax"><path d="M34.703 234.367q0-1.534 1.082-2.613a3.57 3.57 0 0 1 2.617-1.086q1.535 0 2.618 1.086a3.55 3.55 0 0 1 1.085 2.613q-.001 1.53-1.085 2.613-1.083 1.084-2.618 1.083-1.531 0-2.617-1.083a3.56 3.56 0 0 1-1.082-2.613m0 0"/></clipPath><clipPath id="ay"><path d="M59.375 207.258h7.402v7.39h-7.402Zm0 0"/></clipPath><clipPath id="az"><path d="M59.375 210.953q0-1.53 1.082-2.613a3.57 3.57 0 0 1 2.617-1.082q1.535 0 2.617 1.082 1.085 1.084 1.086 2.613c0 1.02-.363 1.895-1.086 2.613q-1.082 1.083-2.617 1.082-1.531.001-2.617-1.082c-.723-.718-1.082-1.593-1.082-2.613m0 0"/></clipPath><clipPath id="aA"><path d="M97.613 215.883h7.403v7.39h-7.403Zm0 0"/></clipPath><clipPath id="aB"><path d="M97.613 219.578q.001-1.53 1.086-2.613 1.083-1.083 2.617-1.082 1.532 0 2.618 1.082a3.56 3.56 0 0 1 1.082 2.613q0 1.53-1.082 2.613a3.57 3.57 0 0 1-2.618 1.082q-1.534.001-2.617-1.082-1.084-1.083-1.086-2.613m0 0"/></clipPath><clipPath id="aC"><path d="M83.426 233.137h7.402v7.394h-7.402Zm0 0"/></clipPath><clipPath id="aD"><path d="M83.426 236.832q0-1.53 1.086-2.613 1.082-1.083 2.617-1.082 1.531 0 2.617 1.082a3.56 3.56 0 0 1 1.082 2.613q0 1.535-1.082 2.613c-.723.723-1.598 1.082-2.617 1.086-1.024-.004-1.895-.363-2.617-1.086a3.55 3.55 0 0 1-1.086-2.613m0 0"/></clipPath><clipPath id="aE"><path d="M76.023 257.316h7.403v7.395h-7.403Zm0 0"/></clipPath><clipPath id="aF"><path d="M76.023 261.012q.002-1.529 1.086-2.614 1.083-1.082 2.618-1.082 1.531 0 2.617 1.082a3.56 3.56 0 0 1 1.082 2.614q0 1.535-1.082 2.613a3.57 3.57 0 0 1-2.617 1.086 3.57 3.57 0 0 1-2.618-1.086 3.55 3.55 0 0 1-1.086-2.613m0 0"/></clipPath><clipPath id="aG"><path d="M71.71 278.723h7.403v7.394h-7.402Zm0 0"/></clipPath><clipPath id="aH"><path d="M71.71 282.422q0-1.535 1.083-2.617a3.58 3.58 0 0 1 2.617-1.082q1.535.002 2.617 1.082a3.57 3.57 0 0 1 1.086 2.617q0 1.53-1.086 2.613a3.58 3.58 0 0 1-2.617 1.082 3.58 3.58 0 0 1-2.617-1.082 3.56 3.56 0 0 1-1.082-2.613m0 0"/></clipPath><clipPath id="aI"><path d="M90.21 278.723h7.403v7.394h-7.402Zm0 0"/></clipPath><clipPath id="aJ"><path d="M90.21 282.422q.001-1.535 1.087-2.617 1.084-1.081 2.613-1.082 1.535.002 2.617 1.082a3.57 3.57 0 0 1 1.086 2.617q0 1.53-1.086 2.613a3.58 3.58 0 0 1-2.617 1.082q-1.53-.002-2.613-1.082-1.085-1.084-1.086-2.613m0 0"/></clipPath><clipPath id="aK"><path d="M113.652 272.7h7.403v7.394h-7.403Zm0 0"/></clipPath><clipPath id="aL"><path d="M113.652 276.398q0-1.535 1.082-2.613a3.57 3.57 0 0 1 2.618-1.086q1.534 0 2.617 1.086a3.55 3.55 0 0 1 1.086 2.613q-.002 1.53-1.086 2.614-1.083 1.082-2.617 1.082-1.532 0-2.618-1.082a3.56 3.56 0 0 1-1.082-2.614m0 0"/></clipPath><clipPath id="aM"><path d="M99.465 246.07h7.402v7.39h-7.402Zm0 0"/></clipPath><clipPath id="aN"><path d="M99.465 249.766q0-1.53 1.086-2.614a3.56 3.56 0 0 1 2.613-1.082q1.534 0 2.617 1.082 1.085 1.084 1.086 2.614 0 1.53-1.086 2.613-1.083 1.083-2.617 1.082a3.56 3.56 0 0 1-2.613-1.082q-1.085-1.084-1.086-2.613m0 0"/></clipPath><clipPath id="aO"><path d="M138.938 265.309h7.402v7.39h-7.403Zm0 0"/></clipPath><clipPath id="aP"><path d="M138.938 269.004q-.001-1.53 1.082-2.613a3.57 3.57 0 0 1 2.617-1.082q1.534-.001 2.617 1.082 1.085 1.083 1.086 2.613 0 1.53-1.086 2.613-1.083 1.083-2.617 1.082c-1.02 0-1.895-.36-2.617-1.082a3.56 3.56 0 0 1-1.083-2.613m0 0"/></clipPath><clipPath id="aQ"><path d="M131.54 236.828h7.401v7.39h-7.402Zm0 0"/></clipPath><clipPath id="aR"><path d="M131.54 240.523c0-1.02.362-1.894 1.085-2.613q1.084-1.083 2.617-1.082t2.617 1.082c.723.719 1.082 1.594 1.082 2.613q.001 1.53-1.082 2.614a3.57 3.57 0 0 1-2.617 1.082q-1.534 0-2.617-1.082-1.085-1.084-1.086-2.614m0 0"/></clipPath><clipPath id="aS"><path d="M10.957 342.758h7.398v7.394h-7.398Zm0 0"/></clipPath><clipPath id="aT"><path d="M10.957 346.453q0-1.53 1.082-2.613a3.58 3.58 0 0 1 2.617-1.082q1.535.002 2.617 1.082a3.56 3.56 0 0 1 1.082 2.613q.001 1.536-1.082 2.613a3.57 3.57 0 0 1-2.617 1.086 3.57 3.57 0 0 1-2.617-1.086q-1.083-1.078-1.082-2.613m0 0"/></clipPath><clipPath id="aU"><path d="M36.86 365.535h7.402v7.395h-7.403Zm0 0"/></clipPath><clipPath id="aV"><path d="M36.86 369.234q-.001-1.534 1.081-2.613a3.57 3.57 0 0 1 2.618-1.086q1.534 0 2.617 1.086a3.55 3.55 0 0 1 1.086 2.613q-.001 1.53-1.086 2.614-1.084 1.082-2.617 1.082t-2.618-1.082a3.56 3.56 0 0 1-1.082-2.614m0 0"/></clipPath><clipPath id="aW"><path d="M44.262 346.457h7.402v7.39h-7.402Zm0 0"/></clipPath><clipPath id="aX"><path d="M44.262 350.152q0-1.53 1.086-2.613 1.082-1.083 2.617-1.082 1.53 0 2.613 1.082 1.085 1.084 1.086 2.613 0 1.53-1.086 2.614a3.56 3.56 0 0 1-2.613 1.082q-1.535 0-2.617-1.082-1.085-1.084-1.086-2.614m0 0"/></clipPath><clipPath id="aY"><path d="M28.227 323.504h7.398v7.394h-7.398Zm0 0"/></clipPath><clipPath id="aZ"><path d="M28.227 327.203q-.001-1.534 1.082-2.613a3.57 3.57 0 0 1 2.617-1.086q1.534 0 2.617 1.086 1.083 1.079 1.082 2.613 0 1.53-1.082 2.613-1.084 1.083-2.617 1.082-1.535.001-2.617-1.082a3.56 3.56 0 0 1-1.082-2.613m0 0"/></clipPath><clipPath id="ba"><path d="M52.898 300.094h7.399v7.39h-7.399Zm0 0"/></clipPath><clipPath id="bb"><path d="M52.898 303.79q0-1.53 1.082-2.614t2.618-1.082q1.534 0 2.617 1.082a3.56 3.56 0 0 1 1.082 2.613q0 1.53-1.082 2.613-1.084 1.083-2.617 1.082-1.535.001-2.618-1.082a3.56 3.56 0 0 1-1.082-2.613m0 0"/></clipPath><clipPath id="bc"><path d="M91.137 308.719h7.402v7.39h-7.402Zm0 0"/></clipPath><clipPath id="bd"><path d="M91.137 312.414q0-1.53 1.082-2.613a3.57 3.57 0 0 1 2.617-1.082q1.534 0 2.617 1.082 1.085 1.084 1.086 2.613 0 1.53-1.086 2.613-1.083 1.083-2.617 1.082-1.532.001-2.617-1.082a3.56 3.56 0 0 1-1.082-2.613m0 0"/></clipPath><clipPath id="be"><path d="M76.95 325.973h7.402v7.39h-7.403Zm0 0"/></clipPath><clipPath id="bf"><path d="M76.95 329.668q0-1.53 1.085-2.613 1.083-1.083 2.617-1.082 1.53-.001 2.614 1.082t1.086 2.613a3.55 3.55 0 0 1-1.086 2.613 3.56 3.56 0 0 1-2.614 1.082q-1.534 0-2.617-1.082a3.55 3.55 0 0 1-1.086-2.613m0 0"/></clipPath><clipPath id="bg"><path d="M69.555 350.152h7.402v7.395h-7.402Zm0 0"/></clipPath><clipPath id="bh"><path d="M69.555 353.848q0-1.53 1.082-2.614a3.57 3.57 0 0 1 2.617-1.082q1.534 0 2.617 1.082 1.085 1.084 1.086 2.614a3.55 3.55 0 0 1-1.086 2.613 3.57 3.57 0 0 1-2.617 1.086 3.57 3.57 0 0 1-2.617-1.086q-1.083-1.079-1.082-2.613m0 0"/></clipPath><clipPath id="bi"><path d="M65.234 371.559h7.399v7.394h-7.399Zm0 0"/></clipPath><clipPath id="bj"><path d="M65.234 375.258q0-1.535 1.082-2.617a3.58 3.58 0 0 1 2.618-1.082q1.534.002 2.617 1.082 1.082 1.082 1.082 2.617 0 1.53-1.082 2.613a3.58 3.58 0 0 1-2.617 1.082 3.58 3.58 0 0 1-2.618-1.082 3.56 3.56 0 0 1-1.082-2.613m0 0"/></clipPath><clipPath id="bk"><path d="M83.734 371.559h7.403v7.394h-7.403Zm0 0"/></clipPath><clipPath id="bl"><path d="M83.734 375.258q0-1.535 1.082-2.617a3.58 3.58 0 0 1 2.618-1.082q1.534.002 2.617 1.082a3.57 3.57 0 0 1 1.086 2.617q-.001 1.53-1.086 2.613a3.58 3.58 0 0 1-2.617 1.082 3.58 3.58 0 0 1-2.618-1.082 3.56 3.56 0 0 1-1.082-2.613m0 0"/></clipPath><clipPath id="bm"><path d="M107.176 365.535h7.398v7.395h-7.398Zm0 0"/></clipPath><clipPath id="bn"><path d="M107.176 369.234q0-1.534 1.082-2.613a3.57 3.57 0 0 1 2.617-1.086q1.534 0 2.617 1.086 1.083 1.078 1.082 2.613 0 1.53-1.082 2.614-1.083 1.082-2.617 1.082t-2.617-1.082a3.56 3.56 0 0 1-1.082-2.614m0 0"/></clipPath><clipPath id="bo"><path d="M92.988 338.906h7.403v7.39h-7.403Zm0 0"/></clipPath><clipPath id="bp"><path d="M92.988 342.602q0-1.53 1.082-2.614a3.57 3.57 0 0 1 2.618-1.082q1.533 0 2.617 1.082 1.084 1.084 1.086 2.614-.001 1.53-1.086 2.613-1.083 1.083-2.618 1.082-1.53 0-2.617-1.082a3.56 3.56 0 0 1-1.082-2.613m0 0"/></clipPath><clipPath id="bq"><path d="M132.465 358.145h7.402v7.39h-7.402Zm0 0"/></clipPath><clipPath id="br"><path d="M132.465 361.84q0-1.53 1.086-2.613 1.083-1.083 2.617-1.082 1.531-.001 2.617 1.082a3.56 3.56 0 0 1 1.082 2.613q0 1.53-1.082 2.613a3.57 3.57 0 0 1-2.617 1.082q-1.534 0-2.617-1.082-1.085-1.084-1.086-2.613m0 0"/></clipPath><clipPath id="bs"><path d="M125.063 329.664h7.402v7.39h-7.403Zm0 0"/></clipPath><clipPath id="bt"><path d="M125.063 333.36a3.55 3.55 0 0 1 1.085-2.614q1.083-1.083 2.618-1.082 1.53 0 2.613 1.082a3.55 3.55 0 0 1 1.086 2.613q0 1.53-1.086 2.614a3.56 3.56 0 0 1-2.613 1.082q-1.535 0-2.618-1.082-1.084-1.084-1.085-2.614m0 0"/></clipPath><path id="e" d="M.516 0h-.11v-.937l-.031.03q-.019.019-.172.141L.141-.844l.28-.219h.095Zm0 0"/><path id="h" d="M.813-.25H.656V0h-.11v-.25H.032v-.094l.5-.718h.125v.703h.156ZM.547-.36v-.578l-.063.11-.328.469Zm0 0"/><path id="k" d="M.766 0H.078v-.11l.266-.28a1.3 1.3 0 0 0 .172-.172.4.4 0 0 0 .062-.11 1 1 0 0 0 .016-.11q0-.093-.047-.14t-.14-.047a.3.3 0 0 0-.126.031.34.34 0 0 0-.125.063L.094-.953a.46.46 0 0 1 .312-.125c.094 0 .164.027.219.078a.26.26 0 0 1 .094.203c0 .074-.024.14-.063.203a1.1 1.1 0 0 1-.203.25L.22-.125v.016h.547Zm0 0"/><path id="n" d="M.766-.61Q.764.018.28.017A.5.5 0 0 1 .156 0v-.11q.06.034.125.032.171.001.266-.11Q.64-.292.64-.516a.4.4 0 0 1-.11.079.3.3 0 0 1-.156.03C.281-.406.207-.43.156-.483Q.076-.561.078-.72q0-.17.094-.265a.32.32 0 0 1 .234-.094q.105.002.188.062a.25.25 0 0 1 .125.157.6.6 0 0 1 .047.25m-.36-.359a.22.22 0 0 0-.156.063.3.3 0 0 0-.047.187q0 .112.047.172Q.296-.5.406-.5q.061.001.11-.016.059-.03.093-.078a.2.2 0 0 0 .032-.094.3.3 0 0 0-.032-.14.17.17 0 0 0-.078-.094.17.17 0 0 0-.125-.047m0 0"/><path id="q" d="M.422-1.078c.094 0 .164.027.219.078a.2.2 0 0 1 .093.172.3.3 0 0 1-.046.156.4.4 0 0 1-.157.11q.123.064.172.14a.2.2 0 0 1 .063.14.27.27 0 0 1-.094.22Q.59.018.422.016a.36.36 0 0 1-.25-.078.25.25 0 0 1-.094-.204c0-.125.07-.218.219-.28a.5.5 0 0 1-.14-.126.25.25 0 0 1-.048-.156Q.107-.934.188-1a.36.36 0 0 1 .234-.078m-.234.812q-.001.082.062.141.06.047.172.047.106 0 .172-.047a.2.2 0 0 0 .062-.14.16.16 0 0 0-.062-.126A.4.4 0 0 0 .406-.5a.5.5 0 0 0-.172.11.17.17 0 0 0-.047.124m.234-.718q-.095 0-.14.046a.17.17 0 0 0-.048.125c0 .043.008.079.032.11a.5.5 0 0 0 .156.094.5.5 0 0 0 .156-.094.15.15 0 0 0 .047-.11.16.16 0 0 0-.062-.125Q.515-.982.422-.983m0 0"/><path id="t" d="M.406-.64q.171 0 .266.078a.27.27 0 0 1 .094.218c0 .117-.04.203-.11.266a.42.42 0 0 1-.281.094.5.5 0 0 1-.281-.063v-.11q.044.036.125.048.074.016.156.015A.3.3 0 0 0 .563-.14Q.64-.199.64-.328.64-.546.375-.547c-.055 0-.117.008-.187.016L.125-.562l.031-.5h.532v.109H.266l-.032.328c.063-.008.118-.016.172-.016m0 0"/><path id="w" d="m.203 0 .438-.953H.063v-.11h.703v.094L.344 0Zm0 0"/><path id="B" d="M.734-.812a.24.24 0 0 1-.062.171.26.26 0 0 1-.156.079v.015q.123.02.187.078a.25.25 0 0 1 .063.172c0 .094-.04.172-.11.235A.5.5 0 0 1 .36.016C.305.016.254.008.203 0a.6.6 0 0 1-.14-.047v-.11q.074.036.156.048a.6.6 0 0 0 .14.015q.282.001.282-.203Q.64-.498.328-.5H.234v-.094h.094A.4.4 0 0 0 .531-.64.2.2 0 0 0 .61-.812a.12.12 0 0 0-.062-.11Q.5-.969.407-.969a.6.6 0 0 0-.126.016.5.5 0 0 0-.14.062L.078-.969a.6.6 0 0 1 .14-.078.6.6 0 0 1 .188-.031q.153 0 .235.078a.21.21 0 0 1 .093.188m0 0"/><path id="E" d="M.781-.531q0 .28-.094.422-.08.127-.265.125a.3.3 0 0 1-.266-.141q-.08-.14-.078-.406c0-.188.024-.32.078-.406a.3.3 0 0 1 .266-.141q.17 0 .266.14.093.142.093.407m-.578 0q0 .236.047.344.045.093.172.093.123 0 .172-.093a.75.75 0 0 0 .062-.344Q.654-.765.594-.86a.18.18 0 0 0-.172-.11c-.086 0-.14.04-.172.11q-.047.093-.047.328m0 0"/><path id="J" d="M.078-.453q-.001-.31.125-.469a.44.44 0 0 1 .36-.156c.05 0 .093.008.125.016v.109A.5.5 0 0 0 .563-.97a.34.34 0 0 0-.266.11q-.082.093-.094.328H.22q.075-.124.25-.125c.094 0 .164.031.219.094a.27.27 0 0 1 .093.218q0 .174-.094.266a.34.34 0 0 1-.25.094.33.33 0 0 1-.265-.125.55.55 0 0 1-.094-.344m.36.36c.07 0 .125-.02.156-.063q.06-.06.062-.188A.23.23 0 0 0 .594-.5a.17.17 0 0 0-.14-.062.3.3 0 0 0-.142.03.15.15 0 0 0-.078.063.2.2 0 0 0-.03.11c0 .043.007.09.03.14a.2.2 0 0 0 .078.094q.06.033.126.031m0 0"/></defs><g clip-path="url(#a)"><path fill="#FFF" d="M0 0h161v392.809H0Zm0 0"/></g><g clip-path="url(#b)"><path fill="#F2F2F2" d="M0 0h161v391.32H0Zm0 0"/><path fill="#FFF" d="M0 0h161v391.32H0Zm0 0"/></g><g clip-path="url(#c)"><g clip-path="url(#d)"><path fill="none" stroke="#1A1A1A" stroke-width="4" d="M120.019 59.983c0 7.99-1.52 15.599-4.56 22.954s-7.41 13.887-13.046 19.467c-5.637 5.644-12.097 9.955-19.443 13q-11.02 4.565-22.99 4.565a59.4 59.4 0 0 1-22.926-4.566c-7.346-3.044-13.87-7.355-19.506-12.999A59.6 59.6 0 0 1 4.565 82.937C1.525 75.582.005 67.973.005 59.983c0-7.926 1.52-15.599 4.56-22.954s7.41-13.824 12.983-19.467c5.636-5.644 12.16-9.956 19.506-13A59.4 59.4 0 0 1 59.98-.002q11.97 0 22.99 4.566c7.346 3.043 13.806 7.355 19.443 12.999 5.636 5.643 10.006 12.111 13.046 19.467a59.6 59.6 0 0 1 4.56 22.954Zm0 0" transform="matrix(.06168 0 0 .0616 17.433 57.856)"/></g></g><use xlink:href="#e" x="20.711" y="62.014" fill="#1A1A1A"/><g clip-path="url(#f)"><g clip-path="url(#g)"><path fill="none" stroke="#1A1A1A" stroke-width="4" d="M119.998 60.027c0 7.927-1.52 15.6-4.56 22.955s-7.41 13.823-12.983 19.467c-5.637 5.58-12.16 9.955-19.507 12.999a59.4 59.4 0 0 1-22.926 4.565q-11.97 0-22.99-4.565c-7.346-3.044-13.806-7.42-19.442-13-5.637-5.643-10.007-12.11-13.047-19.466a59.6 59.6 0 0 1-4.56-22.955q0-11.985 4.56-23.017c3.04-7.293 7.41-13.824 13.047-19.467 5.636-5.58 12.096-9.956 19.443-13q11.02-4.565 22.99-4.565c7.916 0 15.579 1.522 22.925 4.566 7.347 3.043 13.87 7.419 19.507 12.999 5.573 5.643 9.943 12.174 12.983 19.467q4.56 11.033 4.56 23.017Zm0 0" transform="matrix(.06168 0 0 .0616 43.337 80.634)"/></g></g><g fill="#1A1A1A"><use xlink:href="#e" x="46.192" y="84.792"/><use xlink:href="#h" x="47.038" y="84.792"/></g><g clip-path="url(#i)"><g clip-path="url(#j)"><path fill="none" stroke="#1A1A1A" stroke-width="4" d="M119.984 60.018c0 7.927-1.52 15.6-4.56 22.955s-7.346 13.823-12.983 19.467c-5.636 5.643-12.16 9.955-19.506 12.999a59.4 59.4 0 0 1-22.926 4.565q-11.97 0-22.99-4.565c-7.346-3.044-13.806-7.356-19.443-13-5.636-5.643-9.943-12.11-12.983-19.466S-.03 67.945-.03 60.018c0-7.99 1.583-15.598 4.623-22.954s7.347-13.887 12.983-19.467c5.637-5.643 12.097-9.955 19.443-12.999C44.366 1.491 52.03-.03 60.01-.03c7.916 0 15.58 1.522 22.926 4.63 7.346 3.043 13.87 7.355 19.506 12.998 5.637 5.58 9.943 12.111 12.983 19.467s4.56 14.965 4.56 22.954Zm0 0" transform="matrix(.06168 0 0 .0616 50.74 61.553)"/></g></g><g fill="#1A1A1A"><use xlink:href="#e" x="53.595" y="65.711"/><use xlink:href="#k" x="54.441" y="65.711"/></g><g clip-path="url(#l)"><g clip-path="url(#m)"><path fill="#FEF445" stroke="#1A1A1A" stroke-width="4" d="M120.026 60.03c0 7.926-1.52 15.6-4.623 22.955-3.04 7.355-7.347 13.823-12.983 19.466-5.637 5.58-12.097 9.956-19.443 13q-11.02 4.565-22.99 4.565a59.4 59.4 0 0 1-22.926-4.566c-7.347-3.043-13.87-7.418-19.506-12.999-5.637-5.643-9.943-12.11-12.983-19.466A59.6 59.6 0 0 1 .012 60.03q0-11.984 4.56-23.018c3.04-7.355 7.346-13.823 12.983-19.466 5.636-5.58 12.16-9.956 19.506-13A59.4 59.4 0 0 1 59.987-.018q11.97 0 22.99 4.566c7.346 3.043 13.806 7.419 19.443 12.999 5.636 5.643 9.943 12.11 12.983 19.466 3.103 7.356 4.623 15.029 4.623 23.018Zm0 0" transform="matrix(.06168 0 0 .0616 34.702 38.603)"/></g></g><use xlink:href="#n" x="37.98" y="42.761" fill="#1A1A1A"/><g clip-path="url(#o)"><g clip-path="url(#p)"><path fill="#8FD14F" stroke="#1A1A1A" stroke-width="4" d="M120.02 60.004c0 7.926-1.52 15.599-4.56 22.954s-7.41 13.824-13.047 19.467c-5.637 5.644-12.096 9.955-19.443 13q-11.02 4.565-22.99 4.565a59.4 59.4 0 0 1-22.926-4.566c-7.346-3.044-13.87-7.355-19.506-12.999-5.573-5.643-9.943-12.111-12.983-19.467a59.6 59.6 0 0 1-4.56-22.954c0-7.99 1.52-15.599 4.56-22.954s7.41-13.824 12.983-19.467c5.637-5.644 12.16-9.956 19.506-13A59.4 59.4 0 0 1 59.981.019q11.97 0 22.989 4.566c7.347 3.043 13.806 7.355 19.443 12.999 5.636 5.643 10.006 12.111 13.046 19.467s4.56 14.964 4.56 22.954Zm0 0" transform="matrix(.06168 0 0 .0616 59.375 15.198)"/></g></g><use xlink:href="#q" x="62.652" y="19.356" fill="#1A1A1A"/><g clip-path="url(#r)"><g clip-path="url(#s)"><path fill="#FEF445" stroke="#1A1A1A" stroke-width="4" d="M119.994 60.021c0 7.926-1.52 15.599-4.56 22.955s-7.41 13.823-12.983 19.466c-5.636 5.58-12.16 9.956-19.506 13a59.4 59.4 0 0 1-22.926 4.565q-11.97 0-22.99-4.566c-7.346-3.043-13.806-7.419-19.442-12.999C11.95 96.8 7.644 90.332 4.54 82.976A59.6 59.6 0 0 1-.02 60.02c0-7.99 1.52-15.662 4.56-22.954C7.644 29.71 11.95 23.18 17.587 17.6 23.223 11.957 29.683 7.581 37.03 4.538Q48.05-.028 60.02-.028c7.916 0 15.579 1.522 22.925 4.566 7.347 3.043 13.87 7.419 19.506 13.062a59.6 59.6 0 0 1 12.983 19.467c3.04 7.292 4.56 14.965 4.56 22.954Zm0 0" transform="matrix(.06168 0 0 .0616 97.614 23.822)"/></g></g><use xlink:href="#t" x="100.892" y="27.98" fill="#1A1A1A"/><g clip-path="url(#u)"><g clip-path="url(#v)"><path fill="#F24726" stroke="#1A1A1A" stroke-width="4" d="M119.985 59.992c0 7.99-1.52 15.6-4.56 22.955s-7.346 13.823-12.983 19.467c-5.636 5.643-12.16 9.955-19.506 12.999a59.4 59.4 0 0 1-22.926 4.565q-11.97 0-22.99-4.565c-7.346-3.044-13.806-7.356-19.442-13-5.637-5.643-9.944-12.11-12.983-19.466C1.49 75.59-.03 67.982-.03 59.992c0-7.926 1.52-15.598 4.624-22.954 3.04-7.356 7.346-13.823 12.983-19.467 5.636-5.643 12.096-9.955 19.442-12.999Q48.04.007 60.01.007c7.916 0 15.58 1.521 22.926 4.565 7.347 3.044 13.87 7.356 19.506 13 5.637 5.643 9.943 12.11 12.983 19.466a59.6 59.6 0 0 1 4.56 22.954Zm0 0" transform="matrix(.06168 0 0 .0616 83.428 41.07)"/></g></g><use xlink:href="#w" x="86.705" y="45.228" fill="#1A1A1A"/><g clip-path="url(#x)"><g clip-path="url(#y)"><path fill="none" stroke="#1A1A1A" stroke-width="4" d="M119.999 59.99c0 7.99-1.52 15.6-4.56 22.955a59.6 59.6 0 0 1-12.983 19.467c-5.637 5.643-12.16 9.955-19.506 12.999a59.4 59.4 0 0 1-22.926 4.565q-11.97 0-22.99-4.565c-7.346-3.044-13.806-7.356-19.443-13-5.636-5.58-10.006-12.11-13.046-19.466S-.015 67.98-.015 59.99c0-7.926 1.52-15.599 4.56-22.954s7.41-13.823 13.046-19.467c5.637-5.643 12.097-9.955 19.443-12.999Q48.054.005 60.024.005c7.916 0 15.58 1.521 22.926 4.565s13.87 7.356 19.506 13c5.573 5.643 9.943 12.11 12.983 19.466a59.6 59.6 0 0 1 4.56 22.954Zm0 0" transform="matrix(.06168 0 0 .0616 76.024 65.25)"/></g></g><g fill="#1A1A1A"><use xlink:href="#e" x="78.879" y="69.408"/><use xlink:href="#e" x="79.725" y="69.408"/></g><g clip-path="url(#z)"><g clip-path="url(#A)"><path fill="none" stroke="#1A1A1A" stroke-width="4" d="M120.016 59.978c0 7.99-1.52 15.662-4.56 22.954-3.04 7.356-7.41 13.887-13.046 19.467-5.637 5.643-12.097 10.019-19.443 13.062q-11.02 4.566-22.99 4.566a59.4 59.4 0 0 1-22.926-4.566c-7.346-3.043-13.87-7.419-19.506-13.062A59.6 59.6 0 0 1 4.562 82.932C1.522 75.64.002 67.967.002 59.978c0-7.927 1.52-15.6 4.56-22.955s7.41-13.823 12.983-19.467c5.636-5.58 12.16-9.955 19.506-12.999A59.4 59.4 0 0 1 59.977-.008q11.97 0 22.99 4.565c7.346 3.044 13.806 7.42 19.443 13 5.636 5.643 10.006 12.11 13.046 19.466a59.6 59.6 0 0 1 4.56 22.955Zm0 0" transform="matrix(.06168 0 0 .0616 71.71 86.657)"/></g></g><g fill="#1A1A1A"><use xlink:href="#e" x="74.566" y="90.815"/><use xlink:href="#B" x="75.412" y="90.815"/></g><g clip-path="url(#C)"><g clip-path="url(#D)"><path fill="none" stroke="#1A1A1A" stroke-width="4" d="M120.008 59.978c0 7.99-1.52 15.662-4.56 22.954-3.04 7.356-7.41 13.887-13.046 19.467-5.574 5.643-12.097 10.019-19.443 13.062q-11.02 4.566-22.99 4.566a59.4 59.4 0 0 1-22.926-4.566c-7.346-3.043-13.87-7.419-19.443-13.062-5.636-5.58-10.006-12.111-13.046-19.467-3.04-7.292-4.56-14.965-4.56-22.954 0-7.927 1.52-15.6 4.56-22.955S11.964 23.2 17.6 17.556A59.5 59.5 0 0 1 37.043 4.557 59.4 59.4 0 0 1 59.97-.008q11.97 0 22.99 4.565a59.5 59.5 0 0 1 19.443 13c5.636 5.643 10.006 12.11 13.046 19.466a59.6 59.6 0 0 1 4.56 22.955Zm0 0" transform="matrix(.06168 0 0 .0616 90.211 86.657)"/></g></g><g fill="#1A1A1A"><use xlink:href="#e" x="93.066" y="90.815"/><use xlink:href="#E" x="93.912" y="90.815"/></g><g clip-path="url(#F)"><g clip-path="url(#G)"><path fill="none" stroke="#1A1A1A" stroke-width="4" d="M120.016 60.027c0 7.927-1.52 15.6-4.56 22.955s-7.41 13.823-13.046 19.467c-5.637 5.58-12.097 9.955-19.443 12.999q-11.02 4.565-22.99 4.565a59.4 59.4 0 0 1-22.926-4.565c-7.346-3.044-13.87-7.42-19.506-13-5.573-5.643-9.943-12.11-12.983-19.466a59.6 59.6 0 0 1-4.56-22.955q0-11.985 4.56-23.017c3.04-7.293 7.41-13.824 12.983-19.467 5.637-5.58 12.16-9.956 19.506-13A59.4 59.4 0 0 1 59.977-.021q11.97 0 22.99 4.566c7.346 3.043 13.806 7.419 19.443 12.999 5.636 5.643 10.006 12.174 13.046 19.467q4.56 11.033 4.56 23.017Zm0 0" transform="matrix(.06168 0 0 .0616 113.652 80.634)"/></g></g><use xlink:href="#B" x="116.93" y="84.792" fill="#1A1A1A"/><g clip-path="url(#H)"><g clip-path="url(#I)"><path fill="#FEF445" stroke="#1A1A1A" stroke-width="4" d="M120.007 60.021c0 7.926-1.52 15.6-4.56 22.955s-7.41 13.823-13.046 19.466a59.5 59.5 0 0 1-19.443 13 59.4 59.4 0 0 1-22.926 4.565q-11.97 0-22.99-4.566A59.5 59.5 0 0 1 17.6 102.442C11.963 96.8 7.593 90.332 4.553 82.976A59.6 59.6 0 0 1-.007 60.02c0-7.99 1.52-15.662 4.56-22.954 3.04-7.356 7.41-13.887 13.046-19.467 5.573-5.643 12.097-10.019 19.443-13.062q11.02-4.566 22.99-4.566c7.916 0 15.58 1.522 22.926 4.566S96.828 11.957 102.4 17.6c5.636 5.58 10.006 12.111 13.046 19.467 3.04 7.292 4.56 14.965 4.56 22.954Zm0 0" transform="matrix(.06168 0 0 .0616 99.465 54.01)"/></g></g><use xlink:href="#J" x="102.743" y="58.168" fill="#1A1A1A"/><path fill="none" stroke="#333" stroke-width="2" d="M229.976 312.267C229.976 157.103.018 155.137.018-.026" transform="matrix(.06168 0 0 .0616 103.167 61.396)"/><path fill="none" stroke="#333" stroke-width="2" d="M.021-.021c100.951 0 39.013 210.013 139.964 210.013" transform="matrix(.06168 0 0 .0616 90.83 44.767)"/><path fill="none" stroke="#333" stroke-width="2" d="M-.02 97.728C111.128 97.728 148.874.014 260.021.014" transform="matrix(.06168 0 0 .0616 97.614 84.331)"/><path fill="none" stroke="#333" stroke-width="2" d="M-.012.027h179.99" transform="matrix(.06168 0 0 .0616 79.114 90.354)"/><path fill="none" stroke="#333" stroke-width="2" d="M230.031 227.463C230.031 98.107.01 129.368.01.013" transform="matrix(.06168 0 0 .0616 79.726 72.644)"/><path fill="none" stroke="#333" stroke-width="2" d="M.027 227.463C.027 132.285 70.008 95.19 70.008.013" transform="matrix(.06168 0 0 .0616 75.412 72.644)"/><path fill="none" stroke="#333" stroke-width="2" d="M-.03.014C141.517.014 198.516 97.728 340 97.728" transform="matrix(.06168 0 0 .0616 50.74 84.331)"/><path fill="none" stroke="#333" stroke-width="2" d="M610.011 372.486C610.011 86.634 285.878.016-.002.016" transform="matrix(.06168 0 0 .0616 42.106 42.3)"/><path fill="none" stroke="#333" stroke-width="2" d="M.02.005c118.43 0 171.503 59.985 289.997 59.985" transform="matrix(.06168 0 0 .0616 58.143 65.25)"/><path fill="none" stroke="#333" stroke-width="2" d="M.021 220.012c111.211 0 169.983-108.812 169.983-220.033" transform="matrix(.06168 0 0 .0616 90.83 31.216)"/><path fill="none" stroke="#333" stroke-width="2" d="M.03.026c0 196.76 389.998 103.167 389.998 299.992" transform="matrix(.06168 0 0 .0616 63.076 22.592)"/><path fill="none" stroke="#333" stroke-width="2" d="M669.986 40.028C401.523 40.028 268.462.017-.002.017" transform="matrix(.06168 0 0 .0616 42.106 42.3)"/><path fill="none" stroke="#333" stroke-width="2" d="M-.008-.01C207.72-.01 292.332 140 499.997 140" transform="matrix(.06168 0 0 .0616 66.778 18.895)"/><path fill="none" stroke="#333" stroke-width="2" d="M-.027 320.02C-.027 133.214 153.237-.01 340.003-.01" transform="matrix(.06168 0 0 .0616 38.404 18.895)"/><path fill="none" stroke="#333" stroke-width="2" d="M260.014 252.487c0-144.955-260.04-107.48-260.04-252.498" transform="matrix(.06168 0 0 .0616 38.404 45.997)"/><path fill="none" stroke="#333" stroke-width="2" d="M.009 189.762c0-89.851 120.013-99.934 120.013-189.785" transform="matrix(.06168 0 0 .0616 47.039 68.947)"/><path fill="none" stroke="#333" stroke-width="2" d="M-.009-.03c169.73 0 250.288 60.048 420.018 60.048" transform="matrix(.06168 0 0 .0616 24.836 61.553)"/><path fill="none" stroke="#333" stroke-width="2" d="M360.008 309.762C170.013 309.762.03 189.98.03.005" transform="matrix(.06168 0 0 .0616 21.135 65.25)"/><g clip-path="url(#K)"><g clip-path="url(#L)"><path fill="none" stroke="#1A1A1A" stroke-width="4" d="M120.03 60.02c0 7.926-1.582 15.599-4.622 22.954s-7.347 13.824-12.983 19.467c-5.637 5.58-12.097 9.955-19.443 13q-11.02 4.565-22.99 4.565c-7.98 0-15.58-1.522-22.926-4.566s-13.87-7.419-19.506-12.999C11.923 96.798 7.617 90.33 4.577 82.974A59.6 59.6 0 0 1 .017 60.02c0-7.99 1.52-15.599 4.56-22.955S11.923 23.18 17.56 17.6c5.636-5.644 12.16-9.956 19.506-13.063C44.413 1.492 52.012-.029 59.992-.029q11.97 0 22.99 4.565c7.346 3.107 13.806 7.42 19.443 13.063 5.636 5.58 9.943 12.11 12.983 19.466s4.623 14.965 4.623 22.955Zm0 0" transform="matrix(.06168 0 0 .0616 138.936 73.24)"/></g></g><use xlink:href="#k" x="142.214" y="77.398" fill="#1A1A1A"/><path fill="none" stroke="#333" stroke-width="2" d="M-.012 119.978C125.512 119.978 164.461.006 289.985.006" transform="matrix(.06168 0 0 .0616 121.055 76.937)"/><g clip-path="url(#M)"><g clip-path="url(#N)"><path fill="none" stroke="#1A1A1A" stroke-width="4" d="M119.987 60.028c0 7.926-1.52 15.599-4.56 22.954s-7.347 13.824-12.983 19.467c-5.637 5.58-12.16 9.955-19.506 12.999a59.4 59.4 0 0 1-22.927 4.566q-11.97 0-22.989-4.566c-7.346-3.044-13.806-7.419-19.443-12.999-5.636-5.643-9.943-12.111-12.983-19.467C1.493 75.627-.027 67.954-.027 60.028c0-7.99 1.52-15.662 4.623-23.018 3.04-7.292 7.347-13.823 12.983-19.467 5.637-5.58 12.097-9.955 19.443-12.999Q48.042-.02 60.012-.02c7.916 0 15.58 1.521 22.926 4.565s13.87 7.42 19.506 13c5.636 5.643 9.943 12.174 12.983 19.466q4.56 11.033 4.56 23.018Zm0 0" transform="matrix(.06168 0 0 .0616 131.54 44.767)"/></g></g><use xlink:href="#h" x="134.818" y="48.925" fill="#1A1A1A"/><path fill="none" stroke="#333" stroke-width="2" d="M-.02 149.978C170.848 149.978 229.113.014 399.983.014" transform="matrix(.06168 0 0 .0616 106.868 48.464)"/><path fill="none" stroke="#333" stroke-width="2" d="M.027 522.258C.027 293.982 1.737.014 229.985.014" transform="matrix(.06168 0 0 .0616 117.354 48.464)"/><path fill="none" stroke="#333" stroke-width="2" d="M.03.007c225.715 0 490 54.28 490 280.019" transform="matrix(.06168 0 0 .0616 105.018 27.52)"/><path fill="none" stroke="#333" stroke-width="2" d="M120.011 342.273C120.011 197.19-.002 145.068-.002-.014" transform="matrix(.06168 0 0 .0616 135.242 52.161)"/><g clip-path="url(#O)"><g clip-path="url(#P)"><path fill="none" stroke="#1A1A1A" stroke-width="4" d="M120.019 60.02c0 7.927-1.52 15.6-4.56 22.955-3.04 7.356-7.41 13.823-13.046 19.467-5.637 5.58-12.097 9.955-19.443 12.999q-11.02 4.565-22.99 4.565a59.4 59.4 0 0 1-22.926-4.565c-7.346-3.044-13.87-7.419-19.506-12.999-5.573-5.644-9.943-12.111-12.983-19.467a59.6 59.6 0 0 1-4.56-22.954c0-7.99 1.52-15.662 4.56-22.955A59.6 59.6 0 0 1 17.548 17.6c5.636-5.644 12.16-10.02 19.506-13.063A59.4 59.4 0 0 1 59.98-.028q11.97 0 22.99 4.565c7.346 3.044 13.806 7.419 19.443 13.063 5.636 5.58 10.006 12.11 13.046 19.466 3.04 7.293 4.56 14.965 4.56 22.955Zm0 0" transform="matrix(.06168 0 0 .0616 17.433 153.822)"/></g></g><use xlink:href="#e" x="20.711" y="157.98" fill="#1A1A1A"/><g clip-path="url(#Q)"><g clip-path="url(#R)"><path fill="none" stroke="#1A1A1A" stroke-width="4" d="M119.998 60.002c0 7.926-1.52 15.598-4.56 22.954s-7.41 13.823-12.983 19.467c-5.637 5.643-12.16 9.955-19.507 12.999a59.4 59.4 0 0 1-22.926 4.565q-11.97 0-22.99-4.565c-7.346-3.044-13.806-7.356-19.442-13-5.637-5.643-10.007-12.11-13.047-19.466a59.6 59.6 0 0 1-4.56-22.954c0-7.99 1.52-15.6 4.56-22.955s7.41-13.823 13.047-19.467c5.636-5.643 12.096-9.955 19.443-12.999Q48.053.016 60.023.016c7.916 0 15.579 1.522 22.925 4.565 7.347 3.044 13.87 7.356 19.507 13 5.573 5.643 9.943 12.11 12.983 19.466s4.56 14.965 4.56 22.955Zm0 0" transform="matrix(.06168 0 0 .0616 43.337 176.6)"/></g></g><g fill="#1A1A1A"><use xlink:href="#e" x="46.192" y="180.759"/><use xlink:href="#h" x="47.038" y="180.759"/></g><g clip-path="url(#S)"><g clip-path="url(#T)"><path fill="#8FD14F" stroke="#1A1A1A" stroke-width="4" d="M119.984 59.993c0 7.99-1.52 15.598-4.56 22.954s-7.346 13.823-12.983 19.467c-5.636 5.643-12.16 9.955-19.506 12.999a59.4 59.4 0 0 1-22.926 4.565q-11.97 0-22.99-4.565c-7.346-3.044-13.806-7.356-19.443-13-5.636-5.643-9.943-12.11-12.983-19.466S-.03 67.982-.03 59.993c0-7.927 1.583-15.6 4.623-22.955s7.347-13.823 12.983-19.467S29.673 7.616 37.02 4.572Q48.04.007 60.01.007c7.916 0 15.58 1.522 22.926 4.565s13.87 7.356 19.506 13c5.637 5.643 9.943 12.11 12.983 19.466a59.6 59.6 0 0 1 4.56 22.955Zm0 0" transform="matrix(.06168 0 0 .0616 50.74 157.52)"/></g></g><g fill="#1A1A1A"><use xlink:href="#e" x="53.595" y="161.677"/><use xlink:href="#k" x="54.441" y="161.677"/></g><g clip-path="url(#U)"><g clip-path="url(#V)"><path fill="#FEF445" stroke="#1A1A1A" stroke-width="4" d="M120.026 60.005c0 7.926-1.52 15.598-4.623 22.954-3.04 7.355-7.347 13.823-12.983 19.467s-12.097 9.955-19.443 12.999q-11.02 4.565-22.99 4.565a59.4 59.4 0 0 1-22.926-4.565c-7.347-3.044-13.87-7.356-19.506-13-5.637-5.643-9.943-12.11-12.983-19.466a59.6 59.6 0 0 1-4.56-22.954c0-7.99 1.52-15.6 4.56-22.955s7.346-13.823 12.983-19.467C23.19 11.94 29.715 7.628 37.06 4.584A59.4 59.4 0 0 1 59.987.02q11.97 0 22.99 4.565c7.346 3.044 13.806 7.356 19.443 13 5.636 5.643 9.943 12.11 12.983 19.466 3.103 7.356 4.623 14.965 4.623 22.955Zm0 0" transform="matrix(.06168 0 0 .0616 34.702 134.57)"/></g></g><use xlink:href="#n" x="37.98" y="138.727" fill="#1A1A1A"/><g clip-path="url(#W)"><g clip-path="url(#X)"><path fill="#8FD14F" stroke="#1A1A1A" stroke-width="4" d="M120.02 59.972q0 11.985-4.56 23.018c-3.04 7.292-7.41 13.823-13.047 19.467-5.637 5.58-12.096 9.955-19.443 12.999q-11.02 4.566-22.99 4.565a59.4 59.4 0 0 1-22.926-4.565c-7.346-3.044-13.87-7.419-19.506-13-5.573-5.643-9.943-12.174-12.983-19.466Q.005 71.957.005 59.972c0-7.926 1.52-15.599 4.56-22.954s7.41-13.823 12.983-19.467c5.637-5.58 12.16-9.955 19.506-12.999A59.4 59.4 0 0 1 59.981-.013q11.97 0 22.989 4.565c7.347 3.044 13.806 7.419 19.443 13 5.636 5.643 10.006 12.11 13.046 19.466a59.6 59.6 0 0 1 4.56 22.954Zm0 0" transform="matrix(.06168 0 0 .0616 59.375 111.157)"/></g></g><use xlink:href="#q" x="62.652" y="115.315" fill="#1A1A1A"/><g clip-path="url(#Y)"><g clip-path="url(#Z)"><path fill="#FEF445" stroke="#1A1A1A" stroke-width="4" d="M119.994 59.99c0 7.99-1.52 15.599-4.56 22.954a59.6 59.6 0 0 1-12.983 19.467c-5.636 5.643-12.16 9.955-19.506 12.999a59.4 59.4 0 0 1-22.926 4.565q-11.97 0-22.99-4.565c-7.346-3.044-13.806-7.356-19.442-13C11.95 96.83 7.644 90.3 4.54 82.945 1.5 75.59-.02 67.98-.02 59.99c0-7.927 1.52-15.6 4.56-22.955 3.104-7.355 7.41-13.823 13.047-19.467C23.223 11.925 29.683 7.613 37.03 4.57Q48.05.004 60.02.004c7.916 0 15.579 1.522 22.925 4.565 7.347 3.044 13.87 7.356 19.506 13 5.574 5.643 9.944 12.11 12.983 19.466a59.6 59.6 0 0 1 4.56 22.955Zm0 0" transform="matrix(.06168 0 0 .0616 97.614 119.781)"/></g></g><use xlink:href="#t" x="100.892" y="123.939" fill="#1A1A1A"/><g clip-path="url(#aa)"><g clip-path="url(#ab)"><path fill="#F24726" stroke="#1A1A1A" stroke-width="4" d="M119.985 60.03c0 7.926-1.52 15.599-4.56 22.954s-7.346 13.824-12.983 19.467c-5.636 5.58-12.16 9.956-19.506 13a59.4 59.4 0 0 1-22.926 4.565q-11.97 0-22.99-4.566c-7.346-3.043-13.806-7.419-19.442-12.999C11.94 96.808 7.634 90.34 4.595 82.984 1.49 75.63-.03 67.956-.03 60.03c0-7.99 1.52-15.662 4.624-23.018 3.04-7.355 7.346-13.823 12.983-19.467 5.636-5.58 12.096-9.955 19.442-12.999Q48.04-.019 60.01-.019c7.916 0 15.58 1.522 22.926 4.565 7.347 3.044 13.87 7.42 19.506 13 5.637 5.643 9.943 12.11 12.983 19.466q4.56 11.033 4.56 23.018Zm0 0" transform="matrix(.06168 0 0 .0616 83.428 137.036)"/></g></g><use xlink:href="#w" x="86.705" y="141.195" fill="#1A1A1A"/><g clip-path="url(#ac)"><g clip-path="url(#ad)"><path fill="#F24726" stroke="#1A1A1A" stroke-width="4" d="M119.999 60.028c0 7.926-1.52 15.599-4.56 22.954s-7.41 13.824-12.983 19.467c-5.637 5.58-12.16 9.956-19.506 13a59.4 59.4 0 0 1-22.926 4.565q-11.97 0-22.99-4.566c-7.346-3.043-13.806-7.419-19.443-12.999-5.636-5.643-10.006-12.111-13.046-19.467a59.6 59.6 0 0 1-4.56-22.954q0-11.984 4.56-23.018c3.04-7.292 7.41-13.823 13.046-19.467 5.637-5.58 12.097-9.955 19.443-12.999Q48.054-.02 60.024-.02c7.916 0 15.58 1.522 22.926 4.565s13.87 7.42 19.506 13c5.573 5.643 9.943 12.174 12.983 19.466q4.56 11.033 4.56 23.018Zm0 0" transform="matrix(.06168 0 0 .0616 76.024 161.216)"/></g></g><g fill="#1A1A1A"><use xlink:href="#e" x="78.879" y="165.374"/><use xlink:href="#e" x="79.725" y="165.374"/></g><g clip-path="url(#ae)"><g clip-path="url(#af)"><path fill="#FEF445" stroke="#1A1A1A" stroke-width="4" d="M120.016 60.01c0 7.926-1.52 15.598-4.56 22.954s-7.41 13.823-13.046 19.467c-5.637 5.643-12.097 9.955-19.443 12.999q-11.02 4.565-22.99 4.565a59.4 59.4 0 0 1-22.926-4.565c-7.346-3.044-13.87-7.356-19.506-13-5.573-5.643-9.943-12.11-12.983-19.466a59.6 59.6 0 0 1-4.56-22.955c0-7.99 1.52-15.599 4.56-22.954a59.6 59.6 0 0 1 12.983-19.467C23.18 11.945 29.705 7.633 37.05 4.59A59.4 59.4 0 0 1 59.977.024q11.97 0 22.99 4.565c7.346 3.044 13.806 7.356 19.443 13 5.636 5.58 10.006 12.11 13.046 19.466 3.04 7.355 4.56 14.965 4.56 22.954Zm0 0" transform="matrix(.06168 0 0 .0616 71.71 182.616)"/></g></g><g fill="#1A1A1A"><use xlink:href="#e" x="74.566" y="186.774"/><use xlink:href="#B" x="75.412" y="186.774"/></g><g clip-path="url(#ag)"><g clip-path="url(#ah)"><path fill="#8FD14F" stroke="#1A1A1A" stroke-width="4" d="M120.008 60.01c0 7.926-1.52 15.598-4.56 22.954s-7.41 13.823-13.046 19.467c-5.574 5.643-12.097 9.955-19.443 12.999q-11.02 4.565-22.99 4.565a59.4 59.4 0 0 1-22.926-4.565c-7.346-3.044-13.87-7.356-19.443-13-5.636-5.643-10.006-12.11-13.046-19.466a59.6 59.6 0 0 1-4.56-22.955c0-7.99 1.52-15.599 4.56-22.954s7.41-13.887 13.046-19.467c5.573-5.643 12.097-9.955 19.443-12.999A59.4 59.4 0 0 1 59.97.024q11.97 0 22.99 4.565c7.346 3.044 13.87 7.356 19.443 13 5.636 5.58 10.006 12.11 13.046 19.466 3.04 7.355 4.56 14.965 4.56 22.954Zm0 0" transform="matrix(.06168 0 0 .0616 90.211 182.616)"/></g></g><g fill="#1A1A1A"><use xlink:href="#e" x="93.066" y="186.774"/><use xlink:href="#E" x="93.912" y="186.774"/></g><g clip-path="url(#ai)"><g clip-path="url(#aj)"><path fill="none" stroke="#1A1A1A" stroke-width="4" d="M120.016 60.002c0 7.926-1.52 15.598-4.56 22.954s-7.41 13.823-13.046 19.467c-5.637 5.643-12.097 9.955-19.443 12.999q-11.02 4.565-22.99 4.565a59.4 59.4 0 0 1-22.926-4.565c-7.346-3.044-13.87-7.356-19.506-13-5.573-5.643-9.943-12.11-12.983-19.466a59.6 59.6 0 0 1-4.56-22.954c0-7.99 1.52-15.6 4.56-22.955s7.41-13.823 12.983-19.467c5.637-5.643 12.16-9.955 19.506-12.999A59.4 59.4 0 0 1 59.977.016q11.97 0 22.99 4.565c7.346 3.044 13.806 7.356 19.443 13 5.636 5.643 10.006 12.11 13.046 19.466s4.56 14.965 4.56 22.955Zm0 0" transform="matrix(.06168 0 0 .0616 113.652 176.6)"/></g></g><use xlink:href="#B" x="116.93" y="180.759" fill="#1A1A1A"/><g clip-path="url(#ak)"><g clip-path="url(#al)"><path fill="#FEF445" stroke="#1A1A1A" stroke-width="4" d="M120.007 59.99c0 7.99-1.52 15.599-4.56 22.954s-7.41 13.887-13.046 19.467c-5.574 5.644-12.097 9.955-19.443 13a59.4 59.4 0 0 1-22.926 4.565q-11.97 0-22.99-4.566c-7.346-3.044-13.87-7.355-19.443-12.999C11.963 96.831 7.593 90.3 4.553 82.944S-.007 67.98-.007 59.99c0-7.926 1.52-15.599 4.56-22.955s7.41-13.823 13.046-19.466c5.573-5.644 12.097-9.956 19.443-13Q48.062.005 60.032.005c7.916 0 15.58 1.522 22.926 4.566s13.87 7.355 19.443 12.999c5.636 5.643 10.006 12.11 13.046 19.466a59.6 59.6 0 0 1 4.56 22.955Zm0 0" transform="matrix(.06168 0 0 .0616 99.465 149.968)"/></g></g><use xlink:href="#J" x="102.743" y="154.127" fill="#1A1A1A"/><path fill="none" stroke="#333" stroke-width="2" d="M229.976 312.242C229.976 157.142.018 155.112.018.012" transform="matrix(.06168 0 0 .0616 103.167 157.363)"/><path fill="none" stroke="#333" stroke-width="2" d="M.021.01c100.951 0 39.013 210.014 139.964 210.014" transform="matrix(.06168 0 0 .0616 90.83 140.726)"/><path fill="none" stroke="#333" stroke-width="2" d="M-.02 97.76c111.148 0 148.894-97.778 260.041-97.778" transform="matrix(.06168 0 0 .0616 97.614 180.29)"/><path fill="none" stroke="#333" stroke-width="2" d="M-.012-.004h179.99" transform="matrix(.06168 0 0 .0616 79.114 186.313)"/><path fill="none" stroke="#333" stroke-width="2" d="M230.031 227.495C230.031 98.075.01 129.4.01-.019" transform="matrix(.06168 0 0 .0616 79.726 168.603)"/><path fill="none" stroke="#333" stroke-width="2" d="M.027 227.495c0-95.241 69.981-132.273 69.981-227.514" transform="matrix(.06168 0 0 .0616 75.412 168.603)"/><path fill="none" stroke="#333" stroke-width="2" d="M-.03-.018C141.517-.018 198.516 97.76 340 97.76" transform="matrix(.06168 0 0 .0616 50.74 180.29)"/><path fill="none" stroke="#333" stroke-width="2" d="M610.011 372.524C610.011 86.609 285.878-.01-.002-.01" transform="matrix(.06168 0 0 .0616 42.106 138.266)"/><path fill="none" stroke="#333" stroke-width="2" d="M.02-.021c118.43 0 171.503 60.05 289.997 60.05" transform="matrix(.06168 0 0 .0616 58.143 161.216)"/><path fill="none" stroke="#333" stroke-width="2" d="M.021 219.98c111.211 0 169.983-108.748 169.983-219.969" transform="matrix(.06168 0 0 .0616 90.83 127.175)"/><path fill="none" stroke="#333" stroke-width="2" d="M.03-.006c0 196.824 389.998 103.168 389.998 299.992" transform="matrix(.06168 0 0 .0616 63.076 118.551)"/><path fill="none" stroke="#333" stroke-width="2" d="M669.986 40.002C401.523 40.002 268.462-.009-.002-.009" transform="matrix(.06168 0 0 .0616 42.106 138.266)"/><path fill="none" stroke="#333" stroke-width="2" d="M-.008.022c207.728 0 292.34 140.01 500.005 140.01" transform="matrix(.06168 0 0 .0616 66.778 114.854)"/><path fill="none" stroke="#333" stroke-width="2" d="M-.027 319.988C-.027 133.246 153.237.022 340.003.022" transform="matrix(.06168 0 0 .0616 38.404 114.854)"/><path fill="none" stroke="#333" stroke-width="2" d="M260.014 252.524C260.014 107.506-.026 144.981-.026.026" transform="matrix(.06168 0 0 .0616 38.404 141.963)"/><path fill="none" stroke="#333" stroke-width="2" d="M.009 189.73C.009 99.943 120.022 89.798 120.022.009" transform="matrix(.06168 0 0 .0616 47.039 164.906)"/><path fill="none" stroke="#333" stroke-width="2" d="M-.009.007c169.73 0 250.288 59.986 420.018 59.986" transform="matrix(.06168 0 0 .0616 24.836 157.52)"/><path fill="none" stroke="#333" stroke-width="2" d="M360.008 309.736C170.013 309.736.03 189.955.03-.02" transform="matrix(.06168 0 0 .0616 21.135 161.216)"/><g clip-path="url(#am)"><g clip-path="url(#an)"><path fill="none" stroke="#1A1A1A" stroke-width="4" d="M120.03 59.994c0 7.99-1.582 15.599-4.622 22.955s-7.347 13.823-12.983 19.466-12.097 9.956-19.443 13q-11.02 4.565-22.99 4.565c-7.98 0-15.58-1.522-22.926-4.566s-13.87-7.355-19.506-12.999c-5.637-5.643-9.943-12.11-12.983-19.466S.017 67.984.017 59.994c0-7.926 1.52-15.599 4.56-22.954s7.346-13.824 12.983-19.467c5.636-5.644 12.16-9.955 19.506-12.999C44.413 1.53 52.012.008 59.992.008q11.97 0 22.99 4.566c7.346 3.044 13.806 7.355 19.443 12.999 5.636 5.643 9.943 12.111 12.983 19.467s4.623 15.028 4.623 22.954Zm0 0" transform="matrix(.06168 0 0 .0616 138.936 169.207)"/></g></g><use xlink:href="#k" x="142.214" y="173.365" fill="#1A1A1A"/><path fill="none" stroke="#333" stroke-width="2" d="M-.012 120.015C125.512 120.015 164.461-.02 289.985-.02" transform="matrix(.06168 0 0 .0616 121.055 172.904)"/><g clip-path="url(#ao)"><g clip-path="url(#ap)"><path fill="none" stroke="#1A1A1A" stroke-width="4" d="M119.987 59.996c0 7.99-1.52 15.599-4.56 22.955s-7.347 13.823-12.983 19.466-12.16 9.956-19.506 13a59.4 59.4 0 0 1-22.927 4.565q-11.97 0-22.989-4.566c-7.346-3.043-13.806-7.355-19.443-12.999-5.636-5.643-9.943-12.11-12.983-19.466C1.493 75.595-.027 67.986-.027 59.996c0-7.926 1.52-15.599 4.623-22.954 3.04-7.356 7.347-13.824 12.983-19.467 5.637-5.644 12.097-9.955 19.443-13Q48.042.01 60.012.01c7.916 0 15.58 1.522 22.926 4.566s13.87 7.355 19.506 12.999c5.636 5.643 9.943 12.111 12.983 19.467a59.6 59.6 0 0 1 4.56 22.954Zm0 0" transform="matrix(.06168 0 0 .0616 131.54 140.726)"/></g></g><use xlink:href="#h" x="134.818" y="144.884" fill="#1A1A1A"/><path fill="none" stroke="#333" stroke-width="2" d="M-.02 150.01C170.848 150.01 229.113-.018 399.983-.018" transform="matrix(.06168 0 0 .0616 106.868 144.423)"/><path fill="none" stroke="#333" stroke-width="2" d="M.027 522.226C.027 294.014 1.737-.018 229.985-.018" transform="matrix(.06168 0 0 .0616 117.354 144.423)"/><path fill="none" stroke="#333" stroke-width="2" d="M.03-.024c225.715 0 490 54.279 490 280.018" transform="matrix(.06168 0 0 .0616 105.018 123.478)"/><path fill="none" stroke="#333" stroke-width="2" d="M120.011 342.241C120.011 197.16-.002 145.1-.002.018" transform="matrix(.06168 0 0 .0616 135.242 148.12)"/><g clip-path="url(#aq)"><g clip-path="url(#ar)"><path fill="none" stroke="#1A1A1A" stroke-width="4" d="M120.019 59.973q0 11.985-4.56 23.018c-3.04 7.292-7.41 13.823-13.046 19.467-5.637 5.58-12.097 9.955-19.443 12.999q-11.02 4.565-22.99 4.565a59.4 59.4 0 0 1-22.926-4.565c-7.346-3.044-13.87-7.42-19.506-13-5.573-5.643-9.943-12.174-12.983-19.466Q.005 71.957.005 59.973c0-7.926 1.52-15.599 4.56-22.954s7.41-13.824 12.983-19.467c5.636-5.58 12.16-9.956 19.506-13A59.4 59.4 0 0 1 59.98-.012q11.97 0 22.99 4.566c7.346 3.043 13.806 7.419 19.443 12.999 5.636 5.643 10.006 12.111 13.046 19.467a59.6 59.6 0 0 1 4.56 22.954Zm0 0" transform="matrix(.06168 0 0 .0616 17.433 249.923)"/></g></g><use xlink:href="#e" x="20.711" y="254.081" fill="#1A1A1A"/><g clip-path="url(#as)"><g clip-path="url(#at)"><path fill="none" stroke="#1A1A1A" stroke-width="4" d="M119.998 60.018c0 7.926-1.52 15.598-4.56 22.954s-7.41 13.823-12.983 19.467c-5.637 5.643-12.16 9.955-19.507 12.999a59.4 59.4 0 0 1-22.926 4.565q-11.97 0-22.99-4.565c-7.346-3.044-13.806-7.356-19.442-13-5.637-5.643-10.007-12.11-13.047-19.466a59.6 59.6 0 0 1-4.56-22.954c0-7.99 1.52-15.6 4.56-22.955s7.41-13.886 13.047-19.467c5.636-5.643 12.096-9.955 19.443-12.999 7.346-3.043 15.01-4.629 22.99-4.629 7.916 0 15.579 1.586 22.925 4.63 7.347 3.043 13.87 7.355 19.507 12.998a59.6 59.6 0 0 1 12.983 19.467c3.04 7.356 4.56 14.965 4.56 22.955Zm0 0" transform="matrix(.06168 0 0 .0616 43.337 272.701)"/></g></g><g fill="#1A1A1A"><use xlink:href="#e" x="46.192" y="276.859"/><use xlink:href="#h" x="47.038" y="276.859"/></g><g clip-path="url(#au)"><g clip-path="url(#av)"><path fill="#8FD14F" stroke="#1A1A1A" stroke-width="4" d="M119.984 60.008c0 7.926-1.52 15.599-4.56 22.954s-7.346 13.824-12.983 19.467c-5.636 5.644-12.16 9.956-19.506 13a59.4 59.4 0 0 1-22.926 4.565q-11.97 0-22.99-4.566c-7.346-3.043-13.806-7.355-19.443-12.999-5.636-5.643-9.943-12.111-12.983-19.467S-.03 67.934-.03 60.008c0-7.99 1.583-15.599 4.623-22.954S11.94 23.23 17.576 17.587c5.637-5.644 12.097-9.956 19.443-13Q48.04.023 60.01.023c7.916 0 15.58 1.522 22.926 4.566s13.87 7.355 19.506 12.999c5.637 5.643 9.943 12.111 12.983 19.467s4.56 14.964 4.56 22.954Zm0 0" transform="matrix(.06168 0 0 .0616 50.74 253.62)"/></g></g><g fill="#1A1A1A"><use xlink:href="#e" x="53.595" y="257.778"/><use xlink:href="#k" x="54.441" y="257.778"/></g><g clip-path="url(#aw)"><g clip-path="url(#ax)"><path fill="#FEF445" stroke="#1A1A1A" stroke-width="4" d="M120.026 60.02c0 7.926-1.52 15.599-4.623 22.955-3.04 7.355-7.347 13.823-12.983 19.466-5.637 5.58-12.097 9.956-19.443 13q-11.02 4.565-22.99 4.565a59.4 59.4 0 0 1-22.926-4.566c-7.347-3.043-13.87-7.419-19.506-12.999-5.637-5.643-9.943-12.11-12.983-19.466A59.6 59.6 0 0 1 .012 60.02c0-7.99 1.52-15.599 4.56-22.954s7.346-13.887 12.983-19.467c5.636-5.644 12.16-9.955 19.506-13.062A59.4 59.4 0 0 1 59.987-.03q11.97 0 22.99 4.566c7.346 3.107 13.806 7.418 19.443 13.062 5.636 5.58 9.943 12.111 12.983 19.467 3.103 7.355 4.623 14.965 4.623 22.954Zm0 0" transform="matrix(.06168 0 0 .0616 34.702 230.67)"/></g></g><use xlink:href="#n" x="37.98" y="234.828" fill="#1A1A1A"/><g clip-path="url(#ay)"><g clip-path="url(#az)"><path fill="#8FD14F" stroke="#1A1A1A" stroke-width="4" d="M120.02 59.988c0 7.99-1.52 15.599-4.56 22.954s-7.41 13.887-13.047 19.467c-5.637 5.644-12.096 9.956-19.443 13q-11.02 4.565-22.99 4.565a59.4 59.4 0 0 1-22.926-4.566c-7.346-3.043-13.87-7.355-19.506-12.999A59.6 59.6 0 0 1 4.565 82.942C1.525 75.587.005 67.978.005 59.988c0-7.926 1.52-15.599 4.56-22.954s7.41-13.824 12.983-19.467c5.637-5.644 12.16-9.956 19.506-13A59.4 59.4 0 0 1 59.981.003q11.97 0 22.989 4.566c7.347 3.043 13.806 7.355 19.443 12.999 5.636 5.643 10.006 12.111 13.046 19.467a59.6 59.6 0 0 1 4.56 22.954Zm0 0" transform="matrix(.06168 0 0 .0616 59.375 207.258)"/></g></g><use xlink:href="#q" x="62.652" y="211.416" fill="#1A1A1A"/><g clip-path="url(#aA)"><g clip-path="url(#aB)"><path fill="#FEF445" stroke="#1A1A1A" stroke-width="4" d="M119.994 60.005c0 7.927-1.52 15.6-4.56 22.955s-7.41 13.823-12.983 19.467c-5.636 5.643-12.16 9.955-19.506 12.999a59.4 59.4 0 0 1-22.926 4.565q-11.97 0-22.99-4.565c-7.346-3.044-13.806-7.356-19.442-13C11.95 96.784 7.644 90.317 4.54 82.96A59.6 59.6 0 0 1-.02 60.005c0-7.99 1.52-15.598 4.56-22.954 3.104-7.356 7.41-13.823 13.047-19.467C23.223 11.941 29.683 7.63 37.03 4.585Q48.05.02 60.02.02c7.916 0 15.579 1.521 22.925 4.565 7.347 3.044 13.87 7.356 19.506 13 5.574 5.643 9.944 12.11 12.983 19.466 3.04 7.356 4.56 14.965 4.56 22.954Zm0 0" transform="matrix(.06168 0 0 .0616 97.614 215.882)"/></g></g><use xlink:href="#t" x="100.892" y="220.04" fill="#1A1A1A"/><g clip-path="url(#aC)"><g clip-path="url(#aD)"><path fill="#F24726" stroke="#1A1A1A" stroke-width="4" d="M119.985 59.982c0 7.99-1.52 15.6-4.56 22.955s-7.346 13.886-12.983 19.466c-5.636 5.644-12.16 9.956-19.506 13-7.346 3.043-15.01 4.628-22.926 4.628-7.98 0-15.643-1.585-22.99-4.628s-13.806-7.356-19.442-13c-5.637-5.58-9.944-12.11-12.983-19.466C1.49 75.58-.03 67.972-.03 59.982c0-7.926 1.52-15.599 4.624-22.954 3.04-7.356 7.346-13.823 12.983-19.467 5.636-5.643 12.096-9.955 19.442-12.999Q48.04-.003 60.01-.003c7.916 0 15.58 1.521 22.926 4.565 7.347 3.044 13.87 7.356 19.506 13 5.637 5.643 9.943 12.11 12.983 19.466a59.6 59.6 0 0 1 4.56 22.954Zm0 0" transform="matrix(.06168 0 0 .0616 83.428 233.137)"/></g></g><use xlink:href="#w" x="86.705" y="237.295" fill="#1A1A1A"/><g clip-path="url(#aE)"><g clip-path="url(#aF)"><path fill="#F24726" stroke="#1A1A1A" stroke-width="4" d="M119.999 59.98c0 7.99-1.52 15.599-4.56 22.954a59.6 59.6 0 0 1-12.983 19.467c-5.637 5.644-12.16 9.956-19.506 13.063a59.4 59.4 0 0 1-22.926 4.565q-11.97 0-22.99-4.565c-7.346-3.107-13.806-7.42-19.443-13.063-5.636-5.58-10.006-12.111-13.046-19.467S-.015 67.97-.015 59.98c0-7.926 1.52-15.599 4.56-22.954s7.41-13.824 13.046-19.467c5.637-5.58 12.097-9.956 19.443-13q11.02-4.565 22.99-4.565c7.916 0 15.58 1.522 22.926 4.566s13.87 7.419 19.506 12.999c5.573 5.643 9.943 12.111 12.983 19.467a59.6 59.6 0 0 1 4.56 22.954Zm0 0" transform="matrix(.06168 0 0 .0616 76.024 257.317)"/></g></g><g fill="#1A1A1A"><use xlink:href="#e" x="78.879" y="261.475"/><use xlink:href="#e" x="79.725" y="261.475"/></g><g clip-path="url(#aG)"><g clip-path="url(#aH)"><path fill="#FEF445" stroke="#1A1A1A" stroke-width="4" d="M120.016 60.031c0 7.926-1.52 15.599-4.56 22.954s-7.41 13.824-13.046 19.467c-5.637 5.58-12.097 9.956-19.443 13q-11.02 4.565-22.99 4.565a59.4 59.4 0 0 1-22.926-4.566c-7.346-3.043-13.87-7.419-19.506-12.999-5.573-5.643-9.943-12.111-12.983-19.467a59.6 59.6 0 0 1-4.56-22.954q0-11.985 4.56-23.018c3.04-7.355 7.41-13.823 12.983-19.467 5.636-5.58 12.16-9.955 19.506-12.999A59.4 59.4 0 0 1 59.977-.018q11.97 0 22.99 4.565c7.346 3.044 13.806 7.42 19.443 13 5.636 5.643 10.006 12.11 13.046 19.466q4.56 11.033 4.56 23.018Zm0 0" transform="matrix(.06168 0 0 .0616 71.71 278.724)"/></g></g><g fill="#1A1A1A"><use xlink:href="#e" x="74.566" y="282.882"/><use xlink:href="#B" x="75.412" y="282.882"/></g><g clip-path="url(#aI)"><g clip-path="url(#aJ)"><path fill="#8FD14F" stroke="#1A1A1A" stroke-width="4" d="M120.008 60.031c0 7.926-1.52 15.599-4.56 22.954s-7.41 13.824-13.046 19.467a59.5 59.5 0 0 1-19.443 13q-11.02 4.565-22.99 4.565a59.4 59.4 0 0 1-22.926-4.566A59.5 59.5 0 0 1 17.6 102.452C11.964 96.81 7.594 90.341 4.554 82.985a59.6 59.6 0 0 1-4.56-22.954q0-11.985 4.56-23.018c3.04-7.355 7.41-13.823 13.046-19.467A59.5 59.5 0 0 1 37.043 4.547 59.4 59.4 0 0 1 59.97-.018q11.97 0 22.99 4.565a59.5 59.5 0 0 1 19.443 13c5.636 5.643 10.006 12.11 13.046 19.466q4.56 11.033 4.56 23.018Zm0 0" transform="matrix(.06168 0 0 .0616 90.211 278.724)"/></g></g><g fill="#1A1A1A"><use xlink:href="#e" x="93.066" y="282.882"/><use xlink:href="#E" x="93.912" y="282.882"/></g><g clip-path="url(#aK)"><g clip-path="url(#aL)"><path fill="#F24726" stroke="#1A1A1A" stroke-width="4" d="M120.016 60.018c0 7.926-1.52 15.598-4.56 22.954s-7.41 13.823-13.046 19.467c-5.637 5.643-12.097 9.955-19.443 12.999q-11.02 4.566-22.99 4.565a59.4 59.4 0 0 1-22.926-4.565c-7.346-3.044-13.87-7.356-19.506-13-5.573-5.643-9.943-12.11-12.983-19.466a59.6 59.6 0 0 1-4.56-22.954c0-7.99 1.52-15.6 4.56-22.955a59.6 59.6 0 0 1 12.983-19.467c5.637-5.643 12.16-9.955 19.506-12.999 7.347-3.043 15.01-4.629 22.926-4.629 7.98 0 15.643 1.586 22.99 4.63s13.806 7.355 19.443 12.998c5.636 5.58 10.006 12.112 13.046 19.467 3.04 7.356 4.56 14.965 4.56 22.955Zm0 0" transform="matrix(.06168 0 0 .0616 113.652 272.701)"/></g></g><use xlink:href="#B" x="116.93" y="276.859" fill="#1A1A1A"/><g clip-path="url(#aM)"><g clip-path="url(#aN)"><path fill="#FEF445" stroke="#1A1A1A" stroke-width="4" d="M120.007 60.005c0 7.927-1.52 15.6-4.56 22.955s-7.41 13.823-13.046 19.467c-5.574 5.643-12.097 9.955-19.443 12.999a59.4 59.4 0 0 1-22.926 4.565q-11.97 0-22.99-4.565c-7.346-3.044-13.87-7.356-19.443-13-5.636-5.643-10.006-12.11-13.046-19.466a59.6 59.6 0 0 1-4.56-22.955c0-7.99 1.52-15.598 4.56-22.954s7.41-13.823 13.046-19.467c5.573-5.643 12.097-9.955 19.443-12.999Q48.062.02 60.032.02c7.916 0 15.58 1.522 22.926 4.565s13.87 7.356 19.443 13c5.636 5.643 10.006 12.11 13.046 19.466s4.56 14.965 4.56 22.954Zm0 0" transform="matrix(.06168 0 0 .0616 99.465 246.07)"/></g></g><use xlink:href="#J" x="102.743" y="250.227" fill="#1A1A1A"/><path fill="none" stroke="#333" stroke-width="2" d="M229.976 312.258C229.976 157.094.018 155.128.018.028" transform="matrix(.06168 0 0 .0616 103.167 253.463)"/><path fill="none" stroke="#333" stroke-width="2" d="M.021.026c100.951 0 39.013 209.95 139.964 209.95" transform="matrix(.06168 0 0 .0616 90.83 236.827)"/><path fill="none" stroke="#333" stroke-width="2" d="M-.02 97.776c111.148 0 148.894-97.779 260.041-97.779" transform="matrix(.06168 0 0 .0616 97.614 276.39)"/><path fill="none" stroke="#333" stroke-width="2" d="M-.012.011h179.99" transform="matrix(.06168 0 0 .0616 79.114 282.413)"/><path fill="none" stroke="#333" stroke-width="2" d="M230.031 227.51C230.031 98.092.01 129.416.01-.003" transform="matrix(.06168 0 0 .0616 79.726 264.703)"/><path fill="none" stroke="#333" stroke-width="2" d="M.027 227.51C.027 132.27 70.008 95.175 70.008-.003" transform="matrix(.06168 0 0 .0616 75.412 264.703)"/><path fill="none" stroke="#333" stroke-width="2" d="M-.03-.003C141.517-.003 198.516 97.776 340 97.776" transform="matrix(.06168 0 0 .0616 50.74 276.39)"/><path fill="none" stroke="#333" stroke-width="2" d="M610.011 372.54C610.011 86.624 285.878.007-.002.007" transform="matrix(.06168 0 0 .0616 42.106 234.367)"/><path fill="none" stroke="#333" stroke-width="2" d="M.02-.006c118.43 0 171.503 59.986 289.997 59.986" transform="matrix(.06168 0 0 .0616 58.143 257.317)"/><path fill="none" stroke="#333" stroke-width="2" d="M.021 219.996c111.211 0 169.983-108.811 169.983-219.969" transform="matrix(.06168 0 0 .0616 90.83 223.276)"/><path fill="none" stroke="#333" stroke-width="2" d="M.03.01c0 196.824 389.998 103.168 389.998 299.992" transform="matrix(.06168 0 0 .0616 63.076 214.652)"/><path fill="none" stroke="#333" stroke-width="2" d="M669.986 40.018C401.523 40.018 268.462.007-.002.007" transform="matrix(.06168 0 0 .0616 42.106 234.367)"/><path fill="none" stroke="#333" stroke-width="2" d="M-.008-.026c207.728 0 292.34 140.01 500.005 140.01" transform="matrix(.06168 0 0 .0616 66.778 210.955)"/><path fill="none" stroke="#333" stroke-width="2" d="M-.027 320.004c0-186.742 153.264-320.03 340.03-320.03" transform="matrix(.06168 0 0 .0616 38.404 210.955)"/><path fill="none" stroke="#333" stroke-width="2" d="M260.014 252.54C260.014 107.522-.026 144.997-.026-.022" transform="matrix(.06168 0 0 .0616 38.404 238.064)"/><path fill="none" stroke="#333" stroke-width="2" d="M.009 189.753C.009 99.964 120.022 89.819 120.022.03" transform="matrix(.06168 0 0 .0616 47.039 261.014)"/><path fill="none" stroke="#333" stroke-width="2" d="M-.009.022c169.73 0 250.288 59.986 420.018 59.986" transform="matrix(.06168 0 0 .0616 24.836 253.62)"/><path fill="none" stroke="#333" stroke-width="2" d="M360.008 309.752C170.013 309.752.03 189.97.03-.006" transform="matrix(.06168 0 0 .0616 21.135 257.317)"/><g clip-path="url(#aO)"><g clip-path="url(#aP)"><path fill="#FEF445" stroke="#1A1A1A" stroke-width="4" d="M120.03 60.01c0 7.926-1.582 15.598-4.622 22.954s-7.347 13.823-12.983 19.467-12.097 9.955-19.443 12.999q-11.02 4.565-22.99 4.565c-7.98 0-15.58-1.522-22.926-4.565s-13.87-7.356-19.506-13c-5.637-5.643-9.943-12.11-12.983-19.466A59.6 59.6 0 0 1 .017 60.01c0-7.99 1.52-15.6 4.56-22.955s7.346-13.887 12.983-19.467c5.636-5.643 12.16-9.955 19.506-12.999C44.413 1.546 52.012.024 59.992.024q11.97 0 22.99 4.565c7.346 3.044 13.806 7.356 19.443 13 5.636 5.58 9.943 12.11 12.983 19.466s4.623 14.965 4.623 22.955Zm0 0" transform="matrix(.06168 0 0 .0616 138.936 265.307)"/></g></g><use xlink:href="#k" x="142.214" y="269.465" fill="#1A1A1A"/><path fill="none" stroke="#333" stroke-width="2" d="M-.012 120.031c125.524 0 164.473-120.035 289.997-120.035" transform="matrix(.06168 0 0 .0616 121.055 269.004)"/><g clip-path="url(#aQ)"><g clip-path="url(#aR)"><path fill="#8FD14F" stroke="#1A1A1A" stroke-width="4" d="M119.987 60.012c0 7.926-1.52 15.599-4.56 22.954s-7.347 13.823-12.983 19.467-12.16 9.955-19.506 12.999a59.4 59.4 0 0 1-22.927 4.566q-11.97 0-22.989-4.566c-7.346-3.044-13.806-7.356-19.443-12.999-5.636-5.644-9.943-12.111-12.983-19.467C1.493 75.611-.027 67.938-.027 60.012c0-7.99 1.52-15.6 4.623-22.955 3.04-7.355 7.347-13.886 12.983-19.466 5.637-5.644 12.097-9.956 19.443-13Q48.042.027 60.012.027c7.916 0 15.58 1.522 22.926 4.566s13.87 7.355 19.506 12.999c5.636 5.58 9.943 12.11 12.983 19.466s4.56 14.965 4.56 22.955Zm0 0" transform="matrix(.06168 0 0 .0616 131.54 236.827)"/></g></g><use xlink:href="#h" x="134.818" y="240.985" fill="#1A1A1A"/><path fill="none" stroke="#333" stroke-width="2" d="M-.02 150.026c170.869 0 229.134-150.028 400.004-150.028" transform="matrix(.06168 0 0 .0616 106.868 240.524)"/><path fill="none" stroke="#333" stroke-width="2" d="M.027 522.242C.027 293.966 1.737-.002 229.985-.002" transform="matrix(.06168 0 0 .0616 117.354 240.524)"/><path fill="none" stroke="#333" stroke-width="2" d="M.03-.008c225.715 0 490 54.279 490 280.018" transform="matrix(.06168 0 0 .0616 105.018 219.579)"/><path fill="none" stroke="#333" stroke-width="2" d="M120.011 342.257C120.011 197.175-.002 145.052-.002-.03" transform="matrix(.06168 0 0 .0616 135.242 244.22)"/><g clip-path="url(#aS)"><g clip-path="url(#aT)"><path fill="#FEF445" stroke="#1A1A1A" stroke-width="4" d="M119.975 59.974q0 11.985-4.56 23.018c-3.04 7.292-7.346 13.823-12.983 19.403-5.636 5.644-12.096 10.019-19.443 13.063-7.41 3.043-15.01 4.565-22.989 4.565s-15.58-1.522-22.99-4.565c-7.346-3.044-13.806-7.42-19.442-13.063-5.637-5.58-9.944-12.111-12.983-19.403Q.025 71.959.025 59.974c0-7.926 1.52-15.599 4.56-22.954s7.346-13.824 12.983-19.467c5.636-5.58 12.096-9.956 19.442-13C44.42 1.51 52.02-.011 60-.011S75.58 1.51 82.99 4.554c7.346 3.043 13.806 7.419 19.442 12.999 5.637 5.643 9.943 12.111 12.983 19.467a59.6 59.6 0 0 1 4.56 22.954Zm0 0" transform="matrix(.06168 0 0 .0616 10.956 342.759)"/></g></g><use xlink:href="#e" x="14.233" y="346.917" fill="#1A1A1A"/><g clip-path="url(#aU)"><g clip-path="url(#aV)"><path fill="#F24726" stroke="#1A1A1A" stroke-width="4" d="M120.017 60.018c0 7.926-1.52 15.599-4.56 22.955s-7.41 13.823-13.046 19.466c-5.637 5.644-12.096 9.956-19.443 13q-11.02 4.565-22.99 4.565a59.4 59.4 0 0 1-22.926-4.566c-7.346-3.043-13.87-7.355-19.506-12.999-5.573-5.643-9.943-12.11-12.983-19.466a59.6 59.6 0 0 1-4.56-22.955c0-7.99 1.52-15.599 4.56-22.954a59.6 59.6 0 0 1 12.983-19.467c5.637-5.644 12.16-9.955 19.506-13C44.4 1.492 52.062-.03 59.98-.03c7.98 0 15.643 1.522 22.99 4.629 7.346 3.044 13.805 7.355 19.442 12.999 5.637 5.58 10.006 12.111 13.046 19.467s4.56 14.965 4.56 22.954Zm0 0" transform="matrix(.06168 0 0 .0616 36.86 365.537)"/></g></g><g fill="#1A1A1A"><use xlink:href="#e" x="39.714" y="369.695"/><use xlink:href="#h" x="40.56" y="369.695"/></g><g clip-path="url(#aW)"><g clip-path="url(#aX)"><path fill="#8FD14F" stroke="#1A1A1A" stroke-width="4" d="M120.004 60.01c0 7.926-1.52 15.598-4.56 22.954s-7.41 13.823-13.046 19.467c-5.574 5.643-12.097 9.955-19.443 12.999a59.4 59.4 0 0 1-22.927 4.565q-11.97 0-22.989-4.565c-7.347-3.044-13.87-7.356-19.443-13C11.96 96.788 7.59 90.32 4.55 82.965A59.6 59.6 0 0 1-.01 60.009c0-7.99 1.52-15.598 4.56-22.954s7.41-13.887 13.046-19.467C23.17 11.945 29.692 7.633 37.04 4.59Q48.059.024 60.029.024c7.916 0 15.58 1.522 22.926 4.565s13.87 7.356 19.443 13c5.636 5.58 10.006 12.11 13.046 19.466s4.56 14.965 4.56 22.954Zm0 0" transform="matrix(.06168 0 0 .0616 44.262 346.456)"/></g></g><g fill="#1A1A1A"><use xlink:href="#e" x="47.117" y="350.614"/><use xlink:href="#k" x="47.963" y="350.614"/></g><g clip-path="url(#aY)"><g clip-path="url(#aZ)"><path fill="#FEF445" stroke="#1A1A1A" stroke-width="4" d="M119.982 60.021c0 7.926-1.52 15.599-4.56 22.955s-7.346 13.823-12.983 19.466c-5.636 5.58-12.096 9.956-19.506 13-7.347 3.043-14.946 4.565-22.926 4.565q-11.97 0-22.99-4.566c-7.346-3.043-13.806-7.419-19.443-12.999-5.636-5.643-9.943-12.11-12.983-19.466A59.6 59.6 0 0 1 .031 60.02c0-7.99 1.52-15.662 4.56-22.954C7.631 29.71 11.938 23.18 17.574 17.6 23.211 11.956 29.671 7.58 37.017 4.537q11.02-4.565 22.99-4.565c7.98 0 15.58 1.522 22.926 4.565 7.41 3.044 13.87 7.42 19.506 13.063 5.637 5.58 9.943 12.111 12.983 19.467 3.04 7.292 4.56 14.965 4.56 22.954Zm0 0" transform="matrix(.06168 0 0 .0616 28.225 323.506)"/></g></g><use xlink:href="#n" x="31.502" y="327.664" fill="#1A1A1A"/><g clip-path="url(#ba)"><g clip-path="url(#bb)"><path fill="#8FD14F" stroke="#1A1A1A" stroke-width="4" d="M119.976 59.99c0 7.989-1.52 15.598-4.56 22.954s-7.347 13.886-12.983 19.466c-5.637 5.644-12.097 9.956-19.443 13-7.41 3.043-15.01 4.565-22.99 4.565s-15.58-1.522-22.99-4.565c-7.346-3.044-13.806-7.356-19.442-13C11.93 96.83 7.625 90.3 4.585 82.944S.025 67.979.025 59.989c0-7.926 1.52-15.599 4.56-22.954s7.346-13.823 12.983-19.467C23.204 11.925 29.664 7.613 37.01 4.57 44.42 1.525 52.02.004 60 .004S75.58 1.525 82.99 4.569c7.346 3.044 13.806 7.356 19.443 13 5.636 5.643 9.943 12.11 12.983 19.466a59.6 59.6 0 0 1 4.56 22.954Zm0 0" transform="matrix(.06168 0 0 .0616 52.897 300.094)"/></g></g><use xlink:href="#q" x="56.175" y="304.252" fill="#1A1A1A"/><g clip-path="url(#bc)"><g clip-path="url(#bd)"><path fill="#FEF445" stroke="#1A1A1A" stroke-width="4" d="M120.014 60.006c0 7.927-1.52 15.6-4.56 22.955s-7.41 13.823-13.046 19.467c-5.637 5.643-12.097 9.955-19.443 12.999q-11.02 4.565-22.99 4.565a59.4 59.4 0 0 1-22.926-4.565c-7.346-3.044-13.87-7.356-19.506-13C11.97 96.785 7.6 90.318 4.56 82.962A59.6 59.6 0 0 1 0 60.006c0-7.99 1.52-15.598 4.56-22.954s7.41-13.823 12.983-19.467C23.18 11.942 29.703 7.63 37.05 4.586A59.4 59.4 0 0 1 59.975.021q11.97 0 22.99 4.565c7.346 3.044 13.806 7.356 19.443 13 5.636 5.643 10.006 12.11 13.046 19.466s4.56 14.965 4.56 22.954Zm0 0" transform="matrix(.06168 0 0 .0616 91.137 308.717)"/></g></g><use xlink:href="#t" x="94.414" y="312.876" fill="#1A1A1A"/><g clip-path="url(#be)"><g clip-path="url(#bf)"><path fill="#F24726" stroke="#1A1A1A" stroke-width="4" d="M120.005 59.984c0 7.99-1.52 15.599-4.56 22.954s-7.41 13.887-13.046 19.467c-5.573 5.643-12.097 9.955-19.443 12.999a59.4 59.4 0 0 1-22.926 4.566q-11.97 0-22.99-4.566c-7.346-3.044-13.87-7.356-19.443-12.999-5.636-5.58-10.006-12.111-13.046-19.467s-4.56-14.965-4.56-22.954c0-7.926 1.52-15.6 4.56-22.955s7.41-13.823 13.046-19.466c5.574-5.644 12.097-9.956 19.443-13Q48.06-.001 60.03-.001c7.916 0 15.58 1.522 22.926 4.566s13.87 7.355 19.443 12.999c5.636 5.643 10.006 12.11 13.046 19.466a59.6 59.6 0 0 1 4.56 22.955Zm0 0" transform="matrix(.06168 0 0 .0616 76.95 325.973)"/></g></g><use xlink:href="#w" x="80.227" y="330.131" fill="#1A1A1A"/><g clip-path="url(#bg)"><g clip-path="url(#bh)"><path fill="#F24726" stroke="#1A1A1A" stroke-width="4" d="M120.024 59.982c0 7.99-1.52 15.598-4.56 22.954-3.103 7.355-7.41 13.887-13.046 19.467-5.637 5.643-12.096 9.955-19.443 12.999-7.346 3.107-15.01 4.629-22.99 4.629-7.916 0-15.579-1.522-22.926-4.63-7.346-3.043-13.87-7.355-19.506-12.998C11.917 96.823 7.61 90.29 4.57 82.936 1.53 75.58.01 67.97.01 59.982c0-7.927 1.52-15.6 4.56-22.955s7.347-13.823 12.983-19.467S29.713 7.605 37.06 4.561A59.4 59.4 0 0 1 59.986-.004q11.97 0 22.99 4.565c7.346 3.044 13.805 7.356 19.442 13 5.637 5.643 9.943 12.11 13.046 19.466a59.6 59.6 0 0 1 4.56 22.955Zm0 0" transform="matrix(.06168 0 0 .0616 69.554 350.153)"/></g></g><g fill="#1A1A1A"><use xlink:href="#e" x="72.409" y="354.311"/><use xlink:href="#e" x="73.255" y="354.311"/></g><g clip-path="url(#bi)"><g clip-path="url(#bj)"><path fill="#FEF445" stroke="#1A1A1A" stroke-width="4" d="M119.972 59.969q0 11.985-4.56 23.017c-3.04 7.356-7.346 13.824-12.983 19.467-5.636 5.58-12.096 9.956-19.443 13q-11.02 4.565-22.99 4.565c-7.979 0-15.579-1.522-22.989-4.566-7.346-3.043-13.806-7.419-19.442-12.999C11.928 96.81 7.62 90.342 4.582 82.986Q.022 71.953.022 59.97c0-7.927 1.52-15.6 4.56-22.955s7.346-13.823 12.983-19.467C23.2 11.967 29.66 7.592 37.007 4.548c7.41-3.043 15.01-4.565 22.99-4.565q11.97 0 22.99 4.565c7.346 3.044 13.806 7.42 19.442 13 5.637 5.643 9.943 12.11 12.983 19.466a59.6 59.6 0 0 1 4.56 22.955Zm0 0" transform="matrix(.06168 0 0 .0616 65.233 371.56)"/></g></g><g fill="#1A1A1A"><use xlink:href="#e" x="68.088" y="375.718"/><use xlink:href="#B" x="68.934" y="375.718"/></g><g clip-path="url(#bk)"><g clip-path="url(#bl)"><path fill="#8FD14F" stroke="#1A1A1A" stroke-width="4" d="M120.028 59.969c0 7.99-1.52 15.662-4.623 23.017-3.04 7.356-7.347 13.824-12.983 19.467-5.637 5.58-12.097 9.956-19.443 13q-11.02 4.565-22.99 4.565a59.4 59.4 0 0 1-22.926-4.566c-7.346-3.043-13.87-7.419-19.506-12.999C11.92 96.81 7.614 90.342 4.574 82.986Q.014 71.953.014 59.97c0-7.927 1.52-15.6 4.56-22.955s7.346-13.823 12.983-19.467c5.636-5.58 12.16-9.955 19.506-12.999A59.4 59.4 0 0 1 59.989-.017q11.97 0 22.99 4.565c7.346 3.044 13.806 7.42 19.443 13 5.636 5.643 9.943 12.11 12.983 19.466 3.103 7.356 4.623 15.028 4.623 22.955Zm0 0" transform="matrix(.06168 0 0 .0616 83.734 371.56)"/></g></g><g fill="#1A1A1A"><use xlink:href="#e" x="86.588" y="375.718"/><use xlink:href="#E" x="87.434" y="375.718"/></g><g clip-path="url(#bm)"><g clip-path="url(#bn)"><path fill="#F24726" stroke="#1A1A1A" stroke-width="4" d="M119.972 60.018c0 7.926-1.52 15.599-4.56 22.955s-7.346 13.823-12.983 19.466c-5.636 5.644-12.096 9.956-19.442 13q-11.02 4.565-22.99 4.565c-7.98 0-15.58-1.522-22.99-4.566-7.346-3.043-13.806-7.355-19.442-12.999-5.637-5.643-9.943-12.11-12.983-19.466a59.6 59.6 0 0 1-4.56-22.955c0-7.99 1.52-15.599 4.56-22.954s7.346-13.887 12.983-19.467c5.636-5.644 12.096-9.955 19.443-13 7.41-3.106 15.01-4.628 22.99-4.628S75.64 1.491 82.986 4.598c7.346 3.044 13.806 7.355 19.442 12.999 5.637 5.58 9.944 12.111 12.983 19.467 3.04 7.355 4.56 14.965 4.56 22.954Zm0 0" transform="matrix(.06168 0 0 .0616 107.174 365.537)"/></g></g><use xlink:href="#B" x="110.452" y="369.695" fill="#1A1A1A"/><g clip-path="url(#bo)"><g clip-path="url(#bp)"><path fill="#FEF445" stroke="#1A1A1A" stroke-width="4" d="M120.027 60.006c0 7.927-1.52 15.6-4.624 22.955-3.04 7.355-7.346 13.823-12.983 19.467-5.636 5.643-12.096 9.955-19.442 12.999q-11.02 4.565-22.99 4.565a59.4 59.4 0 0 1-22.926-4.565c-7.347-3.044-13.87-7.356-19.506-13-5.637-5.643-9.943-12.11-12.983-19.466a59.6 59.6 0 0 1-4.56-22.955c0-7.99 1.52-15.598 4.56-22.954s7.346-13.823 12.983-19.467c5.636-5.643 12.16-9.955 19.506-12.999A59.4 59.4 0 0 1 59.988.021q11.97 0 22.99 4.565c7.346 3.044 13.806 7.356 19.442 13 5.637 5.643 9.944 12.11 12.983 19.466 3.104 7.356 4.624 14.965 4.624 22.954Zm0 0" transform="matrix(.06168 0 0 .0616 92.987 338.905)"/></g></g><use xlink:href="#J" x="96.265" y="343.063" fill="#1A1A1A"/><path fill="none" stroke="#333" stroke-width="2" d="M229.996 312.258C229.996 157.094-.026 155.128-.026.028" transform="matrix(.06168 0 0 .0616 96.69 346.3)"/><path fill="none" stroke="#333" stroke-width="2" d="M-.022.027c100.95 0 39.075 209.95 140.026 209.95" transform="matrix(.06168 0 0 .0616 84.353 329.662)"/><path fill="none" stroke="#333" stroke-width="2" d="M0 97.783C111.084 97.783 148.893.005 259.978.005" transform="matrix(.06168 0 0 .0616 91.137 369.234)"/><path fill="none" stroke="#333" stroke-width="2" d="M.008.012h179.99" transform="matrix(.06168 0 0 .0616 72.636 375.25)"/><path fill="none" stroke="#333" stroke-width="2" d="M229.988 227.512C229.988 98.092.03 129.417.03-.003" transform="matrix(.06168 0 0 .0616 73.248 357.54)"/><path fill="none" stroke="#333" stroke-width="2" d="M-.017 227.512c0-95.242 70.045-132.336 70.045-227.515" transform="matrix(.06168 0 0 .0616 68.935 357.54)"/><path fill="none" stroke="#333" stroke-width="2" d="M-.01.005c141.547 0 198.482 97.778 340.029 97.778" transform="matrix(.06168 0 0 .0616 44.262 369.234)"/><path fill="none" stroke="#333" stroke-width="2" d="M610.03 372.54C610.03 86.626 285.899.009.019.009" transform="matrix(.06168 0 0 .0616 35.628 327.203)"/><path fill="none" stroke="#333" stroke-width="2" d="M-.024-.004c118.494 0 171.566 59.986 289.997 59.986" transform="matrix(.06168 0 0 .0616 51.666 350.153)"/><path fill="none" stroke="#333" stroke-width="2" d="M-.022 219.997c111.21 0 170.046-108.812 170.046-219.97" transform="matrix(.06168 0 0 .0616 84.353 316.112)"/><path fill="none" stroke="#333" stroke-width="2" d="M-.013.01c0 196.825 389.997 103.169 389.997 299.993" transform="matrix(.06168 0 0 .0616 56.598 307.488)"/><path fill="none" stroke="#333" stroke-width="2" d="M670.006 40.02C401.542 40.02 268.482.007.018.007" transform="matrix(.06168 0 0 .0616 35.628 327.203)"/><path fill="none" stroke="#333" stroke-width="2" d="M.011-.025c207.666 0 292.277 140.01 500.006 140.01" transform="matrix(.06168 0 0 .0616 60.3 303.79)"/><path fill="none" stroke="#333" stroke-width="2" d="M-.007 320.005c0-186.742 153.263-320.03 340.03-320.03" transform="matrix(.06168 0 0 .0616 31.926 303.79)"/><path fill="none" stroke="#333" stroke-width="2" d="M259.97 252.541C259.97 107.523-.006 144.998-.006-.02" transform="matrix(.06168 0 0 .0616 31.926 330.9)"/><path fill="none" stroke="#333" stroke-width="2" d="M.028 189.753c0-89.788 119.95-99.934 119.95-189.722" transform="matrix(.06168 0 0 .0616 40.56 353.85)"/><path fill="none" stroke="#333" stroke-width="2" d="M.011.024c169.666 0 250.288 59.985 420.017 59.985" transform="matrix(.06168 0 0 .0616 18.359 346.456)"/><path fill="none" stroke="#333" stroke-width="2" d="M360.028 309.753C170.032 309.753-.014 189.972-.014-.004" transform="matrix(.06168 0 0 .0616 14.657 350.153)"/><g clip-path="url(#bq)"><g clip-path="url(#br)"><path fill="#FEF445" stroke="#1A1A1A" stroke-width="4" d="M119.993 60.011c0 7.926-1.52 15.599-4.56 22.954s-7.41 13.824-12.983 19.467c-5.636 5.644-12.16 9.956-19.506 13a59.4 59.4 0 0 1-22.926 4.565q-11.97 0-22.99-4.566c-7.346-3.043-13.806-7.355-19.443-12.999C11.95 96.79 7.642 90.321 4.54 82.965a59.6 59.6 0 0 1-4.56-22.954c0-7.99 1.52-15.599 4.56-22.954C7.642 29.7 11.949 23.17 17.585 17.59c5.637-5.644 12.097-9.956 19.443-13Q48.048.026 60.018.026c7.916 0 15.58 1.522 22.926 4.566s13.87 7.355 19.506 12.999a59.6 59.6 0 0 1 12.983 19.467c3.04 7.355 4.56 14.964 4.56 22.954Zm0 0" transform="matrix(.06168 0 0 .0616 132.466 358.143)"/></g></g><use xlink:href="#k" x="135.744" y="362.301" fill="#1A1A1A"/><path fill="none" stroke="#333" stroke-width="2" d="M.008 119.968c125.524 0 164.473-119.971 289.997-119.971" transform="matrix(.06168 0 0 .0616 114.578 361.84)"/><g clip-path="url(#bs)"><g clip-path="url(#bt)"><path fill="#8FD14F" stroke="#1A1A1A" stroke-width="4" d="M120.006 60.013c0 7.926-1.52 15.6-4.56 22.955s-7.41 13.823-13.046 19.466c-5.573 5.644-12.096 9.956-19.443 13a59.4 59.4 0 0 1-22.926 4.565q-11.97 0-22.99-4.566c-7.346-3.043-13.869-7.355-19.442-12.999-5.637-5.643-10.007-12.11-13.047-19.466a59.6 59.6 0 0 1-4.56-22.955c0-7.99 1.52-15.599 4.56-22.954s7.41-13.887 13.047-19.467c5.573-5.643 12.096-9.955 19.443-12.999Q48.062.027 60.032.027c7.916 0 15.579 1.522 22.925 4.566 7.347 3.044 13.87 7.356 19.443 12.999 5.637 5.58 10.007 12.111 13.047 19.467s4.56 14.965 4.56 22.954Zm0 0" transform="matrix(.06168 0 0 .0616 125.063 329.662)"/></g></g><use xlink:href="#h" x="128.341" y="333.821" fill="#1A1A1A"/><path fill="none" stroke="#333" stroke-width="2" d="M0 150.027C170.868 150.027 229.133 0 400.003 0" transform="matrix(.06168 0 0 .0616 100.39 333.36)"/><path fill="none" stroke="#333" stroke-width="2" d="M-.017 522.243C-.017 293.968 1.757 0 230.005 0" transform="matrix(.06168 0 0 .0616 110.876 333.36)"/><path fill="none" stroke="#333" stroke-width="2" d="M-.013-.008c225.778 0 489.999 54.28 489.999 280.018" transform="matrix(.06168 0 0 .0616 98.54 312.415)"/><path fill="none" stroke="#333" stroke-width="2" d="M120.032 342.258C120.032 197.176.018 145.053.018-.03" transform="matrix(.06168 0 0 .0616 128.765 337.056)"/></svg>